<svg xmlns="http://www.w3.org/2000/svg" width="20.052" height="20.052" viewBox="0 0 20.052 20.052">
  <path id="Icon_ionic-ios-paper" data-name="Icon ionic-ios-paper" d="M7.038,4.917V20.439a.677.677,0,0,1-.675.675h0a.677.677,0,0,1-.675-.675V6.46H4.917A1.541,1.541,0,0,0,3.375,8V21.885a1.541,1.541,0,0,0,1.542,1.542h17.02a1.49,1.49,0,0,0,1.489-1.489V4.917a1.541,1.541,0,0,0-1.542-1.542l-13.4.1A1.382,1.382,0,0,0,7.038,4.917ZM10.22,6.46h4.049a.677.677,0,0,1,.675.675h0a.677.677,0,0,1-.675.675H10.22a.677.677,0,0,1-.675-.675h0A.677.677,0,0,1,10.22,6.46Zm0,7.712h7.134a.677.677,0,0,1,.675.675h0a.677.677,0,0,1-.675.675H10.22a.677.677,0,0,1-.675-.675h0A.677.677,0,0,1,10.22,14.172Zm9.448,5.206H10.22a.677.677,0,0,1-.675-.675h0a.677.677,0,0,1,.675-.675h9.448a.677.677,0,0,1,.675.675h0A.677.677,0,0,1,19.668,19.378Zm0-7.712H10.22a.677.677,0,0,1-.675-.675h0a.677.677,0,0,1,.675-.675h9.448a.677.677,0,0,1,.675.675h0A.677.677,0,0,1,19.668,11.666Z" transform="translate(-3.375 -3.375)" fill="#a1a3ef"/>
</svg>
