<svg xmlns="http://www.w3.org/2000/svg" width="61.761" height="64.993" viewBox="0 0 61.761 64.993">
  <defs>
    <style>
      .cls-1 {
        fill: #464343;
        fill-rule: evenodd;
      }
    </style>
  </defs>
  <path id="Path_93126" data-name="Path 93126" class="cls-1" d="M105.792,67.2v1.9a3,3,0,0,1-2.519,2.99l-.471,1.722a2.112,2.112,0,0,1-2.047,1.592h-4.6a2.114,2.114,0,0,1-2.047-1.592l-.455-1.722a3.011,3.011,0,0,1-2.535-2.99V67.2a1.817,1.817,0,0,1,1.8-1.836h11.072A1.826,1.826,0,0,1,105.792,67.2Zm8.515-25.592a16.032,16.032,0,0,1-4.436,11.114,14.754,14.754,0,0,0-3.9,7.978,2.623,2.623,0,0,1-2.6,2.226H93.54A2.6,2.6,0,0,1,90.957,60.7a14.813,14.813,0,0,0-3.916-7.995,15.925,15.925,0,1,1,27.266-11.1Zm-14.055-9.7a1.806,1.806,0,0,0-1.787-1.8A11.513,11.513,0,0,0,87.024,41.658a1.787,1.787,0,1,0,3.575.023v-.023a7.916,7.916,0,0,1,7.865-7.93,1.8,1.8,0,0,0,1.787-1.813ZM98.464,20.355a1.81,1.81,0,0,0,1.787-1.82V12.214a1.787,1.787,0,1,0-3.575-.024v6.345A1.811,1.811,0,0,0,98.464,20.355ZM77.421,41.593a1.794,1.794,0,0,0-1.787-1.8H69.378a1.8,1.8,0,0,0,0,3.607h6.256a1.787,1.787,0,0,0,1.787-1.787Zm50.128-1.8h-6.256a1.8,1.8,0,0,0,0,3.607h6.256a1.8,1.8,0,0,0,0-3.607ZM81.061,56.623l-4.436,4.485a1.814,1.814,0,0,0,0,2.551,1.775,1.775,0,0,0,1.267.52,1.708,1.708,0,0,0,1.251-.52L83.58,59.19a1.834,1.834,0,0,0,0-2.567,1.774,1.774,0,0,0-2.509-.01ZM114.6,27.1a1.844,1.844,0,0,0,1.267-.52l4.436-4.485a1.814,1.814,0,0,0,0-2.551,1.786,1.786,0,0,0-2.527-.008l-.008.008-4.436,4.485a1.814,1.814,0,0,0,0,2.551,1.847,1.847,0,0,0,1.267.52Zm-33.538-.536a1.775,1.775,0,0,0,1.267.52,1.708,1.708,0,0,0,1.251-.52,1.814,1.814,0,0,0,0-2.551l-4.436-4.485a1.774,1.774,0,0,0-2.509-.01l-.01.01a1.8,1.8,0,0,0-.013,2.553l.013.015Zm34.805,30.061a1.786,1.786,0,0,0-2.527-.008l-.008.008a1.834,1.834,0,0,0,0,2.567l4.436,4.468a1.787,1.787,0,0,0,2.519,0,1.814,1.814,0,0,0,0-2.551Z" transform="translate(-67.584 -10.414)"/>
</svg>
