<svg xmlns="http://www.w3.org/2000/svg" width="25.61" height="17.89" viewBox="0 0 25.61 17.89">
  <path id="Icon_metro-books" data-name="Icon metro-books" d="M7.789,8.571H3.317a.748.748,0,0,0-.745.745v16.4a.748.748,0,0,0,.745.745H7.789a.748.748,0,0,0,.745-.745V9.317a.748.748,0,0,0-.745-.745Zm-.745,4.472H4.062V11.553H7.044Zm8.2-4.472H10.771a.748.748,0,0,0-.745.745v16.4a.748.748,0,0,0,.745.745h4.472a.748.748,0,0,0,.745-.745V9.317a.748.748,0,0,0-.745-.745ZM14.5,13.044H11.516V11.553H14.5Zm5.9-3.32L16.4,11.736a.748.748,0,0,0-.33,1l6.708,13.314a.748.748,0,0,0,1,.33l3.994-2.012a.748.748,0,0,0,.33-1L21.394,10.054a.748.748,0,0,0-1-.33Zm3.795,15.992a.745.745,0,1,1-.745-.745A.745.745,0,0,1,24.188,25.716Z" transform="translate(-2.571 -8.571)" fill="#a1a3ef"/>
</svg>
