<svg xmlns="http://www.w3.org/2000/svg" width="70.696" height="70.569" viewBox="0 0 70.696 70.569">
  <g id="Group_45638" data-name="Group 45638" transform="translate(1195.63 -250.256)">
    <path id="Path_93406" data-name="Path 93406" d="M-1066.529,402.906q0,13.147,0,26.3a12.59,12.59,0,0,1-.3,3.365,8,8,0,0,1-7.728,5.914q-22.81,0-45.62,0c-1.538,0-3.086.059-4.611-.092a7.835,7.835,0,0,1-6.958-7.458c-.092-3.136-.036-6.275-.037-9.414q0-7.528,0-15.056v-.611c.176.13.292.211.4.3a23.184,23.184,0,0,0,4.777,3.036.412.412,0,0,1,.26.461q-.006,5.7,0,11.409c0,3.153-.007,6.305,0,9.458a2.54,2.54,0,0,0,2.767,2.78q10,.013,19.993.006h22.449c2.118,0,4.236,0,6.354-.006a2.561,2.561,0,0,0,2.8-2.8c.012-4.269.006-8.538.006-12.808q0-9.33,0-18.661v-3.841h-22.852a19.939,19.939,0,0,0,1.034-8.255,23.969,23.969,0,0,0-2.132-8.063h7.633v.449c0,1.655-.011,3.309,0,4.963a5.455,5.455,0,0,0,4.145,5.3,5.4,5.4,0,0,0,6.692-4.885c.083-1.763.034-3.533.044-5.3,0-.165,0-.332,0-.534,2.187-.01,4.349-.232,6.352.8a7.769,7.769,0,0,1,4.5,7.224C-1066.483,392.217-1066.53,397.561-1066.529,402.906Z" transform="translate(-58.421 -117.664)" fill="#fff"/>
    <path id="Path_93407" data-name="Path 93407" d="M-1160.329,284.526a19.808,19.808,0,0,1-12.869,6.482,19.627,19.627,0,0,1-16.491-6,19.859,19.859,0,0,1-5.9-15.816,19.826,19.826,0,0,1,.905-4.561,24.908,24.908,0,0,1,1.874-4.621.405.405,0,0,0-.076-.375c-.724-.673-1.444-1.354-2.212-1.975a.853.853,0,0,1-.261-.908c.038-.316.28-.461.587-.52a35.548,35.548,0,0,1,6.275-.565c.93-.012,1.863.035,2.794.053a.864.864,0,0,1,.93.879,37.1,37.1,0,0,1-.488,8.824c-.141.712-.713.9-1.287.425-.651-.544-1.291-1.1-1.936-1.647-.117-.1-.24-.193-.377-.3a7.053,7.053,0,0,0-1.567,2.7,12.286,12.286,0,0,0-.617,3.536c-.008.217.1.478-.209.62-.057.027-.045.235-.042.359a16.079,16.079,0,0,0,12.524,15.263,16.051,16.051,0,0,0,19.03-11.557,16.08,16.08,0,0,0-12.069-19.82,15.075,15.075,0,0,0-9.951,1.092c-.076.036-.154.07-.163.074a18.741,18.741,0,0,0-1.314-2.1,3.057,3.057,0,0,0-2.3-1.064c.174-.114.265-.185.366-.237a20.31,20.31,0,0,1,12.911-2.249,20.032,20.032,0,0,1,15.62,11.976A20.017,20.017,0,0,1-1160.329,284.526Z" transform="translate(0 0)" fill="#fff"/>
    <path id="Path_93408" data-name="Path 93408" d="M-982.039,380.828q-2.864,3.319-5.724,6.64a.8.8,0,0,0-.187.514,3.9,3.9,0,0,1-.718,2.516,1.214,1.214,0,0,0-.2.573c-.146,2.156-.277,4.313-.412,6.469a1.29,1.29,0,0,1-.923,1.153,1.366,1.366,0,0,1-1.471-.229,1.184,1.184,0,0,1-.321-.7c-.2-2.024-.362-4.05-.536-6.076a1.115,1.115,0,0,0-.489-1.026,3.114,3.114,0,0,1-.89-2.345,2.682,2.682,0,0,1,3.15-2.837.748.748,0,0,0,.67-.23q3.184-3.013,6.385-6.006a1.31,1.31,0,0,1,1.762-.061A1.217,1.217,0,0,1-982.039,380.828Z" transform="translate(-184.611 -117.702)" fill="#fff"/>
    <path id="Path_93409" data-name="Path 93409" d="M-581.528,325.425a2.519,2.519,0,0,1-2.095,2.684,2.616,2.616,0,0,1-3.329-2.583c-.045-2.782-.032-5.566-.007-8.349a2.4,2.4,0,0,1,1.44-2.354,2.892,2.892,0,0,1,3.08.322,2.32,2.32,0,0,1,.893,1.89c.019,1.441.005,2.881.005,4.322h.017C-581.524,322.714-581.509,324.07-581.528,325.425Z" transform="translate(-557.026 -58.819)" fill="#fff"/>
    <rect id="Rectangle_23721" data-name="Rectangle 23721" width="5.387" height="5.382" transform="translate(-1165.7 304.772)" fill="#fff"/>
    <rect id="Rectangle_23722" data-name="Rectangle 23722" width="5.387" height="5.387" transform="translate(-1154.825 304.77)" fill="#fff"/>
    <rect id="Rectangle_23723" data-name="Rectangle 23723" width="5.396" height="5.404" transform="translate(-1165.714 293.863)" fill="#fff"/>
    <rect id="Rectangle_23724" data-name="Rectangle 23724" width="5.392" height="5.407" transform="translate(-1176.593 304.76)" fill="#fff"/>
    <rect id="Rectangle_23725" data-name="Rectangle 23725" width="5.396" height="5.391" transform="translate(-1143.972 304.775)" fill="#fff"/>
    <rect id="Rectangle_23726" data-name="Rectangle 23726" width="5.393" height="5.388" transform="translate(-1154.84 282.985)" fill="#fff"/>
    <rect id="Rectangle_23727" data-name="Rectangle 23727" width="5.381" height="5.392" transform="translate(-1143.96 282.991)" fill="#fff"/>
    <rect id="Rectangle_23728" data-name="Rectangle 23728" width="5.37" height="5.397" transform="translate(-1176.583 293.878)" fill="#fff"/>
    <rect id="Rectangle_23729" data-name="Rectangle 23729" width="5.387" height="5.403" transform="translate(-1154.835 293.863)" fill="#fff"/>
    <rect id="Rectangle_23730" data-name="Rectangle 23730" width="5.393" height="5.389" transform="translate(-1143.972 293.878)" fill="#fff"/>
  </g>
</svg>
