<svg xmlns="http://www.w3.org/2000/svg" width="12.41" height="9.928" viewBox="0 0 12.41 9.928">
  <path id="Icon_awesome-car-alt" data-name="Icon awesome-car-alt" d="M11.341,8.335l-.291-.727L10.535,6.32A2.882,2.882,0,0,0,7.847,4.5H4.563A2.882,2.882,0,0,0,1.875,6.32L1.359,7.608l-.291.727A1.651,1.651,0,0,0,0,9.878v1.241A1.641,1.641,0,0,0,.414,12.2v1.4a.827.827,0,0,0,.827.827h.827A.827.827,0,0,0,2.9,13.6v-.827H9.514V13.6a.827.827,0,0,0,.827.827h.827A.827.827,0,0,0,12,13.6V12.2a1.64,1.64,0,0,0,.414-1.084V9.878A1.651,1.651,0,0,0,11.341,8.335Zm-7.93-1.4a1.241,1.241,0,0,1,1.152-.78H7.847A1.241,1.241,0,0,1,9,6.935l.515,1.288H2.9l.515-1.288ZM2.068,11.114a.825.825,0,1,1,0-1.65A1.592,1.592,0,0,1,3.309,10.7C3.309,11.2,2.565,11.114,2.068,11.114Zm8.273,0c-.5,0-1.241.082-1.241-.412a1.592,1.592,0,0,1,1.241-1.237.825.825,0,1,1,0,1.65Z" transform="translate(0 -4.5)" fill="#7477d4"/>
</svg>
