<svg xmlns="http://www.w3.org/2000/svg" width="68.747" height="54.998" viewBox="0 0 68.747 54.998">
  <path id="Icon_awesome-car-alt" data-name="Icon awesome-car-alt" d="M62.826,25.744l-1.61-4.025-2.854-7.137A15.963,15.963,0,0,0,43.468,4.5H25.279A15.964,15.964,0,0,0,10.385,14.583L7.531,21.72l-1.61,4.025A9.147,9.147,0,0,0,0,34.29v6.875A9.092,9.092,0,0,0,2.292,47.17v7.744A4.584,4.584,0,0,0,6.875,59.5h4.583a4.584,4.584,0,0,0,4.583-4.583V50.331H52.706v4.583A4.584,4.584,0,0,0,57.289,59.5h4.583a4.584,4.584,0,0,0,4.583-4.583V47.17a9.086,9.086,0,0,0,2.292-6.005V34.29A9.147,9.147,0,0,0,62.826,25.744ZM18.9,17.987a6.875,6.875,0,0,1,6.383-4.321H43.468a6.875,6.875,0,0,1,6.383,4.321l2.854,7.137H16.041L18.9,17.987ZM11.458,41.136a4.323,4.323,0,0,1-4.583-4.569A4.323,4.323,0,0,1,11.458,32c2.75,0,6.875,4.112,6.875,6.853S14.208,41.136,11.458,41.136Zm45.831,0c-2.75,0-6.875.457-6.875-2.284S54.539,32,57.289,32a4.323,4.323,0,0,1,4.583,4.569,4.323,4.323,0,0,1-4.583,4.569Z" transform="translate(0 -4.5)" fill="#fff"/>
</svg>
