<svg xmlns="http://www.w3.org/2000/svg" width="31.933" height="28.385" viewBox="0 0 31.933 28.385">
  <path id="Icon_awesome-shopping-cart" data-name="Icon awesome-shopping-cart" d="M29.278,16.7,31.9,5.174a1.331,1.331,0,0,0-1.3-1.625H8.826L8.318,1.064A1.331,1.331,0,0,0,7.015,0H1.331A1.331,1.331,0,0,0,0,1.331v.887A1.331,1.331,0,0,0,1.331,3.548H5.2L9.1,22.588a3.1,3.1,0,1,0,3.717.475H24.439a3.1,3.1,0,1,0,3.526-.577l.306-1.346a1.331,1.331,0,0,0-1.3-1.625H12.092l-.363-1.774H27.981A1.33,1.33,0,0,0,29.278,16.7Z" fill="#a1a3ef"/>
</svg>
