<svg xmlns="http://www.w3.org/2000/svg" width="33.838" height="27.07" viewBox="0 0 33.838 27.07">
  <path id="Icon_awesome-city" data-name="Icon awesome-city" d="M32.569,10.151H25.378V1.269A1.269,1.269,0,0,0,24.109,0H16.5a1.269,1.269,0,0,0-1.269,1.269V5.076H11.843V.846A.846.846,0,0,0,11,0h-.846a.846.846,0,0,0-.846.846v4.23H5.922V.846A.846.846,0,0,0,5.076,0H4.23a.846.846,0,0,0-.846.846v4.23H1.269A1.269,1.269,0,0,0,0,6.345V25.378A1.692,1.692,0,0,0,1.692,27.07H32.146a1.692,1.692,0,0,0,1.692-1.692V11.42A1.269,1.269,0,0,0,32.569,10.151ZM6.768,21.36a.634.634,0,0,1-.634.634H4.018a.634.634,0,0,1-.634-.634V19.245a.634.634,0,0,1,.634-.634H6.133a.634.634,0,0,1,.634.634Zm0-5.076a.634.634,0,0,1-.634.634H4.018a.634.634,0,0,1-.634-.634V14.17a.634.634,0,0,1,.634-.634H6.133a.634.634,0,0,1,.634.634Zm0-5.076a.634.634,0,0,1-.634.634H4.018a.634.634,0,0,1-.634-.634V9.094a.634.634,0,0,1,.634-.634H6.133a.634.634,0,0,1,.634.634ZM13.535,21.36a.634.634,0,0,1-.634.634H10.786a.634.634,0,0,1-.634-.634V19.245a.634.634,0,0,1,.634-.634H12.9a.634.634,0,0,1,.634.634Zm0-5.076a.634.634,0,0,1-.634.634H10.786a.634.634,0,0,1-.634-.634V14.17a.634.634,0,0,1,.634-.634H12.9a.634.634,0,0,1,.634.634Zm0-5.076a.634.634,0,0,1-.634.634H10.786a.634.634,0,0,1-.634-.634V9.094a.634.634,0,0,1,.634-.634H12.9a.634.634,0,0,1,.634.634Zm8.459,5.076a.634.634,0,0,1-.634.634H19.245a.634.634,0,0,1-.634-.634V14.17a.634.634,0,0,1,.634-.634H21.36a.634.634,0,0,1,.634.634Zm0-5.076a.634.634,0,0,1-.634.634H19.245a.634.634,0,0,1-.634-.634V9.094a.634.634,0,0,1,.634-.634H21.36a.634.634,0,0,1,.634.634Zm0-5.076a.634.634,0,0,1-.634.634H19.245a.634.634,0,0,1-.634-.634V4.018a.634.634,0,0,1,.634-.634H21.36a.634.634,0,0,1,.634.634ZM30.454,21.36a.634.634,0,0,1-.634.634H27.7a.634.634,0,0,1-.634-.634V19.245a.634.634,0,0,1,.634-.634H29.82a.634.634,0,0,1,.634.634Zm0-5.076a.634.634,0,0,1-.634.634H27.7a.634.634,0,0,1-.634-.634V14.17a.634.634,0,0,1,.634-.634H29.82a.634.634,0,0,1,.634.634Z" fill="#a1a3ef"/>
</svg>
