<svg xmlns="http://www.w3.org/2000/svg" width="39.543" height="31.635" viewBox="0 0 39.543 31.635">
  <path id="Icon_awesome-city" data-name="Icon awesome-city" d="M38.06,11.863h-8.4V1.483A1.482,1.482,0,0,0,28.175,0h-8.9a1.482,1.482,0,0,0-1.483,1.483V5.931H13.84V.989A.988.988,0,0,0,12.852,0h-.989a.988.988,0,0,0-.989.989V5.931H6.92V.989A.988.988,0,0,0,5.931,0H4.943a.988.988,0,0,0-.989.989V5.931H1.483A1.482,1.482,0,0,0,0,7.414V29.657a1.977,1.977,0,0,0,1.977,1.977H37.566a1.977,1.977,0,0,0,1.977-1.977V13.346A1.483,1.483,0,0,0,38.06,11.863ZM7.909,24.962a.741.741,0,0,1-.741.741H4.7a.741.741,0,0,1-.741-.741V22.49a.741.741,0,0,1,.741-.741H7.167a.741.741,0,0,1,.741.741Zm0-5.931a.741.741,0,0,1-.741.741H4.7a.741.741,0,0,1-.741-.741V16.559a.741.741,0,0,1,.741-.741H7.167a.741.741,0,0,1,.741.741Zm0-5.931a.741.741,0,0,1-.741.741H4.7a.741.741,0,0,1-.741-.741V10.627A.741.741,0,0,1,4.7,9.886H7.167a.741.741,0,0,1,.741.741Zm7.909,11.863a.741.741,0,0,1-.741.741H12.6a.741.741,0,0,1-.741-.741V22.49a.741.741,0,0,1,.741-.741h2.471a.741.741,0,0,1,.741.741Zm0-5.931a.741.741,0,0,1-.741.741H12.6a.741.741,0,0,1-.741-.741V16.559a.741.741,0,0,1,.741-.741h2.471a.741.741,0,0,1,.741.741Zm0-5.931a.741.741,0,0,1-.741.741H12.6a.741.741,0,0,1-.741-.741V10.627a.741.741,0,0,1,.741-.741h2.471a.741.741,0,0,1,.741.741ZM25.7,19.03a.741.741,0,0,1-.741.741H22.49a.741.741,0,0,1-.741-.741V16.559a.741.741,0,0,1,.741-.741h2.471a.741.741,0,0,1,.741.741Zm0-5.931a.741.741,0,0,1-.741.741H22.49a.741.741,0,0,1-.741-.741V10.627a.741.741,0,0,1,.741-.741h2.471a.741.741,0,0,1,.741.741Zm0-5.931a.741.741,0,0,1-.741.741H22.49a.741.741,0,0,1-.741-.741V4.7a.741.741,0,0,1,.741-.741h2.471A.741.741,0,0,1,25.7,4.7Zm9.886,17.794a.741.741,0,0,1-.741.741H32.376a.741.741,0,0,1-.741-.741V22.49a.741.741,0,0,1,.741-.741h2.471a.741.741,0,0,1,.741.741Zm0-5.931a.741.741,0,0,1-.741.741H32.376a.741.741,0,0,1-.741-.741V16.559a.741.741,0,0,1,.741-.741h2.471a.741.741,0,0,1,.741.741Z" fill="#a1a3ef"/>
</svg>
