<svg xmlns="http://www.w3.org/2000/svg" width="68.522" height="68.522" viewBox="0 0 68.522 68.522">
  <path id="Icon_ionic-md-timer" data-name="Icon ionic-md-timer" d="M33.831,56.677a3.8,3.8,0,1,0,3.8-3.8A3.817,3.817,0,0,0,33.831,56.677Zm0-53.3v15.22h7.61V11.3A26.633,26.633,0,1,1,10.985,37.636,26.365,26.365,0,0,1,17,20.8L37.636,41.441l5.37-5.37L17.112,10.194v.082a34.187,34.187,0,1,0,20.524-6.9ZM60.482,37.636a3.8,3.8,0,1,0-3.8,3.8A3.817,3.817,0,0,0,60.482,37.636Zm-45.692,0a3.8,3.8,0,1,0,3.8-3.8A3.817,3.817,0,0,0,14.79,37.636Z" transform="translate(-3.375 -3.375)" fill="#fff"/>
</svg>
