<svg xmlns="http://www.w3.org/2000/svg" width="21.498" height="21.498" viewBox="0 0 21.498 21.498">
  <path id="Icon_metro-cancel" data-name="Icon metro-cancel" d="M13.32,1.928A10.749,10.749,0,1,0,24.069,12.677,10.749,10.749,0,0,0,13.32,1.928Zm0,19.483a8.734,8.734,0,1,1,8.734-8.734A8.734,8.734,0,0,1,13.32,21.411ZM16.679,7.3,13.32,10.662,9.961,7.3,7.945,9.318,11.3,12.677,7.945,16.036l2.015,2.015,3.359-3.359,3.359,3.359,2.015-2.015-3.359-3.359,3.359-3.359Z" transform="translate(-2.57 -1.928)" fill="#a1a3ef"/>
</svg>
