<svg xmlns="http://www.w3.org/2000/svg" width="15.384" height="15.384" viewBox="0 0 15.384 15.384">
  <path id="Icon_metro-cross" data-name="Icon metro-cross" d="M17.814,14.287h0L13.147,9.62l4.667-4.667h0a.482.482,0,0,0,0-.68l-2.2-2.2a.482.482,0,0,0-.68,0h0L10.263,6.735,5.6,2.069h0a.482.482,0,0,0-.68,0l-2.2,2.2a.482.482,0,0,0,0,.68h0L7.378,9.62,2.711,14.287h0a.482.482,0,0,0,0,.68l2.2,2.2a.482.482,0,0,0,.68,0h0L10.263,12.5l4.667,4.667h0a.482.482,0,0,0,.68,0l2.2-2.2a.482.482,0,0,0,0-.68Z" transform="translate(-2.571 -1.928)" fill="#fff"/>
</svg>
