<svg xmlns="http://www.w3.org/2000/svg" width="24.837" height="28.385" viewBox="0 0 24.837 28.385">
  <path id="Icon_awesome-calendar-day" data-name="Icon awesome-calendar-day" d="M0,25.724a2.662,2.662,0,0,0,2.661,2.661H22.176a2.662,2.662,0,0,0,2.661-2.661V10.644H0ZM3.548,15.079a.89.89,0,0,1,.887-.887H9.757a.89.89,0,0,1,.887.887V20.4a.89.89,0,0,1-.887.887H4.435a.89.89,0,0,1-.887-.887ZM22.176,3.548H19.515V.887A.89.89,0,0,0,18.628,0H16.853a.89.89,0,0,0-.887.887V3.548H8.87V.887A.89.89,0,0,0,7.983,0H6.209a.89.89,0,0,0-.887.887V3.548H2.661A2.662,2.662,0,0,0,0,6.209V8.87H24.837V6.209A2.662,2.662,0,0,0,22.176,3.548Z" fill="#a1a3ef"/>
</svg>
