<svg xmlns="http://www.w3.org/2000/svg" width="32.065" height="62.363" viewBox="0 0 32.065 62.363">
  <path id="_1261785a6f19e5f65a84b5769489c2a5" data-name="1261785a6f19e5f65a84b5769489c2a5" d="M30.431,46.751a5.9,5.9,0,0,0-1.509-4.258,13.193,13.193,0,0,0-5.048-2.951,62.558,62.558,0,0,1-6.166-2.658,20.758,20.758,0,0,1-4.46-3.049,12.759,12.759,0,0,1-2.884-4.065,13.745,13.745,0,0,1-1.019-5.542,12.3,12.3,0,0,1,3.543-9.085A14.948,14.948,0,0,1,22.3,11.015v-4.4a2.623,2.623,0,1,1,5.246,0V11.11a13.675,13.675,0,0,1,9.085,4.851,14.209,14.209,0,0,1,2.923,6.466,3.444,3.444,0,0,1-3.595,3.93h-1.58c-2.18,0-3.792-1.833-4.5-3.895a6.059,6.059,0,0,0-1.082-1.975,5.306,5.306,0,0,0-4.329-1.967A5.491,5.491,0,0,0,20.3,20.061a5.734,5.734,0,0,0-1.477,4.195,5.55,5.55,0,0,0,1.442,4,15.872,15.872,0,0,0,5.344,3.081,56.684,56.684,0,0,1,6.462,2.986,17.98,17.98,0,0,1,4.262,3.148,11.955,11.955,0,0,1,2.654,4,13.645,13.645,0,0,1,.916,5.214,12.23,12.23,0,0,1-3.476,9.05,15.22,15.22,0,0,1-9.571,4.1v3.918a2.607,2.607,0,1,1-5.214,0V59.866q-6.719-.723-10.428-4.752A14.056,14.056,0,0,1,7.9,48.252a3.445,3.445,0,0,1,3.595-3.93h1.58c2.18,0,3.8,1.837,4.554,3.887a6.7,6.7,0,0,0,1.228,2.117A6.851,6.851,0,0,0,24.2,52.388a6.562,6.562,0,0,0,4.558-1.5,5.352,5.352,0,0,0,1.675-4.132Z" transform="translate(-7.838 -3.996)" fill="#fff"/>
</svg>
