<svg xmlns="http://www.w3.org/2000/svg" width="25.759" height="25.759" viewBox="0 0 25.759 25.759">
  <path id="Icon_awesome-download" data-name="Icon awesome-download" d="M10.867,0h4.025A1.2,1.2,0,0,1,16.1,1.207V9.66h4.412a1,1,0,0,1,.709,1.716l-7.652,7.657a.975.975,0,0,1-1.373,0L4.533,11.375A1,1,0,0,1,5.242,9.66H9.66V1.207A1.2,1.2,0,0,1,10.867,0ZM25.759,18.917v5.635a1.2,1.2,0,0,1-1.207,1.207H1.207A1.2,1.2,0,0,1,0,24.551V18.917a1.2,1.2,0,0,1,1.207-1.207H8.588l2.465,2.465a2.578,2.578,0,0,0,3.653,0l2.465-2.465h7.381A1.2,1.2,0,0,1,25.759,18.917ZM19.52,23.344a1.006,1.006,0,1,0-1.006,1.006A1.009,1.009,0,0,0,19.52,23.344Zm3.22,0a1.006,1.006,0,1,0-1.006,1.006A1.009,1.009,0,0,0,22.74,23.344Z" fill="#fff"/>
</svg>
