<svg xmlns="http://www.w3.org/2000/svg" width="23.195" height="20.614" viewBox="0 0 23.195 20.614">
  <path id="Icon_awesome-edit" data-name="Icon awesome-edit" d="M16.213,3.353l3.632,3.632a.394.394,0,0,1,0,.556L11.05,16.336l-3.737.415a.783.783,0,0,1-.866-.866l.415-3.737,8.795-8.795A.394.394,0,0,1,16.213,3.353Zm6.524-.922L20.771.466a1.575,1.575,0,0,0-2.223,0L17.123,1.892a.394.394,0,0,0,0,.556L20.755,6.08a.394.394,0,0,0,.556,0l1.426-1.426a1.575,1.575,0,0,0,0-2.223ZM15.464,13.944v4.1H2.577V5.158h9.254a.5.5,0,0,0,.342-.141l1.611-1.611a.483.483,0,0,0-.342-.826H1.933A1.933,1.933,0,0,0,0,4.513V18.688a1.933,1.933,0,0,0,1.933,1.933H16.108a1.933,1.933,0,0,0,1.933-1.933V12.334a.484.484,0,0,0-.826-.342L15.6,13.6A.5.5,0,0,0,15.464,13.944Z" transform="translate(0 -0.007)" fill="#b1b3f1"/>
</svg>
