<svg xmlns="http://www.w3.org/2000/svg" width="327.814" height="59.932" viewBox="0 0 327.814 59.932">
  <g id="Group_41565" data-name="Group 41565" transform="translate(-47.424 -8358.483)">
    <path id="Path_79485" data-name="Path 79485" d="M129.944,404.743h12.832l-7.4-12.131c4.2-1.5,6.7-.586,8.865,3.115,5.636,9.652,11.679,19.066,18.056,29.379,3.576-5.622,6.742-10.615,9.923-15.6,2.785-4.362,2.792-4.357,9.116-2.905l-19.043,30.131c-4.585-7.6-8.882-14.357-12.776-21.339-1.841-3.3-4.018-4.643-8.336-3.208,1.538,2.753,3.011,5.431,4.522,8.086,3.752,6.59,7.372,13.26,11.327,19.726,3.705,6.058,5.889,6.25,9.673.454,6.642-10.174,12.966-20.563,19.2-31,2.761-4.623-.081-9.234-5.667-9.527-7.572-.4-15.155-.6-22.732-.906-5.376-.215-5.592-.406-7.333-5.558,10.595,0,21.477-.587,32.263.185,8.633.619,12.754,11.11,8.074,19.208-5.454,9.437-11.142,18.739-16.805,28.053-1.693,2.784-3.213,5.89-5.566,8.012-5.236,4.722-10.479,3.616-14.052-2.455q-6.7-11.383-13.314-22.814C137.3,417.668,133.89,411.645,129.944,404.743Z" transform="translate(-82.52 7966.559)" fill="#fff"/>
    <g id="Group_40424" data-name="Group 40424" transform="translate(116.033 8362.971)">
      <path id="Path_79381" data-name="Path 79381" d="M478.2,436.775l-1.791-20.18a4.442,4.442,0,0,0-.651-2.049h8.249a5.807,5.807,0,0,0-.38,1.216,9.289,9.289,0,0,0-.027,2.883l1.194,13.407,6.675-13.407a11.414,11.414,0,0,0,1.113-2.883,8.681,8.681,0,0,0,.108-1.216h4.477a15.789,15.789,0,0,0-2.524,4.029l-9.036,18.2Z" transform="translate(-475.757 -414.546)" fill="#fff"/>
      <path id="Path_79382" data-name="Path 79382" d="M572.119,454.242l-.3,1.528c-.217,1.181.109,1.667,1.14,1.667h6.159a5.568,5.568,0,0,0,3.039-.694l-1.248,3.89H568.157c-2.876,0-3.392-1.528-2.74-4.932l1.275-6.46c.651-3.4,1.764-4.932,4.64-4.932h9.741c2.876,0,3.392,1.528,2.74,4.932l-.977,5Zm5.1-3.2.434-2.223c.19-.938.027-1.32-.678-1.32h-2.632a2.006,2.006,0,0,0-1.167,1.32l-.434,2.223Z" transform="translate(-547.427 -438.403)" fill="#fff"/>
      <path id="Path_79383" data-name="Path 79383" d="M667.324,414.546l-1.465,7.5h.054c.95-1.32,1.14-1.6,1.845-1.6h4.993c3.012,0,3.826,2.292,3.12,5.939l-1.3,6.634a6.864,6.864,0,0,0-.027,3.751h-7.814a8.418,8.418,0,0,0,1.438-3.751L669.738,425c.19-1.007-.027-1.354-.814-1.354h-2.333c-.787,0-1.112.347-1.3,1.354l-1.574,8.024a6.864,6.864,0,0,0-.027,3.751h-7.814a8.424,8.424,0,0,0,1.438-3.751l2.876-14.727a6.864,6.864,0,0,0,.027-3.751Z" transform="translate(-620.138 -414.546)" fill="#fff"/>
      <path id="Path_79384" data-name="Path 79384" d="M759.814,424.2a6.86,6.86,0,0,0,.027-3.751h7.109l-2.442,12.574a6.863,6.863,0,0,0-.027,3.751h-7.815a8.423,8.423,0,0,0,1.438-3.751Zm8.249-9.656-.841,4.307h-6.295l.841-4.307Z" transform="translate(-700.935 -414.546)" fill="#fff"/>
      <path id="Path_79385" data-name="Path 79385" d="M815.36,455.77c-.217,1.181.108,1.667,1.14,1.667h3.12a5.954,5.954,0,0,0,3.555-.8l-1.248,3.994h-9.9c-2.93,0-3.609-2.084-3.039-5.071l1.221-6.182c.57-2.987,2.062-5.071,4.992-5.071h9.958l-.217,4.064c-.38-.591-1.3-.868-2.849-.868h-3.663c-1.031,0-1.519.486-1.791,1.667Z" transform="translate(-742.724 -438.403)" fill="#fff"/>
      <path id="Path_79386" data-name="Path 79386" d="M890.219,418.3a6.86,6.86,0,0,0,.027-3.751h7.109l-3.609,18.478a6.867,6.867,0,0,0-.027,3.751h-7.814a8.423,8.423,0,0,0,1.438-3.751Z" transform="translate(-804.532 -414.546)" fill="#fff"/>
      <path id="Path_79387" data-name="Path 79387" d="M944.519,454.242l-.3,1.528c-.217,1.181.109,1.667,1.14,1.667h6.159a5.568,5.568,0,0,0,3.039-.694l-1.248,3.89H940.557c-2.876,0-3.392-1.528-2.74-4.932l1.275-6.46c.651-3.4,1.764-4.932,4.64-4.932h9.741c2.876,0,3.392,1.528,2.74,4.932l-.977,5Zm5.1-3.2.434-2.223c.19-.938.027-1.32-.678-1.32h-2.632c-.705,0-.977.382-1.167,1.32l-.434,2.223Z" transform="translate(-845.944 -438.403)" fill="#fff"/>
      <path id="Path_79388" data-name="Path 79388" d="M1098.571,433.094a5.918,5.918,0,0,0,3.012-.729l-1.438,4.411h-14.978a11,11,0,0,0,1.275-3.821l2.849-14.588a9.815,9.815,0,0,0,.217-3.821h7.706a10.338,10.338,0,0,0-1.3,3.821l-2.876,14.727Z" transform="translate(-964.261 -414.546)" fill="#fff"/>
      <path id="Path_79389" data-name="Path 79389" d="M1177.561,454.242l-.3,1.528c-.217,1.181.109,1.667,1.14,1.667h6.159a5.568,5.568,0,0,0,3.039-.694l-1.248,3.89H1173.6c-2.876,0-3.392-1.528-2.741-4.932l1.275-6.46c.651-3.4,1.764-4.932,4.64-4.932h9.741c2.876,0,3.391,1.528,2.74,4.932l-.977,5Zm5.1-3.2.434-2.223c.19-.938.027-1.32-.678-1.32h-2.632c-.706,0-.977.382-1.167,1.32l-.434,2.223Z" transform="translate(-1032.751 -438.403)" fill="#fff"/>
      <path id="Path_79390" data-name="Path 79390" d="M1282.09,444.308c3.066,0,3.962,1.667,3.094,6.148l-1.384,7.12a5.179,5.179,0,0,0,.027,3.057h-6.4l.027-1.806h-.054c-.624,1.459-1.221,1.806-2.958,1.806h-4.558c-2.876,0-3.392-1.528-2.741-4.932l.244-1.181c.651-3.4,1.764-4.932,4.64-4.932h5.834c.9,0,1.14-.278,1.3-1.042.136-.729,0-1.042-.9-1.042h-6.377a4.738,4.738,0,0,0-2.686.695l1.221-3.89Zm-6.62,8.475c-.977.035-1.384.208-1.628,1.389l-.353,1.876c-.244,1.181.109,1.354,1.085,1.389h1.492c1.221,0,1.411-.243,1.818-2.327l.434-2.327Z" transform="translate(-1109.93 -438.403)" fill="#fff"/>
      <path id="Path_79391" data-name="Path 79391" d="M1368.68,444.308l-.3,2.64h.054c1-1.945,1.818-2.64,3.8-2.64h3.12l-1.031,5.349c-.678-.59-.9-.8-2.794-.8-2.523,0-3.121.556-3.554,2.779l-1.031,5.245a6.865,6.865,0,0,0-.027,3.751H1359.1a8.423,8.423,0,0,0,1.438-3.751l1.709-8.822a6.858,6.858,0,0,0,.027-3.751Z" transform="translate(-1183.848 -438.403)" fill="#fff"/>
      <path id="Path_79392" data-name="Path 79392" d="M1438.373,444.308l-.136,1.7h.054c.461-.834,1.031-1.7,1.981-1.7h5.182c3.012,0,3.826,2.292,3.12,5.939l-1.3,6.634a6.865,6.865,0,0,0-.027,3.751h-7.815a8.42,8.42,0,0,0,1.438-3.751l1.574-8.024c.19-1.007-.027-1.354-.814-1.354H1439.3c-.787,0-1.113.347-1.3,1.354l-1.573,8.024a6.866,6.866,0,0,0-.027,3.751h-7.814a8.419,8.419,0,0,0,1.438-3.751l1.71-8.822a6.86,6.86,0,0,0,.027-3.751Z" transform="translate(-1239.54 -438.403)" fill="#fff"/>
      <path id="Path_79393" data-name="Path 79393" d="M1532.517,424.2a6.863,6.863,0,0,0,.027-3.751h7.109l-2.442,12.574a6.864,6.864,0,0,0-.027,3.751h-7.815a8.421,8.421,0,0,0,1.438-3.751Zm8.249-9.656-.841,4.307h-6.3l.841-4.307Z" transform="translate(-1320.334 -414.546)" fill="#fff"/>
      <path id="Path_79394" data-name="Path 79394" d="M1585.254,444.308l-.136,1.7h.054c.461-.834,1.031-1.7,1.981-1.7h5.183c3.012,0,3.826,2.292,3.12,5.939l-1.3,6.634a6.863,6.863,0,0,0-.027,3.751h-7.814a8.423,8.423,0,0,0,1.438-3.751l1.574-8.024c.19-1.007-.027-1.354-.814-1.354h-2.333c-.787,0-1.112.347-1.3,1.354l-1.573,8.024a6.866,6.866,0,0,0-.028,3.751h-7.814a8.417,8.417,0,0,0,1.438-3.751l1.709-8.822a6.86,6.86,0,0,0,.027-3.751Z" transform="translate(-1357.28 -438.403)" fill="#fff"/>
      <path id="Path_79395" data-name="Path 79395" d="M1686.884,459h-.054a2.215,2.215,0,0,1-1.981,1.632h-5.02c-2.93,0-3.609-2.084-3.039-5.071l1.221-6.182c.57-2.987,2.063-5.071,4.993-5.071h5.047c1.248,0,1.655.486,1.682,1.737h.054l.651-1.737h6.4a11.633,11.633,0,0,0-1.546,4.342l-2.333,11.983c-.9,4.62-2.442,6.182-5.481,6.182h-11.776l.353-4.1a4.464,4.464,0,0,0,2.795.9h5.508c1.384,0,1.71-.452,2.089-2.431Zm1.98-10.177c.19-.938.027-1.32-.678-1.32h-2.5c-.706,0-.977.382-1.167,1.32l-1.438,7.294c-.163.938-.027,1.32.678,1.32h2.5c.705,0,1-.382,1.167-1.32Z" transform="translate(-1437.637 -438.403)" fill="#fff"/>
    </g>
    <g id="Group_40425" data-name="Group 40425" transform="translate(119.777 8397.223)">
      <path id="Path_79396" data-name="Path 79396" d="M499.432,587.188v19.154h-4.807V587.188Z" transform="translate(-494.625 -587.188)" fill="#a1a3ef"/>
      <path id="Path_79397" data-name="Path 79397" d="M594.766,624.695a1.223,1.223,0,0,0-.314-.931,1.585,1.585,0,0,0-1.085-.292h-4.293q-1.471,0-1.471,1.17v7.981h-4.3V619.906h4.3v1.57a2.812,2.812,0,0,1,1.154-1.144,3.563,3.563,0,0,1,1.755-.426h5.336a3.4,3.4,0,0,1,2.235.8,2.49,2.49,0,0,1,.962,2v9.923h-4.278Z" transform="translate(-565.708 -613.415)" fill="#a1a3ef"/>
      <path id="Path_79398" data-name="Path 79398" d="M740.016,624.695a1.223,1.223,0,0,0-.314-.931,1.585,1.585,0,0,0-1.085-.292h-4.293q-1.472,0-1.471,1.17v7.981h-4.3V619.906h4.3v1.57a2.811,2.811,0,0,1,1.154-1.144,3.562,3.562,0,0,1,1.754-.426H741.1a3.4,3.4,0,0,1,2.235.8,2.49,2.49,0,0,1,.961,2v9.923h-4.278Z" transform="translate(-682.14 -613.415)" fill="#a1a3ef"/>
      <path id="Path_79399" data-name="Path 79399" d="M888.593,631.824a3.38,3.38,0,0,1-2.247.8H877a3.277,3.277,0,0,1-2.283-.825,2.563,2.563,0,0,1-.913-1.969v-7.1a2.621,2.621,0,0,1,.925-1.955,3.114,3.114,0,0,1,2.2-.864h9.4a3.315,3.315,0,0,1,2.307.825,2.649,2.649,0,0,1,.913,2.048v7.05A2.5,2.5,0,0,1,888.593,631.824Zm-3.677-8.034a1.558,1.558,0,0,0-1.046-.319h-4.278a1.717,1.717,0,0,0-1.141.306,1.088,1.088,0,0,0-.349.864v3.219a1.062,1.062,0,0,0,.349.918,1.982,1.982,0,0,0,1.141.253h4.278a1.582,1.582,0,0,0,1.082-.306,1.11,1.11,0,0,0,.336-.865v-3.219A1.066,1.066,0,0,0,884.916,623.79Z" transform="translate(-798.572 -613.415)" fill="#a1a3ef"/>
      <path id="Path_79400" data-name="Path 79400" d="M1023.837,619.906l3.966,9.125,3.942-9.125h4.35l-5.768,12.716h-5l-5.792-12.716Z" transform="translate(-915.394 -613.415)" fill="#a1a3ef"/>
      <path id="Path_79401" data-name="Path 79401" d="M1177.488,632.237a3.01,3.01,0,0,1-1.52.386h-5.817a3.156,3.156,0,0,1-2.256-.763,2.684,2.684,0,0,1-.809-2.05v-1.876a2.654,2.654,0,0,1,.868-2.1,3.422,3.422,0,0,1,2.342-.764h6.3a2.814,2.814,0,0,1,1.158.2,2.241,2.241,0,0,1,.845.785V623.87a1.134,1.134,0,0,0-.312-.9,1.257,1.257,0,0,0-.841-.266h-4.422a4.176,4.176,0,0,0-1.262.133.6.6,0,0,0-.372.639h-3.75V622.7a2.364,2.364,0,0,1,1.178-1.982,4.633,4.633,0,0,1,2.692-.811h8.22a3.3,3.3,0,0,1,2.211.8,2.514,2.514,0,0,1,.937,2v9.923H1178.6v-1.41A3.3,3.3,0,0,1,1177.488,632.237Zm-4.963-4.8a1.062,1.062,0,0,0-.823.346,1.255,1.255,0,0,0-.314.878,1.2,1.2,0,0,0,.3.838,1.014,1.014,0,0,0,.786.332h4.283a2.279,2.279,0,0,0,1.379-.346,1.011,1.011,0,0,0,.46-.825,1.043,1.043,0,0,0-.556-.851,2.255,2.255,0,0,0-1.282-.372Z" transform="translate(-1033.671 -613.415)" fill="#a1a3ef"/>
      <path id="Path_79402" data-name="Path 79402" d="M1318.319,603.814v3.193h7.042v3.565h-7.042v4.389a1.088,1.088,0,0,0,.336.9,2.64,2.64,0,0,0,1.466.266,2.6,2.6,0,0,0,1.478-.279,1.075,1.075,0,0,0,.348-.891v-.771h4.278v.771a4.9,4.9,0,0,1-1.19,3.5,4.049,4.049,0,0,1-3.089,1.264h-3.629a4.055,4.055,0,0,1-3.173-1.25,5.053,5.053,0,0,1-1.13-3.512v-4.389h-1.8v-3.565h1.8v-3.193Z" transform="translate(-1150.005 -600.516)" fill="#a1a3ef"/>
      <path id="Path_79403" data-name="Path 79403" d="M1453.407,587.592v4.176h-4.3v-4.176Zm0,6.411v12.716h-4.3V594Z" transform="translate(-1259.738 -587.512)" fill="#a1a3ef"/>
      <path id="Path_79404" data-name="Path 79404" d="M1551.846,631.824a3.381,3.381,0,0,1-2.247.8h-9.349a3.276,3.276,0,0,1-2.283-.825,2.563,2.563,0,0,1-.914-1.969v-7.1a2.62,2.62,0,0,1,.925-1.955,3.113,3.113,0,0,1,2.2-.864h9.4a3.314,3.314,0,0,1,2.307.825,2.648,2.648,0,0,1,.913,2.048v7.05A2.5,2.5,0,0,1,1551.846,631.824Zm-3.677-8.034a1.557,1.557,0,0,0-1.045-.319h-4.278a1.717,1.717,0,0,0-1.141.306,1.089,1.089,0,0,0-.348.864v3.219a1.063,1.063,0,0,0,.348.918,1.982,1.982,0,0,0,1.141.253h4.278a1.583,1.583,0,0,0,1.082-.306,1.109,1.109,0,0,0,.336-.865v-3.219A1.066,1.066,0,0,0,1548.169,623.79Z" transform="translate(-1330.237 -613.415)" fill="#a1a3ef"/>
      <path id="Path_79405" data-name="Path 79405" d="M1694.252,624.695a1.223,1.223,0,0,0-.314-.931,1.584,1.584,0,0,0-1.085-.292h-4.293q-1.471,0-1.471,1.17v7.981h-4.3V619.906h4.3v1.57a2.816,2.816,0,0,1,1.154-1.144,3.564,3.564,0,0,1,1.755-.426h5.336a3.4,3.4,0,0,1,2.235.8,2.49,2.49,0,0,1,.961,2v9.923h-4.278Z" transform="translate(-1447.058 -613.415)" fill="#a1a3ef"/>
    </g>
  </g>
</svg>
