<svg xmlns="http://www.w3.org/2000/svg" width="12.715" height="12.689" viewBox="0 0 12.715 12.689">
  <path id="Icon_awesome-wpforms" data-name="Icon awesome-wpforms" d="M12.715,3.473V13.716a1.211,1.211,0,0,1-1.226,1.223H1.226A1.215,1.215,0,0,1,0,13.713V3.473A1.211,1.211,0,0,1,1.226,2.25H11.492A1.21,1.21,0,0,1,12.715,3.473Zm-1.059,10.24V3.473a.168.168,0,0,0-.165-.164h-.264L8.1,5.422,6.357,4.009,4.62,5.422,1.49,3.306H1.226a.168.168,0,0,0-.165.164V13.713a.168.168,0,0,0,.165.164H11.492a.165.165,0,0,0,.165-.164Zm-7.393-7.1V7.659H2.177V6.611Zm0,2.107V9.774H2.177V8.718Zm.315-4.171L6.111,3.309H2.747Zm5.96,2.064V7.659H4.975V6.611Zm0,2.107V9.774H4.975V8.718Zm-2.4-4.171L9.968,3.309H6.607l1.53,1.237Zm2.4,6.284v1.056H7.717V10.83h2.821Z" transform="translate(0 -2.25)" fill="#a1a3ef"/>
</svg>
