<svg xmlns="http://www.w3.org/2000/svg" xmlns:xlink="http://www.w3.org/1999/xlink" width="243.36" height="243.36" viewBox="0 0 243.36 243.36">
  <defs>
    <filter id="Path_93138" x="0" y="0" width="243.36" height="243.36" filterUnits="userSpaceOnUse">
      <feOffset dy="15" input="SourceAlpha"/>
      <feGaussianBlur stdDeviation="10" result="blur"/>
      <feFlood flood-color="#151d41" flood-opacity="0.059"/>
      <feComposite operator="in" in2="blur"/>
      <feComposite in="SourceGraphic"/>
    </filter>
  </defs>
  <g id="Group_44919" data-name="Group 44919" transform="translate(-162.32 -3564.57)">
    <g id="Group_44915" data-name="Group 44915" transform="translate(-14382.248 23873)">
      <g transform="matrix(1, 0, 0, 1, 14544.57, -20308.43)" filter="url(#Path_93138)">
        <path id="Path_93138-2" data-name="Path 93138" d="M91.68,0A91.68,91.68,0,1,1,0,91.68,91.68,91.68,0,0,1,91.68,0Z" transform="translate(30 15)" fill="#cacbf6"/>
      </g>
      <g id="Subtraction_7" data-name="Subtraction 7" transform="translate(14594.678 -20272.172)" fill="#fff">
        <path d="M 69.44337463378906 135.0998992919922 C 62.10547256469727 135.0998992919922 54.91314697265625 133.8795776367188 48.06622314453125 131.4727935791016 C 41.44942092895508 129.1469268798828 35.28724670410156 125.7644500732422 29.75082206726074 121.4193267822266 C 24.26637268066406 117.1149520874023 19.54859733581543 111.9874725341797 15.72854709625244 106.1793518066406 C 13.67482376098633 103.0567474365234 11.91060924530029 99.78170776367188 10.447585105896 96.38065338134766 L 69.44337463378906 96.38065338134766 L 76.94337463378906 96.38065338134766 L 76.94337463378906 88.88065338134766 L 76.94337463378906 7.931775569915771 C 78.77346801757812 8.143372535705566 80.59011840820312 8.432320594787598 82.38409423828125 8.797699928283691 C 86.50039672851562 9.636024475097656 90.5491943359375 10.88689994812012 94.41809844970703 12.51557445526123 C 98.2177734375 14.11514949798584 101.8829498291016 16.09519958496094 105.3117980957031 18.40074920654297 C 108.7093200683594 20.68527412414551 111.9043502807617 23.30902481079102 114.8080978393555 26.19904899597168 C 117.7112503051758 29.08849906921387 120.3465957641602 32.26744842529297 122.640998840332 35.64757537841797 C 124.9556198120117 39.05757522583008 126.9432983398438 42.7021484375 128.5487670898438 46.48004913330078 C 130.1829986572266 50.3255729675293 131.4380950927734 54.34975051879883 132.2792510986328 58.44082641601562 C 133.1430206298828 62.64217376708984 133.5809936523438 66.96855163574219 133.5809936523438 71.29972839355469 C 133.5809936523438 75.63095092773438 133.1430206298828 79.9573974609375 132.2792205810547 84.15889739990234 C 131.4380950927734 88.24992370605469 130.1829986572266 92.27412414550781 128.5487670898438 96.11965179443359 C 126.943244934082 99.89767456054688 124.9555740356445 103.5422973632812 122.6409454345703 106.9523010253906 C 120.3464736938477 110.3325500488281 117.7110977172852 113.5114974975586 114.8080978393555 116.4008026123047 C 111.9043502807617 119.2908782958984 108.7092971801758 121.9146270751953 105.3117446899414 124.1991500854492 C 101.8828735351562 126.5047225952148 98.21772003173828 128.4848022460938 94.41807556152344 130.0843200683594 C 90.549072265625 131.7130737304688 86.50027465820312 132.9639434814453 82.38414764404297 133.80224609375 C 78.15619659423828 134.6632995605469 73.80229949951172 135.0998992919922 69.44337463378906 135.0998992919922 Z" stroke="none"/>
        <path d="M 69.44336700439453 127.5999145507812 C 73.30069732666016 127.5999145507812 77.15103149414062 127.2140808105469 80.88739776611328 126.4531173706055 C 84.520263671875 125.713249206543 88.0936279296875 124.6092529296875 91.50813293457031 123.1718521118164 C 94.86259460449219 121.7597198486328 98.09883117675781 120.0113525390625 101.1268005371094 117.9753494262695 C 104.1286315917969 115.9568862915039 106.9516296386719 113.6386489868164 109.5173950195312 111.0849533081055 C 112.0816955566406 108.5327529907227 114.409294128418 105.7250823974609 116.4354934692383 102.7401504516602 C 118.4774322509766 99.73188018798828 120.230598449707 96.51748657226562 121.6462326049805 93.18634796142578 C 123.0859985351562 89.79828643798828 124.1917953491211 86.25281524658203 124.932861328125 82.64851379394531 C 125.694694519043 78.94294738769531 126.0809936523438 75.12467956542969 126.0809936523438 71.29975128173828 C 126.0809936523438 67.47484588623047 125.6947326660156 63.65665054321289 124.9328994750977 59.9512825012207 C 124.1918334960938 56.34688186645508 123.0860290527344 52.80144882202148 121.6462326049805 49.41341781616211 C 120.2306289672852 46.08234786987305 118.4774932861328 42.86804962158203 116.4354629516602 39.85964965820312 C 114.4095001220703 36.87495040893555 112.0819320678711 34.06734848022461 109.5173263549805 31.51484870910645 C 106.9516296386719 28.96125030517578 104.128662109375 26.64301681518555 101.1268997192383 24.62464904785156 C 98.09886169433594 22.58858299255371 94.86259460449219 20.8402156829834 91.50813293457031 19.42804908752441 C 89.21493530273438 18.46269226074219 86.84995269775391 17.64768600463867 84.44336700439453 16.99237632751465 L 84.44336700439453 103.8806533813477 L 23.24485206604004 103.8806533813477 C 26.37956047058105 108.2654190063477 30.11782073974609 112.1733093261719 34.38126373291016 115.519416809082 C 39.27096176147461 119.3569793701172 44.71202850341797 122.343879699707 50.55339813232422 124.3971862792969 C 56.59916305541992 126.5223846435547 62.95466232299805 127.5999145507812 69.44336700439453 127.5999145507812 M 69.44336700439453 142.5999145507812 C 61.25632858276367 142.5999145507812 53.22723007202148 141.23681640625 45.57906341552734 138.5483856201172 C 38.18676376342773 135.9499206542969 31.30346298217773 132.1719207763672 25.12039756774902 127.3192520141602 C 18.99686431884766 122.513313293457 13.72873020172119 116.7874145507812 9.462363243103027 110.300651550293 C 5.124063491821289 103.7044525146484 1.940463542938232 96.49774932861328 -3.173828190483619e-06 88.88065338134766 L 69.44336700439453 88.88065338134766 L 69.44336700439453 1.631266241020057e-05 C 74.30486297607422 1.631266241020057e-05 79.16216278076172 0.487516313791275 83.88086700439453 1.448583006858826 C 88.48043060302734 2.385316371917725 93.00469970703125 3.783116340637207 97.32803344726562 5.603116512298584 C 101.5728607177734 7.390082836151123 105.6669998168945 9.601816177368164 109.496696472168 12.17688274383545 C 113.2900619506836 14.72754955291748 116.8571319580078 17.65678215026855 120.0988616943359 20.88324928283691 C 123.3406295776367 24.10971641540527 126.2837600708008 27.65998268127441 128.846435546875 31.43541717529297 C 131.4337005615234 35.24701690673828 133.6559295654297 39.32181549072266 135.4513702392578 43.54671478271484 C 137.2799682617188 47.84965133666992 138.684326171875 52.3525505065918 139.6255645751953 56.93038177490234 C 140.5912933349609 61.62761688232422 141.0809936523438 66.46215057373047 141.0809936523438 71.29975128173828 C 141.0809936523438 76.13735198974609 140.5912933349609 80.97194671630859 139.6255645751953 85.66925048828125 C 138.684326171875 90.24711608886719 137.2799682617188 94.75005340576172 135.4513702392578 99.05301666259766 C 133.6559295654297 103.2778854370117 131.4337310791016 107.3527145385742 128.846435546875 111.1644134521484 C 126.2836608886719 114.9398803710938 123.3405990600586 118.4901809692383 120.0988616943359 121.7166137695312 C 116.8570938110352 124.943115234375 113.2900314331055 127.8723526000977 109.496696472168 130.4230194091797 C 105.6669616699219 132.9981231689453 101.5728302001953 135.2098541259766 97.32803344726562 136.9967803955078 C 93.00460052490234 138.8168182373047 88.48033142089844 140.2146453857422 83.88086700439453 141.1513824462891 C 79.1614990234375 142.112548828125 74.30403137207031 142.5999145507812 69.44336700439453 142.5999145507812 Z" stroke="none" fill="#a1a3ef"/>
      </g>
      <g id="Group_208" data-name="Group 208" transform="translate(14596.437 -20268.613)">
        <g id="Path_65" data-name="Path 65" transform="translate(0 0)" fill="#fff">
          <path d="M 67.21860504150391 133.4371948242188 C 58.27871322631836 133.4371948242188 49.60676956176758 131.6865234375 41.44364166259766 128.2338104248047 C 37.52013397216797 126.5743179321289 33.73583984375 124.5202407836914 30.19585990905762 122.1286773681641 C 26.68926048278809 119.7596817016602 23.39176940917969 117.0389862060547 20.39498710632324 114.0422058105469 C 17.3982048034668 111.0454406738281 14.67753219604492 107.7479553222656 12.30851459503174 104.2413558959961 C 9.916950225830078 100.7013702392578 7.86287784576416 96.91706085205078 6.203386783599854 92.99355316162109 C 2.750677824020386 84.8304443359375 1.000005006790161 76.15847778320312 1.000005006790161 67.21858978271484 C 1.000005006790161 58.95295333862305 2.504441499710083 50.89106369018555 5.471496105194092 43.25686264038086 C 8.339986801147461 35.87629699707031 12.48511409759521 29.11160850524902 17.79176902770996 23.15069961547852 C 20.8104419708252 19.75980758666992 24.19264221191406 16.669189453125 27.84440422058105 13.96468067169189 C 31.52593231201172 11.23811721801758 35.50025939941406 8.890316963195801 39.65696716308594 6.986462593078613 C 43.89175033569336 5.046844482421875 48.34489440917969 3.555171489715576 52.89267730712891 2.552862405776978 C 57.56798553466797 1.522462487220764 62.38791275024414 1.0000079870224 67.21860504150391 1.0000079870224 C 76.15849304199219 1.0000079870224 84.83045959472656 2.750680685043335 92.99356842041016 6.203389644622803 C 96.91707611083984 7.862880706787109 100.7013854980469 9.916953086853027 104.2413711547852 12.30851745605469 C 107.7479705810547 14.67751693725586 111.0454559326172 17.39820861816406 114.0422210693359 20.39498901367188 C 117.0390014648438 23.39175415039062 119.7596969604492 26.68924522399902 122.1286926269531 30.19584465026855 C 124.5202560424805 33.73582458496094 126.574333190918 37.52013397216797 128.2338256835938 41.44364547729492 C 131.6865386962891 49.60675430297852 133.4372100830078 58.2786979675293 133.4372100830078 67.21858978271484 C 133.4372100830078 76.15847778320312 131.6865386962891 84.8304443359375 128.2338256835938 92.99355316162109 C 126.574333190918 96.91706085205078 124.5202560424805 100.7013702392578 122.1286926269531 104.2413558959961 C 119.7596969604492 107.7479553222656 117.0390014648438 111.0454406738281 114.0422210693359 114.0422058105469 C 111.0454559326172 117.0389862060547 107.7479705810547 119.7596817016602 104.2413711547852 122.1286773681641 C 100.7013854980469 124.5202407836914 96.91707611083984 126.5743179321289 92.99356842041016 128.2338104248047 C 84.83045959472656 131.6865234375 76.15849304199219 133.4371948242188 67.21860504150391 133.4371948242188 Z" stroke="none"/>
          <path d="M 67.21860504150391 1.999984741210938 C 62.46016693115234 1.999984741210938 57.71263885498047 2.514572143554688 53.10789489746094 3.5294189453125 C 48.62925720214844 4.5164794921875 44.24380493164062 5.9854736328125 40.07338714599609 7.8956298828125 C 35.97962188720703 9.770645141601562 32.06544494628906 12.08293151855469 28.43955230712891 14.76828002929688 C 24.8428955078125 17.43196868896484 21.51177215576172 20.47593688964844 18.53868103027344 23.81560516357422 C 13.31156921386719 29.68718719482422 9.228729248046875 36.35004425048828 6.403579711914062 43.61911773681641 C 3.481582641601562 51.13735198974609 2 59.07736968994141 2 67.21858978271484 C 2 76.02393341064453 3.724090576171875 84.56480407714844 7.1243896484375 92.60400390625 C 8.758735656738281 96.46804809570312 10.78171539306641 100.1950607299805 13.13713073730469 103.6815338134766 C 15.47051239013672 107.1354064941406 18.15031433105469 110.3833312988281 21.10208129882812 113.3350982666016 C 24.05385589599609 116.286865234375 27.30178833007812 118.9666595458984 30.75566101074219 121.3000411987305 C 34.24213409423828 123.6554641723633 37.96914672851562 125.6784439086914 41.83318328857422 127.3127899169922 C 49.87238311767578 130.7130737304688 58.41326141357422 132.4371643066406 67.21860504150391 132.4371643066406 C 76.02394866943359 132.4371643066406 84.5648193359375 130.7130737304688 92.60401916503906 127.3127899169922 C 96.46806335449219 125.6784439086914 100.1950759887695 123.6554641723633 103.6815490722656 121.3000411987305 C 107.1354217529297 118.9666595458984 110.3833465576172 116.286865234375 113.3351287841797 113.3350982666016 C 116.2868957519531 110.3833312988281 118.9666976928711 107.1354064941406 121.3000793457031 103.6815338134766 C 123.6554946899414 100.1950607299805 125.6784820556641 96.46804809570312 127.3128204345703 92.60400390625 C 130.7131195068359 84.56480407714844 132.4372100830078 76.02393341064453 132.4372100830078 67.21858978271484 C 132.4372100830078 58.41326141357422 130.7131195068359 49.87236785888672 127.3128204345703 41.83319091796875 C 125.6784820556641 37.96915435791016 123.6554946899414 34.24211883544922 121.3000793457031 30.75564575195312 C 118.9666976928711 27.30178833007812 116.2868957519531 24.05384063720703 113.3351135253906 21.10208129882812 C 110.3833465576172 18.15029907226562 107.1354217529297 15.47049713134766 103.6815490722656 13.13711547851562 C 100.1950759887695 10.78170013427734 96.46806335449219 8.758720397949219 92.60401916503906 7.124374389648438 C 84.5648193359375 3.724075317382812 76.02394866943359 1.999984741210938 67.21860504150391 1.999984741210938 M 67.21860504150391 -1.52587890625e-05 C 104.3424224853516 -1.52587890625e-05 134.4372100830078 30.09478759765625 134.4372100830078 67.21858978271484 C 134.4372100830078 104.3424072265625 104.3424224853516 134.4371643066406 67.21860504150391 134.4371643066406 C 30.09478759765625 134.4371643066406 0 104.3424072265625 0 67.21858978271484 C 0 50.06748199462891 6.423492431640625 34.41666412353516 17.04486083984375 22.48575592041016 C 29.30773162841797 8.710823059082031 47.24591064453125 -1.52587890625e-05 67.21860504150391 -1.52587890625e-05 Z" stroke="none" fill="#dfe4fb"/>
        </g>
      </g>
      <path id="Path_93151" data-name="Path 93151" d="M-1076.5,201.168c-.965-.262-1.952-.466-2.893-.8a13.438,13.438,0,0,1-9-12.353q-.125-7.065,0-14.135a13.583,13.583,0,0,1,12.172-13.255,5.627,5.627,0,0,0,1.182-.353c2.728-.952,5.447-1.928,8.186-2.847a8.052,8.052,0,0,1,1.753-.163V156.2c0-6.532-.011-13.064.015-19.6a1.614,1.614,0,0,0-.89-1.616,18.224,18.224,0,0,1-8.33-18.94,18.35,18.35,0,0,1,14.8-14.482,18.007,18.007,0,0,1,11.953,2.047c1.163.648,1.333,1.917.377,2.6a1.66,1.66,0,0,1-1.915-.072,15.414,15.414,0,0,0-5.622-1.762,15.228,15.228,0,0,0-16.924,14.8,15.251,15.251,0,0,0,13.026,15.46,15.321,15.321,0,0,0,17.265-12.7,15.23,15.23,0,0,0-3.1-11.891c-.77-1.007-.789-1.779-.047-2.4s1.626-.382,2.4.6a18.185,18.185,0,0,1-4.8,26.8c-.448.279-.823.5-.82,1.162.029,6.857.019,13.713.022,20.57,0,.128.026.256.047.449.695.08,1.4.135,2.087.251a7.772,7.772,0,0,1,1.5.391c2.246.866,4.473,1.78,6.725,2.627a9.241,9.241,0,0,0,1.713.3,13.463,13.463,0,0,1,11.208,12.88q.145,7.113.006,14.232a13.5,13.5,0,0,1-11.351,13.063,3.566,3.566,0,0,0-.547.185Zm-3.013-36.477a3.477,3.477,0,0,0-.432.182,10.3,10.3,0,0,0-5.508,9.042c-.113,4.611-.039,9.228-.015,13.842a9.749,9.749,0,0,0,.28,2.212,10.715,10.715,0,0,0,10.769,8.273q14.577.02,29.153,0c2.373,0,4.746.028,7.118-.006a10.715,10.715,0,0,0,10.806-10.935q.018-6.58,0-13.16a10.322,10.322,0,0,0-2.265-6.491,9.515,9.515,0,0,0-3.669-2.961,29.77,29.77,0,0,1,.8,4.4c.117,3.441.079,6.888.027,10.332a10.373,10.373,0,0,1-10.137,10.19c-8.059.083-16.12.03-24.18.024a1.517,1.517,0,0,1-1.722-1.454c-.02-.886.612-1.452,1.669-1.485.292-.009.585,0,.877,0q11.262,0,22.523,0c4.482-.009,7.679-2.688,7.952-7.006.227-3.592.1-7.21.028-10.815a6.673,6.673,0,0,0-2.02-4.623c-.495-.5-1.09-.906-1.806-1.491.095.87.207,1.445.211,2.021.019,2.567.059,5.135-.005,7.7a7.686,7.686,0,0,1-7.652,7.42q-9.7.028-19.4-.01a7.6,7.6,0,0,1-2.2-.344,7.605,7.605,0,0,1-5.461-7.264c-.052-3.093-.011-6.187-.011-9.228a6.4,6.4,0,0,0-3.489,5.148c-.177,3.565-.177,7.142-.154,10.713a7.365,7.365,0,0,0,4.864,7.278c1.032.43,1.429,1.2,1.089,2.064a1.51,1.51,0,0,1-2.148.693c-3.625-1.455-6.006-4.081-6.523-7.951a69.128,69.128,0,0,1-.233-8.459C-1080.41,169.925-1080.624,167.276-1079.518,164.691Zm17.5-27.826a1.956,1.956,0,0,0-.083.358c0,9.643-.039,19.286.032,28.928.024,3.26,3.5,5.8,6.71,5.109a5.651,5.651,0,0,0,4.63-5.781q.021-13.831,0-27.662c0-.287-.026-.573-.045-.969A18.126,18.126,0,0,1-1062.018,136.864Zm-3,23.6a4.83,4.83,0,0,0-5.838,4.691c-.026,2.306-.019,4.613,0,6.919a4.807,4.807,0,0,0,4.776,4.9q9.648.08,19.3,0a4.782,4.782,0,0,0,4.789-4.584c.065-2.5.074-5,0-7.5a4.712,4.712,0,0,0-5.726-4.389c0,.36.006.743,0,1.126-.03,1.655.026,3.318-.111,4.964a8.561,8.561,0,0,1-8.57,7.7,8.525,8.525,0,0,1-8.586-7.677C-1065.144,164.586-1065.015,162.536-1065.015,160.46Z" transform="translate(15721.863 -20354.418)" fill="#6e00ff" stroke="#6e00ff" stroke-width="2"/>
      <path id="Path_93152" data-name="Path 93152" d="M-973.114,170.053c-1.5,0-2.89.006-4.28,0-1.372-.008-1.879-.514-1.885-1.879-.007-1.4-.01-2.795,0-4.192.009-1.09.525-1.7,1.426-1.724.958-.026,1.489.574,1.5,1.729.013,1,0,2,0,3.067h3.232c0-.984-.011-1.979,0-2.974.018-1.245.534-1.851,1.521-1.821.917.028,1.428.666,1.441,1.824.01.969,0,1.939,0,2.973h3.167c0-1.02-.01-2.017,0-3.013.014-1.147.545-1.777,1.479-1.784.951-.007,1.459.583,1.481,1.765.018,1,0,2,0,3.045h3.233c0-1.065-.011-2.093,0-3.121.015-1.1.525-1.685,1.445-1.689s1.478.607,1.482,1.668q.018,4.631,0,9.262c0,1.046-.579,1.712-1.444,1.732s-1.465-.647-1.483-1.679c-.017-1,0-2.01,0-3.1h-3.233c0,.979.014,1.978,0,2.975-.02,1.124-.59,1.806-1.471,1.8s-1.47-.692-1.489-1.8c-.016-.942-.019-1.884-.028-2.826a.966.966,0,0,0-.048-.163h-3.092c0,.872,0,1.766,0,2.661,0,1.384-.494,2.1-1.457,2.13-.982.03-1.5-.714-1.51-2.158C-973.116,171.89-973.114,171.021-973.114,170.053Z" transform="translate(15634.01 -20403.457)" fill="#6e00ff" stroke="#6e00ff" stroke-width="2"/>
    </g>
  </g>
</svg>
