<svg id="Icon_ionic-md-thumbs-up" data-name="Icon ionic-md-thumbs-up" xmlns="http://www.w3.org/2000/svg" width="22.28" height="20.572" viewBox="0 0 22.28 20.572">
  <path id="Path_93379" data-name="Path 93379" d="M13.286,25.071H22.5a1.966,1.966,0,0,0,1.832-1.254l3.059-7.254a2.05,2.05,0,0,0,.139-.75V13.746a2.363,2.363,0,0,0-2.025-2.389H19.12l.964-4.366.032-.321a1.553,1.553,0,0,0-.445-1.088L18.589,4.5l-6.75,6.82a2.062,2.062,0,0,0-.589,1.452V23.057A2.02,2.02,0,0,0,13.286,25.071Z" transform="translate(-5.25 -4.5)" fill="#a1a3ef"/>
  <path id="Path_93380" data-name="Path 93380" d="M3.375,15.75H6.8v12H3.375Z" transform="translate(-3.375 -7.179)" fill="#a1a3ef"/>
</svg>
