<svg xmlns="http://www.w3.org/2000/svg" width="20.066" height="20.066" viewBox="0 0 20.066 20.066">
  <path id="Icon_ionic-md-help-circle" data-name="Icon ionic-md-help-circle" d="M13.408,3.375A10.033,10.033,0,1,0,23.441,13.408,10.038,10.038,0,0,0,13.408,3.375Zm1.013,16.063H12.4V17.412h2.026Zm-.01-3.039H12.4c0-3.232,3.01-3,3.01-5.007A2.015,2.015,0,0,0,13.408,9.38a2.036,2.036,0,0,0-2.007,2H9.395a4.013,4.013,0,0,1,8.027,0C17.421,13.9,14.412,14.18,14.412,16.4Z" transform="translate(-3.375 -3.375)" fill="#a1a3ef"/>
</svg>
