<svg xmlns="http://www.w3.org/2000/svg" xmlns:xlink="http://www.w3.org/1999/xlink" width="71.002" height="56.802" viewBox="0 0 71.002 56.802">
  <defs>
    <clipPath id="clip-path">
      <path id="Icon_awesome-chalkboard-teacher" data-name="Icon awesome-chalkboard-teacher" d="M23.076,39.051a2.538,2.538,0,0,0-.783.121,14.635,14.635,0,0,1-4.542.767,14.647,14.647,0,0,1-4.543-.767,2.531,2.531,0,0,0-.782-.121A12.426,12.426,0,0,0,0,51.545,5.311,5.311,0,0,0,5.325,56.8H30.176A5.311,5.311,0,0,0,35.5,51.545,12.426,12.426,0,0,0,23.076,39.051ZM17.751,35.5A10.65,10.65,0,1,0,7.1,24.851,10.65,10.65,0,0,0,17.751,35.5ZM65.677,0h-42.6a5.422,5.422,0,0,0-5.325,5.5V10.65a14.039,14.039,0,0,1,7.1,1.975V7.1H63.9V39.051H56.8v-7.1H42.6v7.1H34.143a14.14,14.14,0,0,1,4.4,7.1H65.677A5.422,5.422,0,0,0,71,40.65V5.5A5.422,5.422,0,0,0,65.677,0Z" transform="translate(15747.499 8363)" fill="#fff"/>
    </clipPath>
  </defs>
  <g id="Mask_Group_187" data-name="Mask Group 187" transform="translate(-15747.499 -8363)" clip-path="url(#clip-path)">
    <path id="BG" d="M30,0h71.055a4,4,0,0,1,4,4V67.03a30,30,0,0,1-30,30H4a4,4,0,0,1-4-4V30A30,30,0,0,1,30,0Z" transform="translate(15733.544 8346.439)" fill="#fff"/>
  </g>
</svg>
