<svg xmlns="http://www.w3.org/2000/svg" width="16.177" height="18.488" viewBox="0 0 16.177 18.488">
  <path id="Icon_awesome-unlock-alt" data-name="Icon awesome-unlock-alt" d="M14.444,9.244H5.489V5.521a2.6,2.6,0,1,1,5.2-.032v.578a.865.865,0,0,0,.867.867h1.156a.865.865,0,0,0,.867-.867V5.489A5.489,5.489,0,1,0,2.6,5.543v3.7H1.733A1.734,1.734,0,0,0,0,10.977v5.778a1.734,1.734,0,0,0,1.733,1.733H14.444a1.734,1.734,0,0,0,1.733-1.733V10.977A1.734,1.734,0,0,0,14.444,9.244ZM9.533,14.733a1.444,1.444,0,0,1-2.889,0V13a1.444,1.444,0,0,1,2.889,0Z" fill="#f69e1e"/>
</svg>
