<svg xmlns="http://www.w3.org/2000/svg" width="42" height="44.198" viewBox="0 0 42 44.198">
  <path id="Path_93397" data-name="Path 93397" d="M93.567,49.032v1.293a2.041,2.041,0,0,1-1.713,2.033l-.32,1.171a1.436,1.436,0,0,1-1.392,1.083H87.014a1.437,1.437,0,0,1-1.392-1.083l-.309-1.171a2.048,2.048,0,0,1-1.724-2.033V49.032a1.235,1.235,0,0,1,1.222-1.249h7.529A1.242,1.242,0,0,1,93.567,49.032Zm5.79-17.4a10.9,10.9,0,0,1-3.017,7.558,10.033,10.033,0,0,0-2.652,5.426,1.784,1.784,0,0,1-1.768,1.514H85.235a1.769,1.769,0,0,1-1.757-1.514,10.074,10.074,0,0,0-2.663-5.437,10.829,10.829,0,1,1,18.542-7.547Zm-9.558-6.6A1.228,1.228,0,0,0,88.584,23.8,7.829,7.829,0,0,0,80.8,31.661a1.216,1.216,0,0,0,2.431.015v-.015a5.383,5.383,0,0,1,5.348-5.392A1.224,1.224,0,0,0,89.8,25.035Zm-1.216-7.857A1.231,1.231,0,0,0,89.8,15.937v-4.3a1.216,1.216,0,1,0-2.431-.017v4.315A1.232,1.232,0,0,0,88.584,17.174ZM74.274,31.617a1.22,1.22,0,0,0-1.216-1.227H68.8a1.227,1.227,0,0,0,0,2.453h4.254a1.216,1.216,0,0,0,1.216-1.216Zm34.089-1.227h-4.254a1.227,1.227,0,0,0,0,2.453h4.254a1.227,1.227,0,0,0,0-2.453ZM76.749,41.838l-3.017,3.05a1.234,1.234,0,0,0,0,1.735,1.207,1.207,0,0,0,.862.354,1.161,1.161,0,0,0,.851-.354l3.017-3.039a1.247,1.247,0,0,0,0-1.746,1.206,1.206,0,0,0-1.706-.007ZM99.556,21.76a1.254,1.254,0,0,0,.862-.354l3.017-3.05a1.234,1.234,0,0,0,0-1.735,1.215,1.215,0,0,0-1.718-.006l-.006.006-3.017,3.05a1.234,1.234,0,0,0,0,1.735,1.256,1.256,0,0,0,.862.354ZM76.749,21.4a1.207,1.207,0,0,0,.862.354,1.162,1.162,0,0,0,.851-.354,1.234,1.234,0,0,0,0-1.735l-3.017-3.05a1.206,1.206,0,0,0-1.706-.007l-.007.007a1.227,1.227,0,0,0-.009,1.736l.009.01Zm23.669,20.443a1.215,1.215,0,0,0-1.718-.006l-.006.006a1.247,1.247,0,0,0,0,1.746l3.017,3.039a1.215,1.215,0,0,0,1.713,0,1.234,1.234,0,0,0,0-1.735Z" transform="translate(-67.584 -10.414)" fill="#a1a3ef" fill-rule="evenodd"/>
</svg>
