<svg xmlns="http://www.w3.org/2000/svg" width="24.365" height="27.846" viewBox="0 0 24.365 27.846">
  <path id="Icon_awesome-calendar-check" data-name="Icon awesome-calendar-check" d="M23.712,8.7H.653A.653.653,0,0,1,0,8.049V6.091A2.61,2.61,0,0,1,2.611,3.481H5.221V.653A.653.653,0,0,1,5.874,0H8.049A.653.653,0,0,1,8.7.653V3.481h6.961V.653A.653.653,0,0,1,16.316,0h2.175a.653.653,0,0,1,.653.653V3.481h2.611a2.61,2.61,0,0,1,2.611,2.611V8.049A.653.653,0,0,1,23.712,8.7ZM.653,10.442h23.06a.653.653,0,0,1,.653.653v14.14a2.61,2.61,0,0,1-2.611,2.611H2.611A2.61,2.61,0,0,1,0,25.235V11.095A.653.653,0,0,1,.653,10.442ZM18.779,15.66l-1.532-1.544a.653.653,0,0,0-.923,0l-5.767,5.721-2.5-2.521a.653.653,0,0,0-.923,0L5.589,18.84a.653.653,0,0,0,0,.923l4.492,4.529a.653.653,0,0,0,.923,0l7.775-7.712a.653.653,0,0,0,0-.923Z" fill="#a1a3ef"/>
</svg>
