<svg xmlns="http://www.w3.org/2000/svg" xmlns:xlink="http://www.w3.org/1999/xlink" width="245.231" height="242.424" viewBox="0 0 245.231 242.424">
  <defs>
    <filter id="Path_93140" x="0" y="0" width="245.231" height="242.424" filterUnits="userSpaceOnUse">
      <feOffset dy="15" input="SourceAlpha"/>
      <feGaussianBlur stdDeviation="10" result="blur"/>
      <feFlood flood-color="#151d41" flood-opacity="0.059"/>
      <feComposite operator="in" in2="blur"/>
      <feComposite in="SourceGraphic"/>
    </filter>
  </defs>
  <g id="Group_44918" data-name="Group 44918" transform="translate(-542.934 -3564.57)">
    <g id="Group_44917" data-name="Group 44917" transform="translate(-14435.711 23871.129)">
      <g transform="matrix(1, 0, 0, 1, 14978.64, -20306.56)" filter="url(#Path_93140)">
        <path id="Path_93140-2" data-name="Path 93140" d="M92.615,0c51.15,0,92.615,40.837,92.615,91.212s-41.465,91.212-92.615,91.212S0,141.587,0,91.212,41.465,0,92.615,0Z" transform="translate(30 15)" fill="#c9caf6"/>
      </g>
      <g id="Subtraction_7" data-name="Subtraction 7" transform="translate(15100.324 -20271.914)" fill="#fff">
        <path d="M 7.500449657440186 134.2657318115234 L 7.500027656555176 7.931581020355225 C 9.344296455383301 8.14292049407959 11.1744270324707 8.43140983581543 12.98177623748779 8.796194076538086 C 17.13052558898926 9.633169174194336 21.21165084838867 10.8823938369751 25.11240196228027 12.50929355621338 C 28.94175148010254 14.10644340515137 32.63457489013672 16.08291816711426 36.08825302124023 18.38384437561035 C 39.50990295410156 20.6635684967041 42.72725296020508 23.28131866455078 45.65075302124023 26.16424369812012 C 48.5723762512207 29.04536819458008 51.22460174560547 32.21516799926758 53.53372573852539 35.58561706542969 C 55.8624267578125 38.98479461669922 57.86157608032227 42.61654281616211 59.4755744934082 46.37984466552734 C 61.11840057373047 50.21041870117188 62.38022613525391 54.21886825561523 63.22600173950195 58.29386901855469 C 64.09402465820312 62.47704315185547 64.53420257568359 66.78519439697266 64.53420257568359 71.09829711914062 C 64.53420257568359 75.41166687011719 64.09402465820312 79.71994018554688 63.22592544555664 83.90346527099609 C 62.380126953125 87.97886657714844 61.11832809448242 91.98719024658203 59.47570037841797 95.81681823730469 C 57.8609504699707 99.58184051513672 55.8618278503418 103.2136917114258 53.53375244140625 106.6117172241211 C 51.22517776489258 109.9814224243164 48.5728759765625 113.1512908935547 45.6505012512207 116.0333938598633 C 42.7285270690918 118.9148941040039 39.51105117797852 121.5327224731445 36.08760070800781 123.8140182495117 C 32.6338005065918 126.1147689819336 28.94087600708008 128.0913238525391 25.11232566833496 129.6881408691406 C 21.21165084838867 131.3150177001953 17.13052558898926 132.5642395019531 12.98245143890381 133.4010925292969 C 11.17500972747803 133.7658538818359 9.344509124755859 134.0543823242188 7.500449657440186 134.2657318115234 Z" stroke="none"/>
        <path d="M 15.00041198730469 125.2274551391602 C 17.4614429473877 124.5677871704102 19.88038444519043 123.7440719604492 22.22516822814941 122.7661285400391 C 25.61043548583984 121.3541641235352 28.87576866149902 119.6064605712891 31.92866706848145 117.5727615356445 C 34.95613479614258 115.5553283691406 37.80110168457031 113.2406616210938 40.38410186767578 110.6934280395508 C 42.96593475341797 108.1471939086914 45.30836868286133 105.3477935791016 47.34659957885742 102.3726959228516 C 49.39883422851562 99.37729644775391 51.1605339050293 96.17706298828125 52.58300018310547 92.86035919189453 C 54.02826690673828 89.49089050292969 55.13836669921875 85.96449279785156 55.88236618041992 82.37966156005859 C 56.64666748046875 78.69632720947266 57.03420257568359 74.90072631835938 57.03420257568359 71.09829711914062 C 57.03420257568359 67.29612731933594 56.64666748046875 63.50065994262695 55.88249969482422 59.8179931640625 C 55.13846969604492 56.23319244384766 54.02826690673828 52.70656204223633 52.58276748657227 49.3360595703125 C 51.16110229492188 46.02119445800781 49.39929962158203 42.82099533081055 47.34646606445312 39.82452774047852 C 45.30776977539062 36.84875869750977 42.96543502807617 34.04949569702148 40.38456726074219 31.50442695617676 C 37.80000305175781 28.9556941986084 34.9553337097168 26.64119338989258 31.92993545532227 24.6254940032959 C 28.87623405456543 22.59106063842773 25.61113548278809 20.8434944152832 22.22530174255371 19.43136024475098 C 19.88042831420898 18.45336723327637 17.46155738830566 17.62966537475586 15.00005722045898 16.96989822387695 L 15.00041198730469 125.2274551391602 M 0.0004679544945247471 142.1973876953125 L 1.287841769226361e-06 142.1973876953125 L 1.287841769226361e-06 -6.152343758003553e-06 C 4.871934413909912 0.00426051439717412 9.738734245300293 0.4903938472270966 14.46560096740723 1.444460511207581 C 19.09346771240234 2.378060579299927 23.64690208435059 3.771893739700317 27.9994010925293 5.587227344512939 C 32.27239990234375 7.369393825531006 36.3929328918457 9.574793815612793 40.24656677246094 12.14216041564941 C 44.06453323364258 14.68592739105225 47.65453338623047 17.6069278717041 50.91686630249023 20.82402801513672 C 54.17923355102539 24.0411262512207 57.14133453369141 27.58149337768555 59.72090148925781 31.34669303894043 C 62.32540130615234 35.1484260559082 64.56196594238281 39.21169281005859 66.36840057373047 43.4236946105957 C 68.20860290527344 47.71446228027344 69.62203216552734 52.20469284057617 70.56950378417969 56.76969528198242 C 71.54136657714844 61.45332717895508 72.03420257568359 66.27416229248047 72.03420257568359 71.09829711914062 C 72.03420257568359 75.92266082763672 71.54136657714844 80.74365997314453 70.56950378417969 85.42729187011719 C 69.62190246582031 89.99309539794922 68.20846557617188 94.48336029052734 66.36840057373047 98.77329254150391 C 64.56137084960938 102.9866638183594 62.32480239868164 107.0500946044922 59.72090148925781 110.8506927490234 C 57.14216613769531 114.6147613525391 54.18009948730469 118.1550903320312 50.91686630249023 121.3733596801758 C 47.65579986572266 124.5892639160156 44.06573486328125 127.5102615356445 40.24656677246094 130.0552215576172 C 36.39193344116211 132.6230316162109 32.27130126953125 134.8284301757812 27.9994010925293 136.6101989746094 C 23.64690208435059 138.4255218505859 19.09346771240234 139.8193664550781 14.46560096740723 140.7529602050781 C 9.737801551818848 141.7071228027344 4.870967864990234 142.1930999755859 0.0004679544945247471 142.1973876953125 Z" stroke="none" fill="#a1a3ef"/>
      </g>
      <g id="Group_44899" data-name="Group 44899" transform="translate(15031.884 -20268.613)">
        <g id="Path_65" data-name="Path 65" transform="translate(0 0)" fill="#fff">
          <path d="M 67.21860504150391 133.4371948242188 C 58.27871322631836 133.4371948242188 49.60676956176758 131.6865234375 41.44364166259766 128.2338104248047 C 37.52013397216797 126.5743179321289 33.73583984375 124.5202407836914 30.19585990905762 122.1286773681641 C 26.68926048278809 119.7596817016602 23.39176940917969 117.0389862060547 20.39498710632324 114.0422058105469 C 17.3982048034668 111.0454406738281 14.67753219604492 107.7479553222656 12.30851459503174 104.2413558959961 C 9.916950225830078 100.7013702392578 7.86287784576416 96.91706085205078 6.203386783599854 92.99355316162109 C 2.750677824020386 84.8304443359375 1.000005006790161 76.15847778320312 1.000005006790161 67.21858978271484 C 1.000005006790161 58.95295333862305 2.504441499710083 50.89106369018555 5.471496105194092 43.25686264038086 C 8.339986801147461 35.87629699707031 12.48511409759521 29.11160850524902 17.79176902770996 23.15069961547852 C 20.8104419708252 19.75980758666992 24.19264221191406 16.669189453125 27.84440422058105 13.96468067169189 C 31.52593231201172 11.23811721801758 35.50025939941406 8.890316963195801 39.65696716308594 6.986462593078613 C 43.89175033569336 5.046844482421875 48.34489440917969 3.555171489715576 52.89267730712891 2.552862405776978 C 57.56798553466797 1.522462487220764 62.38791275024414 1.0000079870224 67.21860504150391 1.0000079870224 C 76.15849304199219 1.0000079870224 84.83045959472656 2.750680685043335 92.99356842041016 6.203389644622803 C 96.91707611083984 7.862880706787109 100.7013854980469 9.916953086853027 104.2413711547852 12.30851745605469 C 107.7479705810547 14.67751693725586 111.0454559326172 17.39820861816406 114.0422210693359 20.39498901367188 C 117.0390014648438 23.39175415039062 119.7596969604492 26.68924522399902 122.1286926269531 30.19584465026855 C 124.5202560424805 33.73582458496094 126.574333190918 37.52013397216797 128.2338256835938 41.44364547729492 C 131.6865386962891 49.60675430297852 133.4372100830078 58.2786979675293 133.4372100830078 67.21858978271484 C 133.4372100830078 76.15847778320312 131.6865386962891 84.8304443359375 128.2338256835938 92.99355316162109 C 126.574333190918 96.91706085205078 124.5202560424805 100.7013702392578 122.1286926269531 104.2413558959961 C 119.7596969604492 107.7479553222656 117.0390014648438 111.0454406738281 114.0422210693359 114.0422058105469 C 111.0454559326172 117.0389862060547 107.7479705810547 119.7596817016602 104.2413711547852 122.1286773681641 C 100.7013854980469 124.5202407836914 96.91707611083984 126.5743179321289 92.99356842041016 128.2338104248047 C 84.83045959472656 131.6865234375 76.15849304199219 133.4371948242188 67.21860504150391 133.4371948242188 Z" stroke="none"/>
          <path d="M 67.21860504150391 1.999984741210938 C 62.46016693115234 1.999984741210938 57.71263885498047 2.514572143554688 53.10789489746094 3.5294189453125 C 48.62925720214844 4.5164794921875 44.24380493164062 5.9854736328125 40.07338714599609 7.8956298828125 C 35.97962188720703 9.770645141601562 32.06544494628906 12.08293151855469 28.43955230712891 14.76828002929688 C 24.8428955078125 17.43196868896484 21.51177215576172 20.47593688964844 18.53868103027344 23.81560516357422 C 13.31156921386719 29.68718719482422 9.228729248046875 36.35004425048828 6.403579711914062 43.61911773681641 C 3.481582641601562 51.13735198974609 2 59.07736968994141 2 67.21858978271484 C 2 76.02393341064453 3.724090576171875 84.56480407714844 7.1243896484375 92.60400390625 C 8.758735656738281 96.46804809570312 10.78171539306641 100.1950607299805 13.13713073730469 103.6815338134766 C 15.47051239013672 107.1354064941406 18.15031433105469 110.3833312988281 21.10208129882812 113.3350982666016 C 24.05385589599609 116.286865234375 27.30178833007812 118.9666595458984 30.75566101074219 121.3000411987305 C 34.24213409423828 123.6554641723633 37.96914672851562 125.6784439086914 41.83318328857422 127.3127899169922 C 49.87238311767578 130.7130737304688 58.41326141357422 132.4371643066406 67.21860504150391 132.4371643066406 C 76.02394866943359 132.4371643066406 84.5648193359375 130.7130737304688 92.60401916503906 127.3127899169922 C 96.46806335449219 125.6784439086914 100.1950759887695 123.6554641723633 103.6815490722656 121.3000411987305 C 107.1354217529297 118.9666595458984 110.3833465576172 116.286865234375 113.3351287841797 113.3350982666016 C 116.2868957519531 110.3833312988281 118.9666976928711 107.1354064941406 121.3000793457031 103.6815338134766 C 123.6554946899414 100.1950607299805 125.6784820556641 96.46804809570312 127.3128204345703 92.60400390625 C 130.7131195068359 84.56480407714844 132.4372100830078 76.02393341064453 132.4372100830078 67.21858978271484 C 132.4372100830078 58.41326141357422 130.7131195068359 49.87236785888672 127.3128204345703 41.83319091796875 C 125.6784820556641 37.96915435791016 123.6554946899414 34.24211883544922 121.3000793457031 30.75564575195312 C 118.9666976928711 27.30178833007812 116.2868957519531 24.05384063720703 113.3351135253906 21.10208129882812 C 110.3833465576172 18.15029907226562 107.1354217529297 15.47049713134766 103.6815490722656 13.13711547851562 C 100.1950759887695 10.78170013427734 96.46806335449219 8.758720397949219 92.60401916503906 7.124374389648438 C 84.5648193359375 3.724075317382812 76.02394866943359 1.999984741210938 67.21860504150391 1.999984741210938 M 67.21860504150391 -1.52587890625e-05 C 104.3424224853516 -1.52587890625e-05 134.4372100830078 30.09478759765625 134.4372100830078 67.21858978271484 C 134.4372100830078 104.3424072265625 104.3424224853516 134.4371643066406 67.21860504150391 134.4371643066406 C 30.09478759765625 134.4371643066406 0 104.3424072265625 0 67.21858978271484 C 0 50.06748199462891 6.423492431640625 34.41666412353516 17.04486083984375 22.48575592041016 C 29.30773162841797 8.710823059082031 47.24591064453125 -1.52587890625e-05 67.21860504150391 -1.52587890625e-05 Z" stroke="none" fill="#dfe4fb"/>
        </g>
      </g>
      <path id="Icon_material-airline-seat-recline-extra" data-name="Icon material-airline-seat-recline-extra" d="M16.4,17.562A8.014,8.014,0,1,1,27.566,15.6,8.054,8.054,0,0,1,16.4,17.562ZM59.015,71.016H30.727A11.968,11.968,0,0,1,18.884,60.854L11,23H3l7.962,39.05A20.045,20.045,0,0,0,30.767,79.018H59.015Zm.92-16H40.41l-4.121-16.4c6.322,3.561,13.123,6.162,20.605,4.881V34.967c-6.522,1.24-13.764-1.08-18.765-5l-6.562-5.081a9.051,9.051,0,0,0-3.041-1.52,8.84,8.84,0,0,0-3.961-.24h-.08a9.073,9.073,0,0,0-7.362,10.443l5.4,23.686a12.036,12.036,0,0,0,11.8,9.763H61.735l15.284,12,6-6-23.086-18Z" transform="translate(15060.364 -20244.188)" fill="#6e00ff"/>
    </g>
  </g>
</svg>
