<svg xmlns="http://www.w3.org/2000/svg" width="28.213" height="31.391" viewBox="0 0 28.213 31.391">
  <g id="Icon_feather-package" data-name="Icon feather-package" transform="translate(-4 -2.466)">
    <path id="Path_93387" data-name="Path 93387" d="M24.856,14.161,11.25,6.315" transform="translate(0.053 0.026)" fill="none" stroke="#0019ff" stroke-linecap="round" stroke-linejoin="round" stroke-width="1"/>
    <path id="Path_93388" data-name="Path 93388" d="M31.713,24.166V12.071A3.024,3.024,0,0,0,30.2,9.455L19.618,3.408a3.024,3.024,0,0,0-3.024,0L6.012,9.455A3.024,3.024,0,0,0,4.5,12.071V24.166a3.024,3.024,0,0,0,1.512,2.615l10.583,6.047a3.024,3.024,0,0,0,3.024,0L30.2,26.781a3.024,3.024,0,0,0,1.512-2.615Z" fill="none" stroke="#0019ff" stroke-linecap="round" stroke-linejoin="round" stroke-width="1"/>
    <path id="Path_93389" data-name="Path 93389" d="M4.905,10.44l13.2,7.635L31.3,10.44" transform="translate(0.003 0.059)" fill="none" stroke="#0019ff" stroke-linecap="round" stroke-linejoin="round" stroke-width="1"/>
    <path id="Path_93390" data-name="Path 93390" d="M18,33.239V18" transform="translate(0.106 0.118)" fill="none" stroke="#0019ff" stroke-linecap="round" stroke-linejoin="round" stroke-width="1"/>
  </g>
</svg>
