<svg xmlns="http://www.w3.org/2000/svg" width="58.482" height="64.98" viewBox="0 0 58.482 64.98">
  <path id="Icon_material-event-available" data-name="Icon material-event-available" d="M48.459,34.185l-3.444-3.444L29.16,46.6l-6.888-6.888-3.444,3.444L29.16,53.484ZM56.484,8H53.235V1.5h-6.5V8H20.745V1.5h-6.5V8H11a6.469,6.469,0,0,0-6.466,6.5L4.5,59.982a6.5,6.5,0,0,0,6.5,6.5H56.484a6.517,6.517,0,0,0,6.5-6.5V14.5A6.517,6.517,0,0,0,56.484,8Zm0,51.984H11V24.243H56.484Z" transform="translate(-4.5 -1.5)" fill="#a1a3ef"/>
</svg>
