<svg xmlns="http://www.w3.org/2000/svg" width="160.844" height="29.406" viewBox="0 0 160.844 29.406">
  <g id="Group_40415" data-name="Group 40415" transform="translate(-129.944 -391.924)">
    <g id="Group_40413" data-name="Group 40413" transform="translate(163.607 394.126)">
      <path id="Path_79381" data-name="Path 79381" d="M476.955,425.453l-.879-9.9a2.18,2.18,0,0,0-.32-1.005H479.8a2.849,2.849,0,0,0-.186.6,4.557,4.557,0,0,0-.013,1.414l.586,6.578,3.275-6.578a5.6,5.6,0,0,0,.546-1.414,4.261,4.261,0,0,0,.053-.6h2.2a7.747,7.747,0,0,0-1.238,1.977l-4.433,8.93Z" transform="translate(-475.757 -414.546)" fill="#fff"/>
      <path id="Path_79382" data-name="Path 79382" d="M568.577,449.182l-.146.75c-.107.579.053.818.559.818h3.022a2.732,2.732,0,0,0,1.491-.341l-.612,1.909h-6.257c-1.411,0-1.664-.75-1.345-2.42l.626-3.17c.319-1.67.865-2.42,2.277-2.42h4.779c1.411,0,1.664.75,1.345,2.42l-.479,2.454Zm2.5-1.568.213-1.091c.093-.46.013-.648-.333-.648h-1.291c-.346,0-.479.187-.573.648l-.213,1.091Z" transform="translate(-556.462 -441.411)" fill="#fff"/>
      <path id="Path_79383" data-name="Path 79383" d="M661.491,414.546l-.719,3.681h.027c.466-.648.559-.784.905-.784h2.45c1.478,0,1.877,1.125,1.531,2.914l-.639,3.255a3.368,3.368,0,0,0-.013,1.84H661.2a4.131,4.131,0,0,0,.706-1.84l.772-3.937c.093-.494-.013-.665-.4-.665h-1.145c-.386,0-.546.17-.639.665l-.772,3.937a3.367,3.367,0,0,0-.013,1.84h-3.834a4.133,4.133,0,0,0,.706-1.84l1.411-7.226a3.368,3.368,0,0,0,.013-1.841Z" transform="translate(-638.34 -414.546)" fill="#fff"/>
      <path id="Path_79384" data-name="Path 79384" d="M758.211,419.284a3.367,3.367,0,0,0,.013-1.841h3.488l-1.2,6.169a3.367,3.367,0,0,0-.013,1.84h-3.834a4.133,4.133,0,0,0,.706-1.84Zm4.047-4.738-.413,2.113h-3.089l.413-2.113Z" transform="translate(-729.322 -414.546)" fill="#fff"/>
      <path id="Path_79385" data-name="Path 79385" d="M812.019,449.932c-.107.579.053.818.559.818h1.531a2.921,2.921,0,0,0,1.744-.392l-.612,1.96h-4.859c-1.438,0-1.771-1.023-1.491-2.488l.6-3.033c.28-1.466,1.012-2.488,2.45-2.488h4.886l-.107,1.994c-.186-.29-.639-.426-1.4-.426h-1.8c-.506,0-.745.239-.879.818Z" transform="translate(-776.379 -441.411)" fill="#fff"/>
      <path id="Path_79386" data-name="Path 79386" d="M888.022,416.387a3.366,3.366,0,0,0,.013-1.841h3.488l-1.771,9.066a3.37,3.37,0,0,0-.013,1.84h-3.834a4.134,4.134,0,0,0,.706-1.84Z" transform="translate(-845.979 -414.546)" fill="#fff"/>
      <path id="Path_79387" data-name="Path 79387" d="M940.977,449.182l-.146.75c-.107.579.053.818.559.818h3.022a2.732,2.732,0,0,0,1.491-.341l-.612,1.909h-6.257c-1.411,0-1.664-.75-1.345-2.42l.626-3.17c.32-1.67.865-2.42,2.277-2.42h4.779c1.411,0,1.664.75,1.344,2.42l-.479,2.454Zm2.5-1.568.213-1.091c.093-.46.013-.648-.333-.648h-1.291c-.346,0-.479.187-.573.648l-.213,1.091Z" transform="translate(-892.611 -441.411)" fill="#fff"/>
      <path id="Path_79388" data-name="Path 79388" d="M1091.744,423.646a2.9,2.9,0,0,0,1.478-.358l-.706,2.164h-7.349a5.394,5.394,0,0,0,.626-1.875l1.4-7.158a4.816,4.816,0,0,0,.106-1.875h3.781a5.073,5.073,0,0,0-.639,1.875l-1.411,7.226Z" transform="translate(-1025.844 -414.546)" fill="#fff"/>
      <path id="Path_79389" data-name="Path 79389" d="M1174.02,449.182l-.146.75c-.106.579.053.818.559.818h3.022a2.733,2.733,0,0,0,1.491-.341l-.613,1.909h-6.257c-1.411,0-1.664-.75-1.345-2.42l.626-3.17c.32-1.67.865-2.42,2.276-2.42h4.78c1.411,0,1.664.75,1.345,2.42l-.479,2.454Zm2.5-1.568.213-1.091c.093-.46.013-.648-.333-.648h-1.291c-.346,0-.479.187-.573.648l-.213,1.091Z" transform="translate(-1102.967 -441.411)" fill="#fff"/>
      <path id="Path_79390" data-name="Path 79390" d="M1274.348,444.308c1.5,0,1.944.818,1.518,3.016l-.679,3.494a2.54,2.54,0,0,0,.013,1.5h-3.142l.013-.886h-.027c-.306.716-.6.886-1.451.886h-2.237c-1.411,0-1.664-.75-1.345-2.42l.12-.579c.32-1.67.865-2.42,2.277-2.42h2.862c.439,0,.559-.136.639-.511.067-.358,0-.511-.439-.511h-3.129a2.325,2.325,0,0,0-1.318.341l.6-1.909Zm-3.248,4.158c-.479.017-.679.1-.8.682l-.173.92c-.12.579.053.665.533.682h.732c.6,0,.692-.119.892-1.142l.213-1.142Z" transform="translate(-1189.876 -441.411)" fill="#fff"/>
      <path id="Path_79391" data-name="Path 79391" d="M1363.8,444.308l-.146,1.3h.026c.493-.954.892-1.3,1.864-1.3h1.531l-.506,2.624c-.333-.29-.439-.392-1.371-.392-1.238,0-1.531.273-1.744,1.363l-.506,2.573a3.369,3.369,0,0,0-.013,1.841H1359.1a4.132,4.132,0,0,0,.706-1.841l.839-4.329a3.364,3.364,0,0,0,.013-1.841Z" transform="translate(-1273.112 -441.411)" fill="#fff"/>
      <path id="Path_79392" data-name="Path 79392" d="M1433.384,444.308l-.067.835h.027c.226-.409.506-.835.972-.835h2.543c1.478,0,1.877,1.125,1.531,2.914l-.639,3.255a3.366,3.366,0,0,0-.013,1.841H1433.9a4.131,4.131,0,0,0,.706-1.841l.772-3.937c.093-.494-.013-.665-.4-.665h-1.145c-.386,0-.546.17-.639.665l-.772,3.937a3.37,3.37,0,0,0-.013,1.841h-3.834a4.13,4.13,0,0,0,.705-1.841l.839-4.329a3.368,3.368,0,0,0,.013-1.841Z" transform="translate(-1335.825 -441.411)" fill="#fff"/>
      <path id="Path_79393" data-name="Path 79393" d="M1530.914,419.284a3.37,3.37,0,0,0,.013-1.841h3.488l-1.2,6.169a3.37,3.37,0,0,0-.013,1.84h-3.834a4.132,4.132,0,0,0,.706-1.84Zm4.047-4.738-.413,2.113h-3.089l.413-2.113Z" transform="translate(-1426.805 -414.546)" fill="#fff"/>
      <path id="Path_79394" data-name="Path 79394" d="M1580.265,444.308l-.067.835h.027c.226-.409.506-.835.972-.835h2.543c1.478,0,1.877,1.125,1.531,2.914l-.639,3.255a3.366,3.366,0,0,0-.013,1.841h-3.834a4.134,4.134,0,0,0,.706-1.841l.772-3.937c.093-.494-.013-.665-.4-.665h-1.145c-.386,0-.546.17-.639.665l-.772,3.937a3.368,3.368,0,0,0-.014,1.841h-3.834a4.131,4.131,0,0,0,.706-1.841l.839-4.329a3.366,3.366,0,0,0,.013-1.841Z" transform="translate(-1468.408 -441.411)" fill="#fff"/>
      <path id="Path_79395" data-name="Path 79395" d="M1681.19,451.517h-.026a1.087,1.087,0,0,1-.972.8h-2.463c-1.438,0-1.771-1.023-1.491-2.488l.6-3.033c.28-1.466,1.012-2.488,2.45-2.488h2.476c.613,0,.812.238.826.852h.026l.319-.852h3.142a5.708,5.708,0,0,0-.759,2.13l-1.145,5.88c-.439,2.267-1.2,3.033-2.689,3.033H1675.7l.173-2.011a2.19,2.19,0,0,0,1.371.443h2.7c.679,0,.839-.222,1.025-1.193Zm.972-4.993c.093-.46.013-.648-.333-.648H1680.6c-.346,0-.479.187-.573.648l-.706,3.579c-.08.46-.013.648.333.648h1.225c.346,0,.493-.187.572-.648Z" transform="translate(-1558.895 -441.411)" fill="#fff"/>
    </g>
    <g id="Group_40414" data-name="Group 40414" transform="translate(165.444 410.932)">
      <path id="Path_79396" data-name="Path 79396" d="M496.984,587.188v9.4h-2.359v-9.4Z" transform="translate(-494.625 -587.188)" fill="#fff"/>
      <path id="Path_79397" data-name="Path 79397" d="M588.926,622.256a.6.6,0,0,0-.154-.457.778.778,0,0,0-.532-.143h-2.106q-.722,0-.722.574v3.916H583.3v-6.239h2.111v.77a1.379,1.379,0,0,1,.566-.561,1.748,1.748,0,0,1,.861-.209h2.618a1.666,1.666,0,0,1,1.1.392,1.222,1.222,0,0,1,.472.979v4.869h-2.1Z" transform="translate(-574.669 -616.721)" fill="#fff"/>
      <path id="Path_79398" data-name="Path 79398" d="M734.176,622.256a.6.6,0,0,0-.154-.457.778.778,0,0,0-.532-.143h-2.106q-.722,0-.722.574v3.916h-2.111v-6.239h2.111v.77a1.379,1.379,0,0,1,.566-.561,1.748,1.748,0,0,1,.861-.209h2.618a1.666,1.666,0,0,1,1.1.392,1.222,1.222,0,0,1,.472.979v4.869h-2.1Z" transform="translate(-705.779 -616.721)" fill="#fff"/>
      <path id="Path_79399" data-name="Path 79399" d="M881.058,625.754a1.658,1.658,0,0,1-1.1.392h-4.587a1.608,1.608,0,0,1-1.12-.4,1.257,1.257,0,0,1-.448-.966V621.29a1.286,1.286,0,0,1,.454-.959,1.528,1.528,0,0,1,1.079-.424h4.611a1.626,1.626,0,0,1,1.132.4,1.3,1.3,0,0,1,.448,1v3.459A1.227,1.227,0,0,1,881.058,625.754Zm-1.8-3.942a.765.765,0,0,0-.513-.156h-2.1a.842.842,0,0,0-.56.15.534.534,0,0,0-.171.424v1.579a.521.521,0,0,0,.171.45.972.972,0,0,0,.56.124h2.1a.776.776,0,0,0,.531-.15.545.545,0,0,0,.165-.424v-1.579A.523.523,0,0,0,879.254,621.812Z" transform="translate(-836.889 -616.721)" fill="#fff"/>
      <path id="Path_79400" data-name="Path 79400" d="M1021.646,619.906l1.946,4.477,1.934-4.477h2.134l-2.83,6.239h-2.453l-2.842-6.239Z" transform="translate(-968.438 -616.721)" fill="#fff"/>
      <path id="Path_79401" data-name="Path 79401" d="M1172.19,625.956a1.477,1.477,0,0,1-.746.189h-2.854a1.549,1.549,0,0,1-1.107-.375,1.317,1.317,0,0,1-.4-1.006v-.92a1.3,1.3,0,0,1,.426-1.032,1.679,1.679,0,0,1,1.149-.375h3.091a1.381,1.381,0,0,1,.568.1,1.1,1.1,0,0,1,.415.385v-1.07a.556.556,0,0,0-.153-.444.616.616,0,0,0-.413-.13H1170a2.05,2.05,0,0,0-.619.065.293.293,0,0,0-.183.313h-1.84v-.379a1.16,1.16,0,0,1,.578-.973,2.272,2.272,0,0,1,1.321-.4h4.033a1.621,1.621,0,0,1,1.085.392,1.234,1.234,0,0,1,.46.979v4.869h-2.1v-.692A1.619,1.619,0,0,1,1172.19,625.956Zm-2.435-2.356a.521.521,0,0,0-.4.17.616.616,0,0,0-.154.431.588.588,0,0,0,.148.411.5.5,0,0,0,.386.163h2.1a1.118,1.118,0,0,0,.677-.17.5.5,0,0,0,.225-.4.512.512,0,0,0-.273-.418,1.107,1.107,0,0,0-.629-.183Z" transform="translate(-1101.625 -616.721)" fill="#fff"/>
      <path id="Path_79402" data-name="Path 79402" d="M1315.209,603.814v1.566h3.455v1.749h-3.455v2.153a.534.534,0,0,0,.165.444,1.294,1.294,0,0,0,.719.13,1.278,1.278,0,0,0,.725-.137.528.528,0,0,0,.171-.437V608.9h2.1v.378a2.4,2.4,0,0,1-.584,1.717,1.986,1.986,0,0,1-1.515.62h-1.781a1.99,1.99,0,0,1-1.557-.614,2.479,2.479,0,0,1-.554-1.723V607.13h-.885v-1.749h.885v-1.566Z" transform="translate(-1232.625 -602.196)" fill="#fff"/>
      <path id="Path_79403" data-name="Path 79403" d="M1451.216,587.592v2.049H1449.1v-2.049Zm0,3.146v6.239H1449.1v-6.239Z" transform="translate(-1356.191 -587.553)" fill="#fff"/>
      <path id="Path_79404" data-name="Path 79404" d="M1544.311,625.754a1.658,1.658,0,0,1-1.1.392h-4.588a1.608,1.608,0,0,1-1.12-.4,1.258,1.258,0,0,1-.448-.966V621.29a1.285,1.285,0,0,1,.454-.959,1.528,1.528,0,0,1,1.079-.424h4.611a1.626,1.626,0,0,1,1.132.4,1.3,1.3,0,0,1,.448,1v3.459A1.227,1.227,0,0,1,1544.311,625.754Zm-1.8-3.942a.764.764,0,0,0-.513-.156h-2.1a.843.843,0,0,0-.56.15.535.535,0,0,0-.171.424v1.579a.522.522,0,0,0,.171.45.973.973,0,0,0,.56.124h2.1a.777.777,0,0,0,.531-.15.545.545,0,0,0,.165-.424v-1.579A.523.523,0,0,0,1542.507,621.812Z" transform="translate(-1435.577 -616.721)" fill="#fff"/>
      <path id="Path_79405" data-name="Path 79405" d="M1688.412,622.256a.6.6,0,0,0-.154-.457.777.777,0,0,0-.532-.143h-2.106q-.722,0-.722.574v3.916h-2.111v-6.239h2.111v.77a1.381,1.381,0,0,1,.566-.561,1.748,1.748,0,0,1,.861-.209h2.618a1.666,1.666,0,0,1,1.1.392,1.222,1.222,0,0,1,.472.979v4.869h-2.1Z" transform="translate(-1567.125 -616.721)" fill="#fff"/>
    </g>
    <path id="Path_79406" data-name="Path 79406" d="M129.944,398.214h6.3l-3.631-5.952c2.059-.735,3.289-.288,4.35,1.528,2.765,4.736,5.73,9.355,8.859,14.415,1.755-2.759,3.308-5.208,4.869-7.653,1.366-2.14,1.37-2.138,4.473-1.425l-9.344,14.784c-2.25-3.729-4.358-7.044-6.268-10.47-.9-1.62-1.971-2.278-4.09-1.574.755,1.351,1.477,2.665,2.219,3.967,1.841,3.233,3.617,6.506,5.558,9.679,1.818,2.972,2.89,3.066,4.746.223,3.259-4.992,6.362-10.089,9.419-15.208,1.355-2.268-.04-4.531-2.781-4.674-3.715-.195-7.436-.3-11.154-.445-2.638-.106-2.744-.2-3.6-2.727,5.2,0,10.538-.288,15.83.091,4.236.3,6.258,5.451,3.961,9.425-2.676,4.63-5.467,9.194-8.246,13.764a17.009,17.009,0,0,1-2.731,3.931c-2.569,2.317-5.142,1.774-6.895-1.2q-3.286-5.585-6.532-11.194C133.553,404.555,131.88,401.6,129.944,398.214Z" transform="translate(0 0)" fill="#fff"/>
  </g>
</svg>
