<svg xmlns="http://www.w3.org/2000/svg" width="148.206" height="120.688" viewBox="0 0 148.206 120.688">
  <g id="Group_46337" data-name="Group 46337" transform="translate(-2586.786 1060)">
    <path id="Path_80429" data-name="Path 80429" d="M2731.571-1035.966c-3.737-9.636-11.942-16.883-19.929-14.659-4.782,1.331-9.535,5.8-14.12,3.555-3.3-1.616-5.17-6.2-7.948-9.074-4.276-4.426-10.345-4.374-15.556-2.391s-9.981,5.629-15.129,7.884a30.771,30.771,0,0,1-27.136-1.156c-3.762-2.011-7.284-4.786-11.114-6.557s-8.174-2.458-11.871-.244-6.35,8.005-5.067,13.116a10.665,10.665,0,0,1,.6,3.095,3.753,3.753,0,0,1-2.6,3.36,14.846,14.846,0,0,1-3.878.176c-5.817.2-11.015,7.245-11.043,14.975-.023,6.41,2.953,12.042,5.5,17.489s4.831,11.981,3.315,18.067c-.9,3.609-3.007,6.431-4.388,9.76-3.581,8.63-1.667,20.054,3.333,27.333a27.471,27.471,0,0,0,19.879,11.689c7.39.848,14.8-.744,22.125-2.317s14.74-3.138,22.127-2.237l-.4-.287a91.635,91.635,0,0,0,44.269,3.335c3.086-.531,6.629-1.674,7.934-5.428,1.1-3.169.113-6.883.339-10.361.327-5.011,3.157-9.116,6.244-12.029s6.588-5.082,9.369-8.5c5.44-6.678,7.286-17.015,8.1-26.795C2735.423-1014.936,2735.308-1026.329,2731.571-1035.966Z" fill="#fff" opacity="0.23"/>
    <g id="Group_41353" data-name="Group 41353" transform="translate(2603.538 -1045.439)">
      <path id="Path_80430" data-name="Path 80430" d="M3403,124.646c-1.522,1.032-2.84,2.31-.854,3.442.747.426,2.548,1.016,3.7,1.758,1.9,1.231,2.943,2.533,4.509,2.771a2.613,2.613,0,0,0,2.533-1.588c1.237-2.331.625-3.445-1.42-4.164-.965-.339-2.457-1.665-3.889-2.425A4.06,4.06,0,0,0,3403,124.646Z" transform="translate(-3350.887 -40.988)" fill="#4365d1" opacity="0.6"/>
      <path id="Path_80431" data-name="Path 80431" d="M3061.451-11.425c-1.522,1.032-2.953,2.064-.967,3.2.747.426,2.9.349,4.044,1.091,1.905,1.23,2.735,2.373,4.187,3.006,1.642.717,4.661-.846,1.2-5.074-.647-.791-2.7-1.423-4.133-2.183C3064.177-12.24,3062.973-12.458,3061.451-11.425Z" transform="translate(-3037.366 83.776)" fill="#4365d1" opacity="0.6"/>
      <path id="Path_80432" data-name="Path 80432" d="M3259.6,121.084c1.522,1.032,2.84,2.31.854,3.442-.747.426-2.548,1.017-3.7,1.758-1.9,1.23-2.943,2.533-4.509,2.771a2.612,2.612,0,0,1-2.533-1.588c-1.237-2.331-.625-3.446,1.42-4.164.965-.339,2.457-1.665,3.889-2.425A4.06,4.06,0,0,1,3259.6,121.084Z" transform="translate(-3211.336 -37.719)" fill="#4365d1" opacity="0.6"/>
      <path id="Path_80433" data-name="Path 80433" d="M2830.414-54.192c-1.357-.92-2.43-.726-3.86.033-1.276.677-3.106,1.241-3.683,1.946a6.329,6.329,0,0,0-1.336,2.373,5.1,5.1,0,0,0-3.256.562c-1,.576-4.078,1.457-3.771,2.9a3.179,3.179,0,0,0,3.121,2.452c1.334-.1,5.467-2.339,6.32-3.3a1.914,1.914,0,0,0,.46-.709c1.028-.588,1.78-1.485,3.263-2.443,1.023-.661,2.938-.592,3.6-.972C2833.046-52.352,2831.771-53.272,2830.414-54.192Z" transform="translate(-2812.503 122.955)" fill="#4365d1" opacity="0.6"/>
      <ellipse id="Ellipse_134" data-name="Ellipse 134" cx="24.716" cy="46.865" rx="24.716" ry="46.865" transform="matrix(0.239, -0.971, 0.971, 0.239, 10.878, 58.811)" fill="#4365d1" opacity="0.6"/>
      <path id="Path_80434" data-name="Path 80434" d="M3751.906,49.485l-7.895-4.558,10.439-6.05,7.895,4.558Z" transform="translate(-3665.545 36.979)" fill="#4365d1" opacity="0.6"/>
      <g id="Group_41331" data-name="Group 41331" transform="translate(11.922 0)">
        <g id="Group_41308" data-name="Group 41308" transform="translate(0)">
          <path id="Path_80435" data-name="Path 80435" d="M3090.068-630.064c0-.046-.015-10.071-.015-10.071l-3.226.433c-3.008-4.639-8.073-9.242-15.056-13.274-19.906-11.493-47.841-14-62.4-5.594a21.658,21.658,0,0,0-4.046,2.967l-4.552-.063s-.018,10.37.015,10.91v0h0c.453,7.358,6.758,15.557,18.273,22.205,19.906,11.493,47.841,14,62.4,5.594,5.844-3.374,8.639-7.994,8.606-13.058h0Z" transform="translate(-2995.383 681.601)" fill="#fcc353"/>
          <g id="Group_41306" data-name="Group 41306" transform="translate(5.39 27.166)">
            <path id="Path_80436" data-name="Path 80436" d="M3090.064-533.918c-.013,5.016-2.806,9.589-8.6,12.936-14.554,8.4-42.49,5.9-62.4-5.595-11.515-6.648-17.82-14.847-18.273-22.205h0v0c-.013-.216-.018-2.011-.02-4.083,0,2.918,0,6.3.02,6.6v0h0c.453,7.358,6.758,15.557,18.273,22.205,19.906,11.493,47.841,14,62.4,5.594,5.844-3.374,8.639-7.994,8.606-13.058h0v-.053C3090.068-531.593,3090.066-532.574,3090.064-533.918Z" transform="translate(-3000.773 552.869)" fill="#fff"/>
          </g>
          <ellipse id="Ellipse_135" data-name="Ellipse 135" cx="24.05" cy="45.603" rx="24.05" ry="45.603" transform="matrix(0.239, -0.971, 0.971, 0.239, 0, 46.701)" fill="#ffd176"/>
          <g id="Group_41307" data-name="Group 41307" transform="translate(6.694 9.557)">
            <path id="Path_80437" data-name="Path 80437" d="M3073.508-717.907a82.242,82.242,0,0,1-39.029-10.174c-11.2-6.36-17.877-14.608-17.853-22.064.016-4.946,2.892-9.163,8.317-12.2,13.985-7.818,41.017-5.292,60.259,5.631,11.2,6.36,17.877,14.608,17.854,22.064-.016,4.946-2.892,9.163-8.317,12.2C3089.251-719.382,3081.753-717.907,3073.508-717.907Zm-27.333-48.53c-8.165,0-15.582,1.459-21.01,4.494-5.273,2.948-8.068,7.028-8.083,11.8-.023,7.289,6.564,15.389,17.622,21.666,19.119,10.854,45.95,13.38,59.811,5.63,5.273-2.948,8.068-7.028,8.083-11.8.024-7.289-6.564-15.389-17.623-21.666A81.781,81.781,0,0,0,3046.175-766.437Z" transform="translate(-3016.626 766.884)" fill="#fff"/>
          </g>
        </g>
        <g id="Group_41330" data-name="Group 41330" transform="translate(13.463 1.155)">
          <g id="Group_41326" data-name="Group 41326">
            <path id="Path_80438" data-name="Path 80438" d="M3550.045-389.954l1.824-1.044,5.578-4.009s-.835-2.008-3.708-1.736a5.361,5.361,0,0,0-4.458,4A6.718,6.718,0,0,0,3550.045-389.954Z" transform="translate(-3512.208 435.624)" fill="#ea4242"/>
            <path id="Path_80439" data-name="Path 80439" d="M3128.856-636.03l1.846-1.1,5.578-4.009s-.836-2.008-3.708-1.737a5.361,5.361,0,0,0-4.458,4A7.149,7.149,0,0,0,3128.856-636.03Z" transform="translate(-3125.694 661.505)" fill="#ea4242"/>
            <g id="Group_41309" data-name="Group 41309" transform="translate(49.679 13.326)">
              <path id="Path_80440" data-name="Path 80440" d="M3716.351-700.978a13.25,13.25,0,0,0-3.291,2.267c.538.851,1.444,2.219,1.714,2.218.392,0,1.8-1.557,2.343-2.917a1.594,1.594,0,0,0-.026-1.508A1.081,1.081,0,0,0,3716.351-700.978Z" transform="translate(-3712.204 701.513)" fill="#f95555"/>
              <path id="Path_80441" data-name="Path 80441" d="M3705.625-706.92c-1.009.514-2.971,1.893-2.971,1.893a3.45,3.45,0,0,1,.856.781,13.257,13.257,0,0,1,3.291-2.267,1.081,1.081,0,0,1,.74.06A1.721,1.721,0,0,0,3705.625-706.92Z" transform="translate(-3702.654 707.049)" fill="#ff7878"/>
            </g>
            <g id="Group_41313" data-name="Group 41313" transform="translate(37.979 40.129)">
              <g id="Group_41310" data-name="Group 41310" transform="translate(0.815)">
                <path id="Path_80442" data-name="Path 80442" d="M3582.928-372.312c0-3.254-1.979-7.034-4.419-8.443a4.051,4.051,0,0,0-1.93-.537,5.382,5.382,0,0,0-2.831.793,4.075,4.075,0,0,0-1.578,2.812l4.964,10.2a3.756,3.756,0,0,0,3.241-.115,5.086,5.086,0,0,0,1.92-2,6.982,6.982,0,0,0,.365-.848A6.014,6.014,0,0,0,3582.928-372.312Z" transform="translate(-3572.022 381.292)" fill="#3f1b44"/>
                <path id="Path_80443" data-name="Path 80443" d="M3570.374-363.311c0,3.254,1.978,7.034,4.418,8.443s4.418-.087,4.418-3.34-1.978-7.034-4.418-8.442S3570.374-366.565,3570.374-363.311Z" transform="translate(-3570.374 368.343)" fill="#4f2556"/>
                <path id="Path_80444" data-name="Path 80444" d="M3580.758-347.8c0,2.573,1.564,5.562,3.494,6.677s3.494-.068,3.494-2.642-1.564-5.563-3.494-6.677S3580.758-350.37,3580.758-347.8Z" transform="translate(-3579.903 353.362)" fill="#6e4977"/>
              </g>
              <g id="Group_41312" data-name="Group 41312" transform="translate(0 0.955)">
                <ellipse id="Ellipse_136" data-name="Ellipse 136" cx="3.203" cy="5.661" rx="3.203" ry="5.661" transform="matrix(0.92, -0.392, 0.392, 0.92, 0, 2.508)" fill="#fff"/>
                <g id="Group_41311" data-name="Group 41311" transform="translate(1.939 1.767)">
                  <path id="Path_80445" data-name="Path 80445" d="M3631.492-327.219c.08-.278.395-1.359.661-2.136a7.789,7.789,0,0,1,.853,1.252l-1.307,1.223A3.159,3.159,0,0,0,3631.492-327.219Z" transform="translate(-3627.587 330.906)" fill="#4f2556"/>
                  <path id="Path_80446" data-name="Path 80446" d="M3636.322-304.75c-.026-.1-.059-.2-.095-.306.089-.065.854-.614,1.457-.983a8.6,8.6,0,0,1,.5,1.458l-1.842-.119Z" transform="translate(-3631.933 309.508)" fill="#4f2556"/>
                  <path id="Path_80447" data-name="Path 80447" d="M3638.293-284.724c0-.07-.009-.143-.015-.215.2.063,1.192.372,1.951.654a6.376,6.376,0,0,1,.044.7,5.1,5.1,0,0,1-.045.662l-1.945-1.667C3638.285-284.633,3638.293-284.675,3638.293-284.724Z" transform="translate(-3633.814 290.145)" fill="#4f2556"/>
                  <path id="Path_80448" data-name="Path 80448" d="M3635.842-275.149c.235.217,1.193,1.107,1.91,1.816a2.6,2.6,0,0,1-.475.935l-1.564-2.519A.949.949,0,0,0,3635.842-275.149Z" transform="translate(-3631.462 281.16)" fill="#4f2556"/>
                  <path id="Path_80449" data-name="Path 80449" d="M3586.029-328.853c-.18-.094-1.21-.636-1.992-1.093a4.173,4.173,0,0,1,.211-1.2l1.849,2.009A1.457,1.457,0,0,0,3586.029-328.853Z" transform="translate(-3584.037 332.551)" fill="#4f2556"/>
                  <path id="Path_80450" data-name="Path 80450" d="M3591.5-342.793c-.182-.232-1.078-1.375-1.744-2.274a1.86,1.86,0,0,1,.662-.651l1.255,2.771A.692.692,0,0,0,3591.5-342.793Z" transform="translate(-3589.287 345.924)" fill="#4f2556"/>
                  <path id="Path_80451" data-name="Path 80451" d="M3605.048-345.32c-.142-.387-.655-1.794-1.014-2.861a2.031,2.031,0,0,1,.972.089l.3,2.79A.765.765,0,0,0,3605.048-345.32Z" transform="translate(-3602.388 348.205)" fill="#4f2556"/>
                  <path id="Path_80452" data-name="Path 80452" d="M3622.32-341.331c-.027-.365-.125-1.728-.167-2.74.03.016.058.028.088.045a4.741,4.741,0,0,1,.933.722l-.59,2.186A1.887,1.887,0,0,0,3622.32-341.331Z" transform="translate(-3619.017 344.411)" fill="#4f2556"/>
                  <path id="Path_80453" data-name="Path 80453" d="M3592.423-287.249c-.137.212-.665,1.027-1.088,1.6a8.654,8.654,0,0,1-.7-1.4l1.627-.571A3.386,3.386,0,0,0,3592.423-287.249Z" transform="translate(-3590.09 292.606)" fill="#4f2556"/>
                  <path id="Path_80454" data-name="Path 80454" d="M3586.243-306.222a2.771,2.771,0,0,0,.055.357c-.144.03-1.041.213-1.738.3a7.585,7.585,0,0,1-.284-1.462Z" transform="translate(-3584.256 310.412)" fill="#4f2556"/>
                  <path id="Path_80455" data-name="Path 80455" d="M3630.04-269.73a.623.623,0,0,0,.2-.054c.115.19.933,1.551,1.53,2.6a1.615,1.615,0,0,1-.816.326l-.922-2.869Z" transform="translate(-3626.244 276.237)" fill="#4f2556"/>
                  <path id="Path_80456" data-name="Path 80456" d="M3621.924-270.522c.071.331.376,1.771.579,2.861a2.9,2.9,0,0,1-.876-.341c-.048-.028-.1-.062-.144-.093l.178-2.531A1.134,1.134,0,0,0,3621.924-270.522Z" transform="translate(-3618.402 277.009)" fill="#4f2556"/>
                  <path id="Path_80457" data-name="Path 80457" d="M3604.842-277.229c-.033.3-.173,1.536-.31,2.444a6.311,6.311,0,0,1-.957-1.044l1.023-1.675A2.489,2.489,0,0,0,3604.842-277.229Z" transform="translate(-3601.967 283.32)" fill="#4f2556"/>
                </g>
                <path id="Path_80458" data-name="Path 80458" d="M3611.678-307.082a2.276,2.276,0,0,0,.95,1.816c.525.3.95-.019.95-.718a2.277,2.277,0,0,0-.95-1.816C3612.1-308.1,3611.678-307.782,3611.678-307.082Z" transform="translate(-3607.464 312.997)" fill="#6e4977"/>
                <path id="Path_80459" data-name="Path 80459" d="M3615.257-298.985a1.226,1.226,0,0,0,.512.979c.283.163.512-.01.512-.387a1.226,1.226,0,0,0-.512-.979C3615.486-299.536,3615.257-299.363,3615.257-298.985Z" transform="translate(-3610.749 305.214)" fill="#916a9b"/>
              </g>
            </g>
            <g id="Group_41317" data-name="Group 41317" transform="translate(2.359 19.523)">
              <g id="Group_41314" data-name="Group 41314" transform="translate(0 0)">
                <path id="Path_80460" data-name="Path 80460" d="M3161.6-620.779c0-3.254-1.978-7.034-4.418-8.442a4.053,4.053,0,0,0-1.93-.537,5.38,5.38,0,0,0-2.831.793,4.075,4.075,0,0,0-1.578,2.812l4.964,10.2a3.757,3.757,0,0,0,3.241-.115,5.086,5.086,0,0,0,1.92-2,6.939,6.939,0,0,0,.365-.848A6.021,6.021,0,0,0,3161.6-620.779Z" transform="translate(-3148.927 629.921)" fill="#3f1b44"/>
                <ellipse id="Ellipse_137" data-name="Ellipse 137" cx="3.838" cy="6.783" rx="3.838" ry="6.783" transform="translate(0 3.005) rotate(-23.051)" fill="#4f2556"/>
                <path id="Path_80461" data-name="Path 80461" d="M3159.432-596.263c0,2.573,1.564,5.562,3.495,6.677s3.494-.069,3.494-2.642-1.564-5.562-3.494-6.677S3159.432-598.837,3159.432-596.263Z" transform="translate(-3156.809 601.99)" fill="#6e4977"/>
              </g>
              <g id="Group_41316" data-name="Group 41316" transform="translate(2.43 2.221)">
                <path id="Path_80462" data-name="Path 80462" d="M3157.082-601.5c0,2.716,1.651,5.87,3.688,7.046s3.688-.072,3.688-2.788-1.651-5.87-3.688-7.046S3157.082-604.218,3157.082-601.5Z" transform="translate(-3157.082 604.733)" fill="#fff"/>
                <g id="Group_41315" data-name="Group 41315" transform="translate(0.463 0.663)">
                  <path id="Path_80463" data-name="Path 80463" d="M3210.166-575.686c.08-.278.395-1.359.661-2.136a7.788,7.788,0,0,1,.853,1.252l-1.307,1.223A3.181,3.181,0,0,0,3210.166-575.686Z" transform="translate(-3206.261 579.373)" fill="#4f2556"/>
                  <path id="Path_80464" data-name="Path 80464" d="M3215-553.217c-.026-.1-.059-.2-.1-.306.09-.065.854-.614,1.457-.983a8.553,8.553,0,0,1,.5,1.458l-1.842-.119Z" transform="translate(-3210.606 557.975)" fill="#4f2556"/>
                  <path id="Path_80465" data-name="Path 80465" d="M3216.966-533.191c0-.07-.009-.143-.016-.215.2.063,1.192.372,1.951.654a6.376,6.376,0,0,1,.044.7,5.1,5.1,0,0,1-.045.662l-1.945-1.667C3216.958-533.1,3216.966-533.142,3216.966-533.191Z" transform="translate(-3212.488 538.612)" fill="#4f2556"/>
                  <path id="Path_80466" data-name="Path 80466" d="M3214.516-523.616c.235.217,1.193,1.107,1.91,1.816a2.6,2.6,0,0,1-.475.935l-1.564-2.519A.95.95,0,0,0,3214.516-523.616Z" transform="translate(-3210.136 529.627)" fill="#4f2556"/>
                  <path id="Path_80467" data-name="Path 80467" d="M3164.7-577.32c-.18-.094-1.21-.636-1.992-1.093a4.182,4.182,0,0,1,.211-1.2l1.849,2.009A1.458,1.458,0,0,0,3164.7-577.32Z" transform="translate(-3162.711 581.018)" fill="#4f2556"/>
                  <path id="Path_80468" data-name="Path 80468" d="M3170.175-591.26c-.182-.232-1.078-1.375-1.744-2.274a1.856,1.856,0,0,1,.662-.651l1.255,2.772A.685.685,0,0,0,3170.175-591.26Z" transform="translate(-3167.96 594.391)" fill="#4f2556"/>
                  <path id="Path_80469" data-name="Path 80469" d="M3183.722-593.787c-.142-.387-.654-1.794-1.014-2.861a2.034,2.034,0,0,1,.972.089l.3,2.79A.766.766,0,0,0,3183.722-593.787Z" transform="translate(-3181.063 596.672)" fill="#4f2556"/>
                  <path id="Path_80470" data-name="Path 80470" d="M3200.994-589.8c-.027-.365-.125-1.728-.167-2.74.03.016.059.028.088.045a4.746,4.746,0,0,1,.933.722l-.59,2.186A1.886,1.886,0,0,0,3200.994-589.8Z" transform="translate(-3197.69 592.878)" fill="#4f2556"/>
                  <path id="Path_80471" data-name="Path 80471" d="M3171.1-535.716c-.136.212-.665,1.027-1.088,1.6a8.671,8.671,0,0,1-.7-1.4l1.627-.571A3.428,3.428,0,0,0,3171.1-535.716Z" transform="translate(-3168.762 541.073)" fill="#4f2556"/>
                  <path id="Path_80472" data-name="Path 80472" d="M3164.917-554.688a2.77,2.77,0,0,0,.055.357c-.144.03-1.041.213-1.738.3a7.6,7.6,0,0,1-.284-1.461Z" transform="translate(-3162.93 558.878)" fill="#4f2556"/>
                  <path id="Path_80473" data-name="Path 80473" d="M3208.714-518.2a.631.631,0,0,0,.2-.054c.115.19.933,1.551,1.53,2.6a1.616,1.616,0,0,1-.816.326l-.922-2.869Z" transform="translate(-3204.918 524.704)" fill="#4f2556"/>
                  <path id="Path_80474" data-name="Path 80474" d="M3200.6-518.988c.071.331.376,1.771.579,2.861a2.9,2.9,0,0,1-.876-.341c-.048-.028-.1-.062-.144-.093l.178-2.531A1.129,1.129,0,0,0,3200.6-518.988Z" transform="translate(-3197.075 525.475)" fill="#4f2556"/>
                  <path id="Path_80475" data-name="Path 80475" d="M3183.516-525.7c-.033.3-.173,1.535-.31,2.444a6.311,6.311,0,0,1-.957-1.044l1.023-1.675A2.478,2.478,0,0,0,3183.516-525.7Z" transform="translate(-3180.641 531.787)" fill="#4f2556"/>
                </g>
                <path id="Path_80476" data-name="Path 80476" d="M3190.351-555.549a2.276,2.276,0,0,0,.95,1.816c.525.3.95-.019.95-.718a2.275,2.275,0,0,0-.95-1.816C3190.776-556.57,3190.351-556.249,3190.351-555.549Z" transform="translate(-3187.614 560.36)" fill="#6e4977"/>
                <path id="Path_80477" data-name="Path 80477" d="M3193.931-547.452a1.227,1.227,0,0,0,.512.979c.283.163.512-.01.512-.387a1.227,1.227,0,0,0-.512-.979C3194.16-548,3193.931-547.83,3193.931-547.452Z" transform="translate(-3190.899 552.577)" fill="#916a9b"/>
              </g>
            </g>
            <g id="Group_41318" data-name="Group 41318" transform="translate(3.031)">
              <path id="Path_80478" data-name="Path 80478" d="M3191.837-822.615a3.758,3.758,0,0,1-2.974-.65,13.568,13.568,0,0,1-2.132-2.831,41.844,41.844,0,0,0-2.78-3.374,41.922,41.922,0,0,0-13.256-9.5c-.234.024-.4-.316-.154-.438q4.808-2.383,9.384-5.195c2.846-1.758,5.531-3.721,8.287-5.6-.022-.021-.047-.041-.068-.062-1.9-1.856-4.258-5.526-6.585-8.72a15.426,15.426,0,0,0-4.5-4.275,80.6,80.6,0,0,0-8.53-4.47,12.935,12.935,0,0,0-3.742-1.266c-1.253.014-6,.612-6.915.622a3.114,3.114,0,0,0-1.591.4h0l-20.555,11.854,1.694,3.014s15.984,11.872,20.8,16.433,16.872,5.513,20.995,9.065,7.335,12.359,7.335,12.359l20.274-11.67v0a1.593,1.593,0,0,0,.718-.9,8.605,8.605,0,0,0,.138-3.539c-1.549,1.037-3.247,2.022-4.807,2.984A80.31,80.31,0,0,1,3191.837-822.615Z" transform="translate(-3135.722 869)" fill="#f95555"/>
              <path id="Path_80479" data-name="Path 80479" d="M3584.149-635.273c-3.907-2.373-7.43-3.9-8.946-5.326-2.756,1.883-5.441,3.846-8.287,5.6q-4.566,2.82-9.384,5.195c-.247.122-.08.461.154.438a41.921,41.921,0,0,1,13.256,9.5,41.855,41.855,0,0,1,2.78,3.374,13.567,13.567,0,0,0,2.132,2.831,3.758,3.758,0,0,0,2.974.65,80.3,80.3,0,0,0,11.037-5.767c1.559-.962,3.258-1.947,4.807-2.984a13.725,13.725,0,0,0-.973-3.283C3591.964-629.1,3589.111-632.259,3584.149-635.273Z" transform="translate(-3522.712 659.392)" fill="#ff7878"/>
            </g>
            <g id="Group_41319" data-name="Group 41319" transform="translate(0 11.755)">
              <path id="Path_80480" data-name="Path 80480" d="M3152.506-691.787c-1.733-4.058-4.586-7.216-9.549-10.231-3.963-2.407-7.536-3.939-9.015-5.388-1.9-1.856-4.258-5.526-6.585-8.721a15.436,15.436,0,0,0-4.5-4.275,80.679,80.679,0,0,0-8.53-4.469,12.93,12.93,0,0,0-3.742-1.266c-1.253.015-6,.612-6.915.622-1.692.019-2.416.925-3.215,2.3a13.794,13.794,0,0,0-1.185,3.648,17.432,17.432,0,0,0-.372,3.71,19.017,19.017,0,0,0,2.9,3.209c0-.075-.008-.152-.008-.226,0-4.916,2.989-7.176,6.676-5.047s6.676,7.84,6.676,12.756c0,.207-.013.4-.023.6l21.352,12.2c-.006-.153-.017-.308-.017-.46,0-4.916,2.989-7.176,6.676-5.047s6.676,7.84,6.676,12.756c0,.157-.011.3-.018.454l1.553.916a1.912,1.912,0,0,0,2-1.22A10.431,10.431,0,0,0,3152.506-691.787Z" transform="translate(-3098.886 726.137)" fill="#ea4242"/>
              <path id="Path_80481" data-name="Path 80481" d="M3140.906-635.241c-3.687-2.129-6.676.131-6.676,5.047,0,.075.007.151.008.226l.246.232c0-.03,0-.06,0-.09,0-4.484,2.726-6.545,6.089-4.6s6.089,7.15,6.089,11.634c0,.134-.01.258-.015.387l.915.523c.01-.2.023-.394.023-.6C3147.582-627.4,3144.593-633.112,3140.906-635.241Z" transform="translate(-3131.322 643.455)" fill="#db3131"/>
              <path id="Path_80482" data-name="Path 80482" d="M3562.186-391.534c-3.687-2.129-6.676.131-6.676,5.047,0,.152.011.306.017.46l.249.142c0-.09-.01-.181-.01-.27,0-4.484,2.726-6.545,6.089-4.6s6.089,7.15,6.089,11.634c0,.091-.008.174-.01.262l.91.537c.006-.151.018-.3.018-.454C3568.862-383.695,3565.873-389.406,3562.186-391.534Z" transform="translate(-3517.938 419.801)" fill="#db3131"/>
            </g>
            <g id="Group_41320" data-name="Group 41320" transform="translate(28.288 8.788)">
              <path id="Path_80483" data-name="Path 80483" d="M3460.729-754.7a46.231,46.231,0,0,1-5.2,3.406c-4.387,2.533-12.841,6.738-12.841,6.738s1.942,2.712,2.622,3.679c.88,1.252,3.616,5.2,3.616,5.2,3.458-3.028,14.965-9.7,17.239-10.9A95.888,95.888,0,0,0,3460.729-754.7Z" transform="translate(-3442.685 755.321)" fill="#bbd9f9"/>
              <path id="Path_80484" data-name="Path 80484" d="M3531.112-747.307c5.96-3.448,6.826-4.733,6.826-4.733l-6.891-10.15s-.231.216-.746.616a95.933,95.933,0,0,1,5.433,8.117c-2.274,1.2-13.781,7.874-17.24,10.9l.874,1.092A102.553,102.553,0,0,0,3531.112-747.307Z" transform="translate(-3512.258 762.191)" fill="#95bfe5"/>
              <path id="Path_80485" data-name="Path 80485" d="M3443.148-750.784s9.275-1.671,14.267-3.848c5.78-2.521,6.892-3.387,6.892-3.387l-2.832-4.172a74.7,74.7,0,0,1-6.917,4.572c-2.441,1.428-11.872,6.187-11.872,6.187Z" transform="translate(-3442.685 762.191)" fill="#fff" opacity="0.5"/>
            </g>
            <path id="Path_80486" data-name="Path 80486" d="M3448.4-742.4s-3.634-4.555-4.437-5.654c-.626-.857-2.022-2.74-2.668-3.67a.95.95,0,0,1,.169-1.183,6.854,6.854,0,0,1,.893-.475c.93-.423,8.838-4.482,11.84-6.258s5.159-3.252,5.54-3.486.66,0,1.438.992c.927,1.182,6,9.013,6,9.013l-.208.146s-4.126-5.716-4.718-6.664a14.564,14.564,0,0,0-2.093-2.87c-.381-.216-4.422,2.87-8.089,4.9s-9.249,4.451-9.841,4.847-.3.608.423,1.792,4.378,6,4.874,6.766c.246.377.922,1.367,1.078,1.722A.621.621,0,0,1,3448.4-742.4Z" transform="translate(-3413.003 771.916)" fill="#4f2556"/>
            <g id="Group_41321" data-name="Group 41321" transform="translate(9.386 12.85)">
              <path id="Path_80487" data-name="Path 80487" d="M3245.229-684.559c-2.656-1.535-5.226-3.194-7.977-4.579a41.235,41.235,0,0,0-5.128-2.362c-2.489-.844-2.758,1.938-2.833,3.806,1.444.829,3.685,2.091,5,2.824,2.85,1.589,9.064,5.164,11.068,6.268.722.4,1.491.823,2.22,1.226v-3.574C3246.7-682.359,3245.827-683.715,3245.229-684.559Z" transform="translate(-3227.947 693.399)" fill="#95bfe5"/>
              <path id="Path_80488" data-name="Path 80488" d="M3217.131-710.936a41.242,41.242,0,0,1,5.128,2.362c2.751,1.385,5.32,3.045,7.977,4.579-.09-.126-.174-.242-.25-.344a15.051,15.051,0,0,0-4.821-4.059c-1.277-.768-3.984-2.127-5.264-2.794a12.4,12.4,0,0,0-4.3-1.642,4.481,4.481,0,0,0-2.615,1.293l-.032,3.619c.122.084.639.387,1.344.792C3214.373-709,3214.642-711.78,3217.131-710.936Z" transform="translate(-3212.954 712.834)" fill="#74a9d1"/>
            </g>
            <path id="Path_80489" data-name="Path 80489" d="M3465.434-515.456a6.621,6.621,0,0,0,2.3.14.66.66,0,0,0-.146-1.152,5.769,5.769,0,0,0-1.641,0Z" transform="translate(-3435.274 545.536)" fill="#4f2556"/>
            <path id="Path_80490" data-name="Path 80490" d="M3253.409-705.722s.216,5.252-.056,8.354-2.5-1.18-2.5-1.18l1.085-7.869Z" transform="translate(-3238.353 719.794)" fill="#ea4242"/>
            <path id="Path_80491" data-name="Path 80491" d="M3264.135-702.346l-.677,8.626.486.465.465-9.028Z" transform="translate(-3249.917 716.058)" fill="#db3131"/>
            <path id="Path_80492" data-name="Path 80492" d="M3232.586-702.318a44.107,44.107,0,0,0-4-5.664,30.2,30.2,0,0,0-6.708-4.266c-3.045-1.522-5.788-2.823-6.422-2.68a12.012,12.012,0,0,0-2.472,1.284l-.034,3.79.436.263.041-3.752a6.553,6.553,0,0,1,2.014-1.11c.666-.111,2.751.864,5.264,2.141a51.3,51.3,0,0,1,6.945,4.123c1.547,1.4,4.932,6.529,4.932,6.529Z" transform="translate(-3203.568 727.615)" fill="#4f2556"/>
            <g id="Group_41323" data-name="Group 41323" transform="translate(58.779 39.627)">
              <g id="Group_41322" data-name="Group 41322">
                <path id="Path_80493" data-name="Path 80493" d="M3831.354-387.39a2.105,2.105,0,0,1,.034.488c-.041,1.344-.14,2.265-.922,2.821s-4.022,2.458-6.817,4.029c-1.938,1.089-2.9,1.084-3.434.76.394.624,1.215,1.195,3.881-.3,2.8-1.571,6.036-3.472,6.818-4.029s.881-1.477.922-2.821C3831.856-387.15,3831.655-387.389,3831.354-387.39Z" transform="translate(-3819.642 387.39)" fill="#4f2556"/>
                <path id="Path_80494" data-name="Path 80494" d="M3817.262-380.052c2.8-1.571,6.036-3.472,6.818-4.029s.881-1.477.922-2.821a2.133,2.133,0,0,0-.034-.488,2.1,2.1,0,0,0-.972.415c-2.454,1.589-9.081,5.269-10.223,5.794-1.038.477-.231,1.395,0,1.8.017.03.036.06.055.09C3814.361-378.968,3815.324-378.963,3817.262-380.052Z" transform="translate(-3813.255 387.39)" fill="#3f1b44"/>
              </g>
              <path id="Path_80495" data-name="Path 80495" d="M3825.369-383.329c-1.664,1-3.2,2.088-5.168,3.2-2.091,1.184-4.583,2.406-6.738,3.5a2.19,2.19,0,0,0,.093.281,50.981,50.981,0,0,0,6.83-3.361c1.875-1.132,3.4-2,5-3.143C3825.374-383.009,3825.367-383.17,3825.369-383.329Z" transform="translate(-3813.446 383.663)" fill="#4f2556"/>
              <path id="Path_80496" data-name="Path 80496" d="M3830.572-369.092c-1.575.961-3.062,2-4.934,3.059-2.017,1.142-4.407,2.32-6.508,3.387a1.529,1.529,0,0,0,.181.279,53.532,53.532,0,0,0,6.512-3.243c1.74-1.05,3.177-1.874,4.648-2.9A5.5,5.5,0,0,0,3830.572-369.092Z" transform="translate(-3818.646 370.598)" fill="#4f2556"/>
            </g>
            <path id="Path_80497" data-name="Path 80497" d="M3571.465-495.726c-1.73-3-4.8-5.594-7.5-7.7a58.992,58.992,0,0,0-9.151-5.833.151.151,0,0,0-.152.26c2.884,2.178,6.088,3.9,8.943,6.145a46.076,46.076,0,0,1,4.076,3.271,21.545,21.545,0,0,1,3.386,4.113C3571.174-495.295,3571.562-495.558,3571.465-495.726Z" transform="translate(-3517.101 538.876)" fill="#db3131"/>
            <path id="Path_80498" data-name="Path 80498" d="M3786.338-615.981c-1.73-3-4.8-5.594-7.5-7.7a58.981,58.981,0,0,0-9.151-5.833.151.151,0,0,0-.152.26c2.885,2.178,6.088,3.9,8.943,6.145a46.083,46.083,0,0,1,4.076,3.271,21.542,21.542,0,0,1,3.386,4.113C3786.047-615.55,3786.435-615.813,3786.338-615.981Z" transform="translate(-3714.294 649.236)" fill="#db3131"/>
            <path id="Path_80499" data-name="Path 80499" d="M3746.436-353.359l2.583-1.449a13.935,13.935,0,0,1,1.991,3.16,9.344,9.344,0,0,1,.592,3.9l-2.664,1.609a11.546,11.546,0,0,0-.7-4.016A8.268,8.268,0,0,0,3746.436-353.359Z" transform="translate(-3693.155 397.116)" fill="#fff"/>
            <path id="Path_80500" data-name="Path 80500" d="M3942.495-464.241l2.583-1.449a21.572,21.572,0,0,1,1.674,3.161,9.352,9.352,0,0,1,.592,3.9l-2.664,1.609a11.546,11.546,0,0,0-.7-4.016A14.551,14.551,0,0,0,3942.495-464.241Z" transform="translate(-3873.082 498.875)" fill="#fff"/>
            <path id="Path_80501" data-name="Path 80501" d="M3665.852-483.162a84.475,84.475,0,0,1,7.928,4.87,32.814,32.814,0,0,1,4.773,4.471,14.1,14.1,0,0,0,2.68-1.571c-.627-1.066-3.094-2.9-6.438-4.746C3671.937-481.715,3665.852-483.162,3665.852-483.162Z" transform="translate(-3619.201 514.909)" fill="#f95555"/>
            <path id="Path_80502" data-name="Path 80502" d="M3811.546-566.416a34.806,34.806,0,0,1,4.192,7.067,48.6,48.6,0,0,1,2.245,5.779c1.078-.535,2.4-1.326,2.4-1.326a44,44,0,0,0-5.031-8.073A16.321,16.321,0,0,0,3811.546-566.416Z" transform="translate(-3752.907 591.313)" fill="#f95555"/>
            <path id="Path_80503" data-name="Path 80503" d="M3678.705-611.085c-1.567,1.073-4.717,3.2-7.774,5.118a.327.327,0,0,0,.163.6,12.527,12.527,0,0,0,8.279-2.551C3681.552-609.52,3678.71-611.081,3678.705-611.085Z" transform="translate(-3623.72 632.307)" fill="#fff" opacity="0.5"/>
            <path id="Path_80504" data-name="Path 80504" d="M3345.992-866.261l-14.025,8.027s2.862-.8,6.5-1.576a25.586,25.586,0,0,1,7.586-.4c6.565.476,11.276,2.88,13.789,1.583-1.157-1.391-4.546-3.351-7.556-4.851C3349.129-865.048,3345.992-866.261,3345.992-866.261Z" transform="translate(-3312.789 866.486)" fill="#ff7878"/>
            <path id="Path_80505" data-name="Path 80505" d="M3466.333-850.021c-.014-.173-.4-.5-.463-.521a2.674,2.674,0,0,0-2.4.437,7.944,7.944,0,0,0-2.026,1.563c-.24.3-.38.6.265.6a19.888,19.888,0,0,0,4.329-1.4C3466.375-849.559,3466.433-849.811,3466.333-850.021Z" transform="translate(-3431.428 852.187)" fill="#fff" opacity="0.5"/>
            <path id="Path_80506" data-name="Path 80506" d="M3283.736-550.588s2.56.973,9.6,4.661c5.576,2.92,7.919,4.122,12.915,8.562-1.564.54-1.775,3.34-1.775,3.34s-13.765-7.961-19.085-10.94A12.315,12.315,0,0,0,3283.736-550.588Z" transform="translate(-3268.526 576.787)" fill="#ff7878" opacity="0.5"/>
            <path id="Path_80507" data-name="Path 80507" d="M3437.58-510.93l-.677,8.626.5.266.455-8.829Z" transform="translate(-3409.09 540.393)" fill="#db3131"/>
            <path id="Path_80508" data-name="Path 80508" d="M3279.49-596.573c-.641-.248-1.058-.324-1.175.055-.164.535.6.926.867,1.068.622.326,1.4.9,1.71.266S3280.009-596.372,3279.49-596.573Z" transform="translate(-3263.531 619.179)" fill="#4f2556"/>
            <g id="Group_41324" data-name="Group 41324" transform="translate(25.632 26.868)">
              <path id="Path_80509" data-name="Path 80509" d="M3412.384-539.731a14.436,14.436,0,0,1,3.593-2.358,2.243,2.243,0,0,0-.165-.17c-.511-.446-.912-.048-1.414.191a7.776,7.776,0,0,0-3.619,2.958c-.593,1.173-.493,1.974.437,2.09A3.02,3.02,0,0,1,3412.384-539.731Z" transform="translate(-3410.409 542.461)" fill="#ff7878"/>
              <path id="Path_80510" data-name="Path 80510" d="M3423.01-533.818c1.764-.835,2.181-2.022,1.977-2.995a2.4,2.4,0,0,0-.592-1.13,14.433,14.433,0,0,0-3.593,2.358,3.021,3.021,0,0,0-1.168,2.711A7.011,7.011,0,0,0,3423.01-533.818Z" transform="translate(-3418.827 538.314)" fill="#f95555"/>
            </g>
            <path id="Path_80511" data-name="Path 80511" d="M3285.472-478.978l21.888,12.4.252,1.175L3285.1-478.267Z" transform="translate(-3269.774 511.069)" fill="#db3131"/>
            <path id="Path_80512" data-name="Path 80512" d="M3220.641-860.117,3202.522-849.7l-4.333.4,17.834-10.257Z" transform="translate(-3190.018 860.848)" fill="#74a9d1"/>
            <g id="Group_41325" data-name="Group 41325" transform="translate(1.148 20.575)">
              <path id="Path_80513" data-name="Path 80513" d="M3743.945-260.981a9.335,9.335,0,0,0-.189,1.9c.011.184.249.154.315.031.273-.506.577-1.571.085-2.027C3744.076-261.151,3743.959-261.07,3743.945-260.981Z" transform="translate(-3691.838 290.549)" fill="#db3131"/>
              <path id="Path_80514" data-name="Path 80514" d="M3728.557-246.4c-.046-.06-.165-.051-.159.043a2.027,2.027,0,0,0,.6,1.415.144.144,0,0,0,.216-.124A2.848,2.848,0,0,0,3728.557-246.4Z" transform="translate(-3677.749 277.084)" fill="#db3131"/>
              <path id="Path_80515" data-name="Path 80515" d="M3316.9-506.7a6.581,6.581,0,0,1-.465.573c-.15.148-.281.221-.351.424a.145.145,0,0,0,.138.182c.463,0,.834-.643.906-1.046C3317.151-506.689,3317-506.821,3316.9-506.7Z" transform="translate(-3299.357 515.982)" fill="#db3131"/>
              <path id="Path_80516" data-name="Path 80516" d="M3330.313-498.217a6.146,6.146,0,0,1-.3-.925.148.148,0,0,0-.289.039c-.032.491.05,1.429.6,1.615a.13.13,0,0,0,.16-.091A1.058,1.058,0,0,0,3330.313-498.217Z" transform="translate(-3311.872 509.096)" fill="#db3131"/>
              <path id="Path_80517" data-name="Path 80517" d="M3529.743-369.639a2.516,2.516,0,0,0-.983.281c-.337.116-.679.2-1,.343a.11.11,0,0,0,.026.2c.587.115,1.773-.132,1.991-.784A.031.031,0,0,0,3529.743-369.639Z" transform="translate(-3493.567 390.156)" fill="#db3131"/>
              <path id="Path_80518" data-name="Path 80518" d="M3394.321-456.464a8.471,8.471,0,0,0-.615-1.035.113.113,0,0,0-.206.087,8.591,8.591,0,0,0,.322,1.159c.095.253.149.463.431.537a.139.139,0,0,0,.154-.063C3394.551-456.038,3394.441-456.212,3394.321-456.464Z" transform="translate(-3370.404 470.831)" fill="#db3131"/>
              <path id="Path_80519" data-name="Path 80519" d="M3453.577-416.7c-.124-.254-.281-.487-.386-.75-.093-.235-.136-.487-.229-.719-.023-.056-.111-.086-.144-.019a1.418,1.418,0,0,0,.548,1.7C3453.506-416.408,3453.641-416.573,3453.577-416.7Z" transform="translate(-3424.747 434.746)" fill="#db3131"/>
              <path id="Path_80520" data-name="Path 80520" d="M3476.32-413.255a4.591,4.591,0,0,0-1.036.6.186.186,0,0,0,.142.337,1.494,1.494,0,0,0,1-.827A.086.086,0,0,0,3476.32-413.255Z" transform="translate(-3445.385 430.183)" fill="#db3131"/>
              <path id="Path_80521" data-name="Path 80521" d="M3113.31-612.212a2.517,2.517,0,0,1-.02-.851c.011-.12-.147-.132-.2-.055-.368.5-.364,1.6.293,1.861.141.057.236-.1.219-.219C3113.561-611.735,3113.375-611.952,3113.31-612.212Z" transform="translate(-3112.84 613.643)" fill="#db3131"/>
              <path id="Path_80522" data-name="Path 80522" d="M3133.342-618.938a1.245,1.245,0,0,0-.536,1.62c.067.126.228.051.242-.065a3.676,3.676,0,0,1,.411-1.438A.086.086,0,0,0,3133.342-618.938Z" transform="translate(-3131.049 618.948)" fill="#db3131"/>
            </g>
            <path id="Path_80523" data-name="Path 80523" d="M3105.357-702.346s.606.8.841,1.066c.393.446-.007,1.186-.431,2.286-.372.965-.691,2.379-1.237,2.1a3.822,3.822,0,0,1-.979-.845,24.611,24.611,0,0,1,.764-2.737A5.7,5.7,0,0,1,3105.357-702.346Z" transform="translate(-3103.167 716.058)" fill="#fff"/>
          </g>
          <g id="Group_41329" data-name="Group 41329" transform="translate(12.687 2.64)">
            <path id="Path_80524" data-name="Path 80524" d="M3253.077-816.622s5.71-1.165,8.88-.952c2.6.175,13.136,5.409,15.235,7.022s6.311,9.54,7.778,11.377c2.146,2.688,11.357,7.711,13.887,10.665a24.881,24.881,0,0,1,3.564,5.935,45.519,45.519,0,0,1,2.146,6.561l3.174-1.935a48.362,48.362,0,0,0-2.368-6.944c-1.836-4.19-4.638-8.609-8.037-10.428-6.2-3.317-7.335-3.571-9.582-6.142s-3.765-7.523-7.848-11.213-12.938-7.107-15.03-7.187a28.18,28.18,0,0,0-7.073.515Z" transform="translate(-3253.077 821.289)" fill="#6b3faa"/>
            <path id="Path_80525" data-name="Path 80525" d="M3718.062-513.082l.063,5.429a6.785,6.785,0,0,0,2.321-.492,4.392,4.392,0,0,1,2.864.16s-1.347-5.288-2.54-6.283S3718.062-513.082,3718.062-513.082Z" transform="translate(-3679.802 541.054)" fill="#855cc6"/>
            <path id="Path_80526" data-name="Path 80526" d="M3756.387-514.094a30.86,30.86,0,0,1,2.81,2.354c1.254,1.216,2.775,2.651,2.775,2.651a13.125,13.125,0,0,0-1.178-2.041c-.608-.8-1.035-2.353-1.921-2.954a6.293,6.293,0,0,0-1.951-.829Z" transform="translate(-3714.974 541.408)" fill="#5e359e"/>
            <path id="Path_80527" data-name="Path 80527" d="M3753.571-529.281l5.47,4.249a6.246,6.246,0,0,1,2.287-3.751,18.621,18.621,0,0,0-4.78-1.278Z" transform="translate(-3712.39 555.309)" fill="#855cc6"/>
            <path id="Path_80528" data-name="Path 80528" d="M3734.185-504.355a8.784,8.784,0,0,0-.247,1.759c.011.656.627.929.7.3s.114-1.444.114-1.444.631,1.327.843,1.254c.437-.15.472-1.075.326-2.033-.094-.621-.185-1.359-.56-1.56C3734.413-506.588,3734.185-504.355,3734.185-504.355Z" transform="translate(-3694.371 533.367)" fill="#6b3faa"/>
            <path id="Path_80529" data-name="Path 80529" d="M3775.82-518.2a9.018,9.018,0,0,0,2.048,1.178c.968.342,1.309-.3,1.053-.589s-.366-.321-.366-.321.832.1,1.022-.151-.855-.66-.855-.66Z" transform="translate(-3732.808 544.927)" fill="#6b3faa"/>
            <path id="Path_80530" data-name="Path 80530" d="M3664.306-579.971s-2.55-.668-3.6-1.969-1.763-2.021-1.763-2.021a39.329,39.329,0,0,1,3.749,2.26c1.391.98,2.03,1.44,2.03,1.44Z" transform="translate(-3625.552 604.774)" fill="#5e359e"/>
            <path id="Path_80531" data-name="Path 80531" d="M3613.837-545.549a6.638,6.638,0,0,0-2.1.5c-.885.281-1.8.525-2.653.892-2.46,1.057-4.295,2.751-3,5.008,1.261.744,2.926,1.608,4.236,2.365a4.632,4.632,0,0,0,3.688-.91,11.21,11.21,0,0,0,2.741-3.3c.272-.464,1.186-2.38.576-3.364C3616.664-545.413,3614.445-545.531,3613.837-545.549Z" transform="translate(-3576.645 569.523)" fill="#855cc6"/>
            <path id="Path_80532" data-name="Path 80532" d="M3735.275-614.619a42.252,42.252,0,0,0-4.73-2.829c-.3-.154-1.2.338-1.5.522-.97.595-4.488,4.19-4.974,5.393-.023.056,3.177,2.877,3.448,3.01a2.33,2.33,0,0,0,1.37.145,13,13,0,0,0,3.857-1.46C3734.623-610.8,3736.272-612.373,3735.275-614.619Z" transform="translate(-3685.315 635.533)" fill="#855cc6"/>
            <g id="Group_41327" data-name="Group 41327" transform="translate(32.948 26.179)">
              <path id="Path_80533" data-name="Path 80533" d="M3660.516-506.694a7.194,7.194,0,0,1-1.918,1.778c-.3.189-1.006.753-1.348.3l0-.006a2.883,2.883,0,0,1-2.6.821.889.889,0,0,1-.66-1.109c-.693.987-.754,2.316.761,2.542,1.765.263,3.968-1.516,5.061-2.722a7.432,7.432,0,0,0,1.755-2.869,2.014,2.014,0,0,0-.1-.245A8.307,8.307,0,0,1,3660.516-506.694Z" transform="translate(-3653.514 509.069)" fill="#7450bc"/>
              <path id="Path_80534" data-name="Path 80534" d="M3659.629-513.477a2.884,2.884,0,0,0,2.6-.821l0,.006c.342.449,1.049-.114,1.348-.3a7.2,7.2,0,0,0,1.918-1.778,8.293,8.293,0,0,0,.943-1.507c-.008-.016-.012-.034-.021-.05a3.15,3.15,0,0,0-.746-.818,23.648,23.648,0,0,0-6.18,3.583,3.014,3.014,0,0,0-.53.58A.889.889,0,0,0,3659.629-513.477Z" transform="translate(-3658.5 518.748)" fill="#644dad"/>
              <path id="Path_80535" data-name="Path 80535" d="M3659.629-513.477a2.884,2.884,0,0,0,2.6-.821l0,.006c.342.449,1.049-.114,1.348-.3a7.2,7.2,0,0,0,1.918-1.778,8.293,8.293,0,0,0,.943-1.507c-.008-.016-.012-.034-.021-.05a3.15,3.15,0,0,0-.746-.818,23.648,23.648,0,0,0-6.18,3.583,3.014,3.014,0,0,0-.53.58A.889.889,0,0,0,3659.629-513.477Z" transform="translate(-3658.5 518.748)" fill="#6b3faa"/>
            </g>
            <path id="Path_80536" data-name="Path 80536" d="M3751.289-577.41a8.519,8.519,0,0,1,1.651-1.558c1.083-.8,1.54,0,.779.532a11.638,11.638,0,0,1-1.222.768s1.006.068.81.562-1.3.8-1.3.8Z" transform="translate(-3710.295 600.502)" fill="#6b3faa"/>
            <path id="Path_80537" data-name="Path 80537" d="M3687.767-543.433a11.48,11.48,0,0,0-2.78,1.111c-1.064.684-.114,1.14.646.76s1.482-.76,1.482-.76-.451.5.031.689,1.679-.879,1.679-.879Z" transform="translate(-3649.013 567.581)" fill="#6b3faa"/>
            <path id="Path_80538" data-name="Path 80538" d="M3332.5-836.911s-18.167,10.607-20.041,12.075c-.847.664-1.318,2.047-1.257,4.436a69.307,69.307,0,0,0,.7,8.367c.7,4.507.918,7.44.918,7.44l3.488,1.993s-.668-4.682-1.175-8.445a57.87,57.87,0,0,1-.531-8.312c.075-2.255.694-2.941,1.351-3.531,1.5-1.347,20.076-12.17,20.076-12.17Z" transform="translate(-3306.411 836.911)" fill="#7c4db6"/>
            <g id="Group_41328" data-name="Group 41328" transform="translate(42.202 20.813)">
              <path id="Path_80539" data-name="Path 80539" d="M3771.99-583.482a.992.992,0,0,1,.72,1.139c-.081.975-.95,1.545-1.825,1.938a.621.621,0,0,1-.1.644c-.309.405-3.664,1.234-4.555,1.481-.089.17-.262.394-.255.516,1.1.549,3.745-.454,4.509-.771,1.893-.786,3.69-1.891,3.617-4.2C3774.055-584.315,3773.335-584.137,3771.99-583.482Z" transform="translate(-3765.979 583.961)" fill="#7450bc"/>
              <path id="Path_80540" data-name="Path 80540" d="M3771.25-575.062c.875-.393,1.744-.963,1.825-1.938a.992.992,0,0,0-.72-1.139l-.266.131a29.935,29.935,0,0,0-5.712,4.24,4.01,4.01,0,0,1,.271.656.275.275,0,0,1-.049.175c.891-.247,4.246-1.075,4.555-1.481A.621.621,0,0,0,3771.25-575.062Z" transform="translate(-3766.344 578.618)" fill="#644dad"/>
              <path id="Path_80541" data-name="Path 80541" d="M3771.25-575.062c.875-.393,1.744-.963,1.825-1.938a.992.992,0,0,0-.72-1.139l-.266.131a29.935,29.935,0,0,0-5.712,4.24,4.01,4.01,0,0,1,.271.656.275.275,0,0,1-.049.175c.891-.247,4.246-1.075,4.555-1.481A.621.621,0,0,0,3771.25-575.062Z" transform="translate(-3766.344 578.618)" fill="#6b3faa"/>
            </g>
            <path id="Path_80542" data-name="Path 80542" d="M3710.873-564.474a4.963,4.963,0,0,0-3.176-3.272c-.788-.244-1.358-.006-1.4.6-.442.305-1.105.606-1.215,1.141a6.193,6.193,0,0,1,2.294,1.324,8.539,8.539,0,0,1,1.209,2.824C3709.8-561.909,3711.135-563.308,3710.873-564.474Z" transform="translate(-3667.894 589.98)" fill="#7450bc"/>
            <path id="Path_80543" data-name="Path 80543" d="M3763.609-522.478a.08.08,0,0,0-.143-.019c-.112.159-.128.378-.236.548s-.275.261-.344.431a.084.084,0,0,0,.081.106C3763.328-521.433,3763.74-522.148,3763.609-522.478Z" transform="translate(-3720.934 548.401)" fill="#6b3faa"/>
            <path id="Path_80544" data-name="Path 80544" d="M3754.432-515.957a3.391,3.391,0,0,1-.047-.528.125.125,0,0,0-.25,0c-.011.239-.065.7.173.839a.071.071,0,0,0,.1-.025A.346.346,0,0,0,3754.432-515.957Z" transform="translate(-3712.895 542.96)" fill="#6b3faa"/>
            <path id="Path_80545" data-name="Path 80545" d="M3847.47-563.323a2.467,2.467,0,0,1-.307.512c-.116.148-.26.269-.367.425-.055.079.035.175.119.154a1.09,1.09,0,0,0,.688-1.056C3847.6-563.354,3847.5-563.39,3847.47-563.323Z" transform="translate(-3797.928 585.867)" fill="#6b3faa"/>
            <path id="Path_80546" data-name="Path 80546" d="M3841.148-543.712c-.138-.008-.272,0-.41-.005s-.261-.045-.393-.061a.084.084,0,0,0-.073.126.6.6,0,0,0,.934.08A.083.083,0,0,0,3841.148-543.712Z" transform="translate(-3791.948 567.897)" fill="#6b3faa"/>
            <path id="Path_80547" data-name="Path 80547" d="M3665.028-448.977a1.612,1.612,0,0,1-.64.1,3.189,3.189,0,0,1-.615-.184.049.049,0,0,0-.054.071c.243.465,1.027.4,1.353.083C3665.1-448.933,3665.07-448.993,3665.028-448.977Z" transform="translate(-3629.925 480.971)" fill="#6b3faa"/>
            <path id="Path_80548" data-name="Path 80548" d="M3728.5-564.194c-.217.157.183.28.639.565a5.222,5.222,0,0,1,1.368,1.074,9.032,9.032,0,0,1,1.054,1.515,3.026,3.026,0,0,0-.9-2.134C3729.713-564.192,3728.8-564.409,3728.5-564.194Z" transform="translate(-3689.327 586.703)" fill="#855cc6"/>
          </g>
        </g>
      </g>
      <g id="Group_41337" data-name="Group 41337" transform="translate(80.446 52.421)">
        <path id="Path_80549" data-name="Path 80549" d="M3802.474,61.524l5.931,3.427-5.519,3.187-4-3.66Z" transform="translate(-3796.35 -36.225)" fill="#acbee2"/>
        <path id="Path_80550" data-name="Path 80550" d="M3768.071-216.422l0-.518a143.537,143.537,0,0,1,1.53-19.275,25.24,25.24,0,0,1,3.858-9.725l5.931,3.427a48.622,48.622,0,0,0-3.828,11.448c-.4,2.009-.805,6.763-1.1,10.891l.027.047-.032.018c-.275,3.836-.458,7.115-.458,7.115Z" transform="translate(-3768.071 245.941)" fill="#fff"/>
        <g id="Group_41332" data-name="Group 41332" transform="translate(0.448 0.255)">
          <path id="Path_80551" data-name="Path 80551" d="M3779.971-230.255a143.492,143.492,0,0,0-1.53,19.275l0,.509-4.926-2.846,0-.518a143.537,143.537,0,0,1,1.53-19.275,25.231,25.231,0,0,1,3.858-9.725l4.926,2.856A25.239,25.239,0,0,0,3779.971-230.255Z" transform="translate(-3773.511 242.836)" fill="#4f2556"/>
        </g>
        <g id="Group_41333" data-name="Group 41333" transform="translate(5.931 3.427)">
          <path id="Path_80552" data-name="Path 80552" d="M3846.282-178.994v.681l-6.126,3.537,0-.519a143.519,143.519,0,0,1,1.53-19.275,25.239,25.239,0,0,1,3.858-9.725l.479.349a25.139,25.139,0,0,0-3.753,9.48,138.92,138.92,0,0,0-1.513,18.656L3846.28-179Z" transform="translate(-3840.156 204.295)" fill="#ced8ef"/>
        </g>
        <path id="Path_80553" data-name="Path 80553" d="M3795.944-213.173l-4.482-2.592c.086-.577.177-1.144.275-1.695a26.484,26.484,0,0,1,3.03-8.41l2.958,1.715,1.527.879a26.49,26.49,0,0,0-3.035,8.419C3796.12-214.31,3796.03-213.746,3795.944-213.173Z" transform="translate(-3789.538 227.521)" fill="#916a9b"/>
        <g id="Group_41334" data-name="Group 41334" transform="translate(1.925 5.365)">
          <path id="Path_80554" data-name="Path 80554" d="M3793.031-180.741l4.485,2.589a26.6,26.6,0,0,0-1.3,4.711c-.1.547-.188,1.111-.273,1.684l-4.482-2.592c.086-.577.177-1.144.275-1.695A26.622,26.622,0,0,1,3793.031-180.741Z" transform="translate(-3791.463 180.741)" fill="#fff"/>
        </g>
        <path id="Path_80555" data-name="Path 80555" d="M3833.352-214.029a21.723,21.723,0,0,1,3.182,1.82c.1.071.013.131-.069.089-1.046-.534-2.153-1.2-3.164-1.794C3833.213-213.966,3833.221-214.083,3833.352-214.029Z" transform="translate(-3827.881 216.667)" fill="#4f2556"/>
        <path id="Path_80556" data-name="Path 80556" d="M3808.088-147.875a21.715,21.715,0,0,1,3.182,1.82c.1.071.013.131-.069.089-1.046-.534-2.153-1.2-3.164-1.794C3807.949-147.812,3807.957-147.929,3808.088-147.875Z" transform="translate(-3804.696 155.957)" fill="#4f2556"/>
        <path id="Path_80557" data-name="Path 80557" d="M3797.195-109.721a21.725,21.725,0,0,1,3.182,1.82c.1.071.012.131-.069.089-1.046-.534-2.153-1.2-3.164-1.794C3797.056-109.659,3797.063-109.776,3797.195-109.721Z" transform="translate(-3794.698 120.943)" fill="#4f2556"/>
        <path id="Path_80558" data-name="Path 80558" d="M3823.852-201.4a9.149,9.149,0,0,1,2.084,1.156c.1.071.013.131-.069.089-1.046-.534-1.055-.534-2.066-1.13C3823.713-201.335,3823.721-201.452,3823.852-201.4Z" transform="translate(-3819.162 205.076)" fill="#4f2556"/>
        <path id="Path_80559" data-name="Path 80559" d="M3821.449-196.406a9.133,9.133,0,0,1,2.084,1.156c.1.071.013.131-.069.089-1.046-.534-1.055-.534-2.066-1.13C3821.31-196.343,3821.317-196.46,3821.449-196.406Z" transform="translate(-3816.957 200.495)" fill="#4f2556"/>
        <path id="Path_80560" data-name="Path 80560" d="M3819.117-191.169a9.136,9.136,0,0,1,2.084,1.156c.1.071.012.131-.069.089-1.046-.534-1.055-.534-2.066-1.13C3818.978-191.106,3818.985-191.223,3819.117-191.169Z" transform="translate(-3814.816 195.689)" fill="#4f2556"/>
        <path id="Path_80561" data-name="Path 80561" d="M3817.463-185.931a9.145,9.145,0,0,1,2.084,1.156c.1.071.013.131-.069.089-1.046-.534-1.055-.534-2.066-1.13C3817.325-185.869,3817.332-185.986,3817.463-185.931Z" transform="translate(-3813.299 190.882)" fill="#4f2556"/>
        <g id="Group_41335" data-name="Group 41335" transform="translate(3.645 6.903)">
          <path id="Path_80562" data-name="Path 80562" d="M3812.382-161.79c.075-.214.115-.274.408-.243.253.027.634.277.854.3a1.073,1.073,0,0,1,.967.2,1.651,1.651,0,0,1,.691.889c.1.288.268.366.072.659a.182.182,0,0,1-.218.055c-.147-.1-.22-.137-.369-.229-.181.253-.618.007-.481-.317-.246-.145-.685-.381-.929-.528-.2.319-.6.052-.448-.3C3812.84-161.355,3812.309-161.582,3812.382-161.79Z" transform="translate(-3812.375 162.04)" fill="#916a9b"/>
          <path id="Path_80563" data-name="Path 80563" d="M3830.5-156.441a.658.658,0,0,0-.217-.221,2.232,2.232,0,0,0-.536-.275c-.152-.048-.38.124-.38.124l1.048.6S3830.476-156.377,3830.5-156.441Z" transform="translate(-3827.966 157.365)" fill="#fff"/>
        </g>
        <g id="Group_41336" data-name="Group 41336" transform="translate(2.818 9.254)">
          <path id="Path_80564" data-name="Path 80564" d="M3802.737-133.438c.269-.141.7.136.949.268l.053.027c.279.136,1.385.807,1.672.976.185.109.186.311.123.534-.046.164-.11.379-.194.619-.132.375-.394.351-.728.172-.362-.193-1.5-.9-1.865-1.107-.323-.182-.433-.256-.433-.571A1.254,1.254,0,0,1,3802.737-133.438Z" transform="translate(-3802.315 133.477)" fill="#916a9b"/>
          <path id="Path_80565" data-name="Path 80565" d="M3828.18-118.7l-.339.908s.223-.021.339-.367C3828.306-118.537,3828.18-118.7,3828.18-118.7Z" transform="translate(-3825.741 119.918)" fill="#fff"/>
          <path id="Path_80566" data-name="Path 80566" d="M3813.237-125.458l-.381.942s-.316-.142-.333-.261.221-.734.356-.752A.933.933,0,0,1,3813.237-125.458Z" transform="translate(-3811.682 126.186)" fill="#fff"/>
          <path id="Path_80567" data-name="Path 80567" d="M3814.461-132.01s.091-.155-.157-.261-.271.007-.271.007Z" transform="translate(-3813.069 132.409)" fill="#916a9b"/>
          <path id="Path_80568" data-name="Path 80568" d="M3830.367-123.723s.091-.155-.157-.261-.271.007-.271.007Z" transform="translate(-3827.666 124.804)" fill="#916a9b"/>
          <path id="Path_80569" data-name="Path 80569" d="M3826.168-104.529s-.1.127-.3.026c-.231-.115-.163-.275-.163-.275Z" transform="translate(-3823.769 107.139)" fill="#916a9b"/>
          <path id="Path_80570" data-name="Path 80570" d="M3810.186-114.164s-.108.119-.3,0c-.222-.133-.142-.287-.142-.287Z" transform="translate(-3809.116 116.015)" fill="#916a9b"/>
        </g>
      </g>
      <g id="Group_41345" data-name="Group 41345" transform="translate(0 40.238)">
        <g id="Group_41341" data-name="Group 41341" transform="translate(21.048)">
          <path id="Path_80571" data-name="Path 80571" d="M3076.587-327.76a1.84,1.84,0,0,0-1.223.944,18.545,18.545,0,0,0-1.005,4.3l-2.7,1.419a1.675,1.675,0,0,1,.532,1.188,8.562,8.562,0,0,0,2.92-.443c.524-.255,2.407-5.879,2.407-5.879Z" transform="translate(-3069.561 333.21)" fill="#3f1b44"/>
          <path id="Path_80572" data-name="Path 80572" d="M3160.759-13.889a9.051,9.051,0,0,1-.08-3.149,6.939,6.939,0,0,1-1.695.586c.345,1.191.691,2.208.7,2.407.008.27-.183.5-.014.981a5.652,5.652,0,0,1,.125,1.8c-.022,1.428.185,1.952,1.229,1.715.647-.147.779-.76.448-2.02C3161.286-12.27,3161.016-13.074,3160.759-13.889Z" transform="translate(-3149.703 48.055)" fill="#ffc9b6"/>
          <path id="Path_80573" data-name="Path 80573" d="M3075.262-38.048a4.069,4.069,0,0,1-1.48-.4c-.009.274-.023.54-.046.787-.156,1.684.042,2.016-.913,2.576a3.6,3.6,0,0,0-1.4,1.222c-.31.4.194.629.6.586.875-.093,1.69-.947,2.168-1.077s1.131-.29,1.073-.8c-.062-.551-.2-.549-.256-1.032A6.413,6.413,0,0,1,3075.262-38.048Z" transform="translate(-3069.26 67.7)" fill="#ffc9b6"/>
          <path id="Path_80574" data-name="Path 80574" d="M3096.539-204.425l-3.683-.722s-.265,1.8-.738,3.624a11.173,11.173,0,0,0-.087,4.682,26.6,26.6,0,0,1,.417,2.743c.086,1.224-.176,5.188-.176,5.188a2.012,2.012,0,0,0,.962.375,1.05,1.05,0,0,0,.8-.351,14.7,14.7,0,0,1,.378-2.36,17.966,17.966,0,0,0,.7-2.852,6.064,6.064,0,0,0-.293-2.229,13.092,13.092,0,0,0,1.37-4.784C3096.321-202.8,3096.539-204.425,3096.539-204.425Z" transform="translate(-3088.068 220.686)" fill="#301333"/>
          <path id="Path_80575" data-name="Path 80575" d="M3160.134-384.727a1.6,1.6,0,0,0-.246-.756,4.036,4.036,0,0,0-.511-.639c-.38-.412-.828-.754-.5-1.39.1-.186.335-.321.463-.492a1.432,1.432,0,0,0,.265-.589,1.608,1.608,0,0,0-.208-1.143c-.29-.465-.789-.56-1.228-.829a.947.947,0,0,1-.425-.8c.01-.156.18-.334.225-.5a1.142,1.142,0,0,0,.038-.488,1.2,1.2,0,0,0-.6-.853,1.317,1.317,0,0,0-.816-.094,1.539,1.539,0,0,1-.926-.18c-.247-.186-.344-.393-.663-.48a1.272,1.272,0,0,0-1.37.523,1.747,1.747,0,0,0-.1,1.728,2.847,2.847,0,0,0,.822.929,1.273,1.273,0,0,1,.632.975,3.037,3.037,0,0,0,.207.979,1.772,1.772,0,0,0,.67,1.035,7.093,7.093,0,0,0,.682.368.989.989,0,0,1,.348,1.162,1.048,1.048,0,0,0-.139.667c.11.4.661.17.727.731.082.693-.867,1.158-.525,1.95.259.6,1.031.651,1.586.512A2.185,2.185,0,0,0,3160.134-384.727Z" transform="translate(-3144.534 393.996)" fill="#ea4242"/>
          <path id="Path_80576" data-name="Path 80576" d="M3155.9-381.484a.4.4,0,0,0-.405-.157.392.392,0,0,0-.127-.393.341.341,0,0,0-.391-.02c-.013.007-.026.018-.04.027a.462.462,0,0,0-.072-.258.335.335,0,0,0-.375-.153c-.3.088-.447.6-.368.866a.071.071,0,0,0,.046.045,1.861,1.861,0,0,0,.745.938c.105.078.23.195.37.186a.66.66,0,0,0,.388-.261C3155.842-380.859,3156.073-381.228,3155.9-381.484Z" transform="translate(-3145.219 383.401)" fill="#7f64c1"/>
          <g id="Group_41338" data-name="Group 41338" transform="translate(5.123 6.105)">
            <path id="Path_80577" data-name="Path 80577" d="M3109.064-315.149a9.187,9.187,0,0,1-.055,1.85c-.172.849-.363,1.633-.568,2.4a8.613,8.613,0,0,0,.723.741,3.165,3.165,0,0,0,2.264.581,4.258,4.258,0,0,0,2.175-.975c.039-.033.074-.065.109-.1a15.989,15.989,0,0,1-.992-1.751,1.835,1.835,0,0,1,.565-1.7,4.17,4.17,0,0,0,.924-1.363c.221-.6.35-1.962-.3-2.479a8.574,8.574,0,0,0-1.709-.991c-.46-.208-1.44-1.026-1.677-.839a7.842,7.842,0,0,0-.981,1.1c-.274.353-.679.855-.924,1.23C3108.261-316.9,3108.715-315.161,3109.064-315.149Z" transform="translate(-3108.441 319.802)" fill="#7b8bdb"/>
          </g>
          <path id="Path_80578" data-name="Path 80578" d="M3130.663-195.4c-.839-1.24-4.27-.3-4.27-.3s-.641,2.4.58,3.4a50.789,50.789,0,0,0,1.434,6.164,4.094,4.094,0,0,0-.2,2.39,29.987,29.987,0,0,0,.821,3.7,15.029,15.029,0,0,0,.433,1.57,1.422,1.422,0,0,0,.92.224c.377-.115.4-.311.4-.311s.1-5.236-.066-7.09c.017-.743.219-2.97.371-3.981C3131.275-190.924,3131.5-194.158,3130.663-195.4Z" transform="translate(-3119.638 212.328)" fill="#3f1b44"/>
          <path id="Path_80579" data-name="Path 80579" d="M3099.769-313.189a13.419,13.419,0,0,1-1.255,3.585c.841,1.637,3.5,2.434,5.106,2.1a6.477,6.477,0,0,0,2.03-.832c-.092-.306-.187-.609-.284-.9-.349-1.055-1.057-2.1-1.112-2.508-.165-1.221,1.5-3.946,1.308-4.643a2.347,2.347,0,0,0-1.308-1.635c-.2-.126-.96,1.054-2.316,1.711-.543.264-1.132,1.537-1.849,1.474a4.816,4.816,0,0,1,1.942-4.283c-.365-.126-.523-.174-.523-.174a9.547,9.547,0,0,0-1.715,1.715c-.473.744-.727,1.192-.559,1.9A9.712,9.712,0,0,1,3099.769-313.189Z" transform="translate(-3094.208 325.442)" fill="#4a2151"/>
          <path id="Path_80580" data-name="Path 80580" d="M3135.664-331.378a10.649,10.649,0,0,0-1.3.23s-.018-.018-.025-.03a.027.027,0,0,0-.05.013,1.975,1.975,0,0,1-.269,1.163,8.288,8.288,0,0,0-.625.855c-.209.353-.108.305.164.513a2.178,2.178,0,0,0,2.379-.524,1.167,1.167,0,0,1-.3-.514A16.806,16.806,0,0,1,3135.664-331.378Z" transform="translate(-3126.115 336.543)" fill="#ffb9a4"/>
          <path id="Path_80581" data-name="Path 80581" d="M3125.3-314.494a4.373,4.373,0,0,0-.4,1.236c.618-.156,1.814-.495,1.814-.495l-1.771,1.79a4.161,4.161,0,0,1-.188-1.068,2.918,2.918,0,0,1-.977.17S3124.75-314.444,3125.3-314.494Z" transform="translate(-3117.394 321.035)" fill="#4f61ba"/>
          <path id="Path_80582" data-name="Path 80582" d="M3112.71-323.106a10.16,10.16,0,0,0-1.159,1,7.7,7.7,0,0,0-.935,1.356l.587.61-.674.357s.12,1.026.2,1.366a3.783,3.783,0,0,0,.532,1.047s.156-2.078.234-2.6a5.3,5.3,0,0,1,1.466-2.387C3113.067-322.47,3112.71-323.106,3112.71-323.106Z" transform="translate(-3105.234 328.939)" fill="#572d60"/>
          <path id="Path_80583" data-name="Path 80583" d="M3123.781-367.848a2.311,2.311,0,0,1,.437-1.605,2.23,2.23,0,0,1,1.587-.481,1.615,1.615,0,0,1,1.367,1.9c-.068.963-.606,2.477-1.657,2.748C3124.346-364.985,3123.8-367.042,3123.781-367.848Z" transform="translate(-3117.394 371.914)" fill="#ffc9b6"/>
          <path id="Path_80584" data-name="Path 80584" d="M3107.338-374.919a.529.529,0,0,1,.474-.314.527.527,0,0,1-.062-.717.555.555,0,0,1,.868.011,2.833,2.833,0,0,1,1.746-.374,2.768,2.768,0,0,1,.917.16,2.945,2.945,0,0,1,.41.454.121.121,0,0,1,.062.023.092.092,0,0,1,.05-.017c1.417.021.87,2.427.037,3.365a3.19,3.19,0,0,1-.477-.85c-.084-.171-.226-.616-.325-.772a2.27,2.27,0,0,1-1.315.246,3.14,3.14,0,0,1-.476.188,1.6,1.6,0,0,1-1.655-.344A.977.977,0,0,1,3107.338-374.919Z" transform="translate(-3102.241 377.778)" fill="#f95555"/>
          <path id="Path_80585" data-name="Path 80585" d="M3153.353-346.029s.306-.578.578-.251.086,1.044-.227,1.049S3153.353-346.029,3153.353-346.029Z" transform="translate(-3144.535 350.298)" fill="#ffc9b6"/>
          <path id="Path_80586" data-name="Path 80586" d="M3072.7-3.261a3.025,3.025,0,0,0-.339.539c-.392.227-.847.371-1.356.71s-.833.55-1.2.288-.411-.419-.411-.419a3.14,3.14,0,0,0-.737.6c-.152.241.318.868,1.131.789s1.143-.581,1.6-.919.864-.422,1.278-.685S3072.7-3.261,3072.7-3.261Z" transform="translate(-3066.778 35.411)" fill="#f95555"/>
          <path id="Path_80587" data-name="Path 80587" d="M3168.442,53.15s.251.692.515.847a.8.8,0,0,0,1.057-.155,1.331,1.331,0,0,0,.169-.609s.714,1.834-.868,1.917C3168.147,55.212,3168.442,53.15,3168.442,53.15Z" transform="translate(-3158.352 -16.358)" fill="#f95555"/>
          <path id="Path_80588" data-name="Path 80588" d="M3122.517-313.084a1.435,1.435,0,0,1-.31.6,21.124,21.124,0,0,1-1.691,1.566,12.941,12.941,0,0,0-1.537,1.948l.041.72s1.517-1.043,2.171-1.4a6.61,6.61,0,0,0-.358-1.012l1.129.413,1.288-1.934a1.613,1.613,0,0,0-.278-.624A1.738,1.738,0,0,0,3122.517-313.084Z" transform="translate(-3112.988 319.742)" fill="#572d60"/>
          <g id="Group_41339" data-name="Group 41339" transform="translate(0 9.486)">
            <path id="Path_80589" data-name="Path 80589" d="M3087.605-257.492l-.228.128,1.753,4.114.228-.128Z" transform="translate(-3083.988 259.238)" fill="#ced8ef"/>
            <path id="Path_80590" data-name="Path 80590" d="M3050.631-278.58l.228-.128,3.023,1.746-.228.128Z" transform="translate(-3050.265 278.708)" fill="#fff"/>
            <path id="Path_80591" data-name="Path 80591" d="M3048.271-271.943l3.607,2.082-2.091-4.908-3.606-2.082Z" transform="translate(-3046.18 277.004)" fill="#f95555"/>
            <path id="Path_80592" data-name="Path 80592" d="M3090.283-253.4l-.272.153,2.091,4.907.272-.153Z" transform="translate(-3086.405 255.484)" fill="#ea4242"/>
            <path id="Path_80593" data-name="Path 80593" d="M3046.18-278.555l.271-.153,3.607,2.082-.272.153Z" transform="translate(-3046.18 278.708)" fill="#ff7878"/>
          </g>
          <path id="Path_80594" data-name="Path 80594" d="M3086.272-228.266c-.153-.153-.173-.343-.357-.658s-.279-.426-.339-.283c-.083.2.135.551.037.69a.95.95,0,0,1-.692.076c-.239-.082-.589-.334-.818-.285-.36.078-.085.442.19.731.458.48,1.319.443,1.761.578a7.551,7.551,0,0,0,1.515.131,1.844,1.844,0,0,0-.179-1.046C3086.992-228.354,3086.493-228.266,3086.272-228.266Z" transform="translate(-3080.825 242.824)" fill="#ffc9b6"/>
          <path id="Path_80595" data-name="Path 80595" d="M3122.358-299.475a2.512,2.512,0,0,1,.8.843,4.749,4.749,0,0,1,.109,2.948c-.2,1.05-.415,3.153-1.2,3.782-1.219.189-4.316.265-4.316.265a2.408,2.408,0,0,1,0-1.221,17.222,17.222,0,0,1,3.184-.371c.033-.89.076-1.722.084-2.855A3.86,3.86,0,0,1,3122.358-299.475Z" transform="translate(-3111.776 307.252)" fill="#3f1b44"/>
          <path id="Path_80596" data-name="Path 80596" d="M3118.475-250.7a.152.152,0,0,1-.083.193c-.067.016-.139-.044-.161-.135a.152.152,0,0,1,.083-.193C3118.382-250.852,3118.454-250.792,3118.475-250.7Z" transform="translate(-3112.298 262.618)" fill="#fff"/>
          <path id="Path_80597" data-name="Path 80597" d="M3114.083-223.582c-.009.1-.074.172-.147.165a.16.16,0,0,1-.115-.188c.009-.1.074-.171.147-.165A.16.16,0,0,1,3114.083-223.582Z" transform="translate(-3108.255 237.777)" fill="#fff"/>
          <g id="Group_41340" data-name="Group 41340" transform="translate(6.836 9.299)">
            <rect id="Rectangle_22683" data-name="Rectangle 22683" width="0.486" height="0.486" transform="matrix(-0.866, -0.5, 0.5, -0.866, 1.251, 0.719)" fill="#7f64c1"/>
            <rect id="Rectangle_22684" data-name="Rectangle 22684" width="1.526" height="1.008" transform="matrix(-0.866, -0.5, 0.5, -0.866, 1.322, 1.636)" fill="#fff"/>
          </g>
        </g>
        <g id="Group_41344" data-name="Group 41344" transform="translate(0 0.24)">
          <g id="Group_41342" data-name="Group 41342">
            <path id="Path_80598" data-name="Path 80598" d="M2821.86,19.306a5.816,5.816,0,0,0-.206,1.376,1.022,1.022,0,0,0,.3.8.3.3,0,0,0,.332.1,2.517,2.517,0,0,0,.563,1.461,2.108,2.108,0,0,0,1.8.308c.411-.153.141-.9-.261-1.628a8.974,8.974,0,0,1-1.043-2.177C2822.362,19.4,2821.86,19.306,2821.86,19.306Z" transform="translate(-2819.078 14.461)" fill="#301333"/>
            <path id="Path_80599" data-name="Path 80599" d="M2860.788-195.67c.27-1.589.585-1.482.578-2.959,0-.726-.263-2.385-.788-5.831a7.782,7.782,0,0,0-1.261-3.218,15.5,15.5,0,0,0-2.7,1.25,6.358,6.358,0,0,0-.48,3.437,27.963,27.963,0,0,0,2.639,5.154c-1.61,1.589-1.218,3.054-.73,7,.412.553,1.158.5,1.905.064C2859.955-191.581,2860.606-194.6,2860.788-195.67Z" transform="translate(-2850.656 222.778)" fill="#301333"/>
            <path id="Path_80600" data-name="Path 80600" d="M2819.7-198.45c1.013-1.239.8-2.18.318-3.654a36.109,36.109,0,0,0-4.29-.554c-1.6,2.8-.692,7.388.472,10.129-.543,1.327-.972,1.443-1.378,3.194-.35,1.51.662,3.205.75,5.092.577.394,1.4.572,1.688-.14.991-2.366,1.752-4.744,1.078-7.275A34.531,34.531,0,0,0,2819.7-198.45Z" transform="translate(-2812.743 218.171)" fill="#3f1b44"/>
            <path id="Path_80601" data-name="Path 80601" d="M2891.8-334.075c-.662-.782-2.555-1.5-2.825-1.8,0,0-.61-1.014-.873-1.6a19.523,19.523,0,0,0-.829-2.4,2.586,2.586,0,0,0-1.742-1.3.5.5,0,0,0-.57.118,1.522,1.522,0,0,0-.172.962c0,.491,0,.983.006,1.474a7.1,7.1,0,0,0,1.093,2.26,18.694,18.694,0,0,0,1.054,1.6c.2.2,1.124.936,1.424,1.147a10.275,10.275,0,0,0,3.05,1.188C2891.719-332.381,2892.63-333.09,2891.8-334.075Z" transform="translate(-2877.014 345.324)" fill="#7c4db6"/>
            <path id="Path_80602" data-name="Path 80602" d="M2814.5-334.257c-1.022-.428-2.743.324-2.7.274.031-.034-1.419.8-1.421.81-1.035.386-2.1.666-2.7,2.056-.3.677.771,2.126,1.216,4.089a4.7,4.7,0,0,1-.105,2.728c-.229.41-.732,1.025.745,1.489a9.139,9.139,0,0,0,3.589.69c.538-.1,3.126-1.534,2.337-2.082a.547.547,0,0,1-.23-.7,1.54,1.54,0,0,0,.257-1.069,4.611,4.611,0,0,1,.116-2.356c.749-.784.61-1.7.151-2.962C2815.435-332.146,2815.545-333.818,2814.5-334.257Z" transform="translate(-2806.202 339.054)" fill="#975ecf"/>
            <path id="Path_80603" data-name="Path 80603" d="M2841.116-334.418a5.417,5.417,0,0,1,1.156,1.1,6.369,6.369,0,0,0,1.419,1.563c.528.352,1.1-.264,1.342-1.277s-.99-2.715-.99-2.715A13.355,13.355,0,0,0,2841.116-334.418Z" transform="translate(-2836.94 340.299)" fill="#7c4db6"/>
            <path id="Path_80604" data-name="Path 80604" d="M2851.751-346.922c-.051-.033-.145-.007-.188-.007-.435,0-.286.339-.853.017-.241-.137-.33-.37-.557-.443.019-.072.042-.143.059-.216a.03.03,0,0,0-.058-.016c-.029.072-.06.142-.089.214a.513.513,0,0,0-.074-.007.067.067,0,0,0-.033.123c.015.011.03.024.044.036a9.616,9.616,0,0,1-.834,1.784c.229.011.68.64,1.054,1.3.159.28.845,1.005,1.276.838.665-.258.332-.791.352-1.54.014-.525.024-1.051.025-1.576C2851.875-346.582,2851.919-346.811,2851.751-346.922Z" transform="translate(-2844.329 351.185)" fill="#ffb9a4"/>
            <path id="Path_80605" data-name="Path 80605" d="M2858.609-371.41a2.107,2.107,0,0,0-2.547-.374,1.286,1.286,0,0,0-.493.26,1.852,1.852,0,0,0-.3,1.835c.226.89,1.492,2.934,2.661,2.17a3.316,3.316,0,0,0,1.127-2.124A2.262,2.262,0,0,0,2858.609-371.41Z" transform="translate(-2849.836 373.618)" fill="#ffc9b6"/>
            <path id="Path_80606" data-name="Path 80606" d="M2867.249-343.464c-.152-.371-.658-.384-1.036-.149-.234.146-.512.57-.728.7-.363.219-.611-.249-.56-.527-.014-.2.031-.571.016-.772-.017-.217-.273-.324-.33-.161a2.984,2.984,0,0,0-.249,1.424,1.876,1.876,0,0,0,1,1.2,1.287,1.287,0,0,0,1.725-.561A1.775,1.775,0,0,0,2867.249-343.464Z" transform="translate(-2858.25 348.288)" fill="#301333"/>
            <path id="Path_80607" data-name="Path 80607" d="M2854.652-390.189c-.39-.525-1.387-1.153-2.042-.788a.681.681,0,0,0-.339.616,2.356,2.356,0,0,0-2.06.841,3.337,3.337,0,0,0,.276,2.987,4.367,4.367,0,0,0,1.3-1.988,2.746,2.746,0,0,0,2.439-.024A1.108,1.108,0,0,0,2854.652-390.189Z" transform="translate(-2845.07 391.085)" fill="#301333"/>
            <path id="Path_80608" data-name="Path 80608" d="M2859.992-352.18s-.355-.589-.682-.159a.6.6,0,0,0,.231.973Z" transform="translate(-2853.479 355.671)" fill="#ffc9b6"/>
            <path id="Path_80609" data-name="Path 80609" d="M2886.573-330.789a2.724,2.724,0,0,1-.554.491.488.488,0,0,0,.85-.121A3.1,3.1,0,0,0,2886.573-330.789Z" transform="translate(-2878.148 335.75)" fill="#ffc9b6"/>
            <path id="Path_80610" data-name="Path 80610" d="M2793.2-312.845a2.828,2.828,0,0,0-2.083,1.706c-.572,1.479-.15,2.077-.458,3.058a7.092,7.092,0,0,0-.268,2.009c-.088.791.22.746.516.983.243.194.069.521,1.971,1.394a8.566,8.566,0,0,0,2.982.561l-.088-1.31a9.192,9.192,0,0,1-1.244-1.023,3.578,3.578,0,0,0-1.915-.979s.748-1.31,1.232-2.359S2793.565-312.2,2793.2-312.845Z" transform="translate(-2790.373 319.283)" fill="#7c4db6"/>
            <path id="Path_80611" data-name="Path 80611" d="M2840.855-215.041s-.492-.153-.758.486a1.022,1.022,0,0,0,.106,1.066,1.7,1.7,0,0,1,.918.282,20.752,20.752,0,0,0,1.844,1.537c.765.372.968-.12,1.032-.574s-.319-.807-.661-1.074c-.372-.29-.6-.527-.467-.607.087-.053.516.133.811,0s.177-.359-.329-.4c-.257-.019-.375-.2-.863-.258-.381-.049-.494.142-.615.079A10.017,10.017,0,0,1,2840.855-215.041Z" transform="translate(-2835.916 229.541)" fill="#ffc9b6"/>
            <path id="Path_80612" data-name="Path 80612" d="M2850.4-239.826s-.765.285-1.557.648a9.382,9.382,0,0,0-1.187.627,4.653,4.653,0,0,0,1.649-.45C2850.3-239.442,2850.4-239.826,2850.4-239.826Z" transform="translate(-2842.944 252.272)" fill="#7c4db6"/>
            <path id="Path_80613" data-name="Path 80613" d="M2848.555-260.979s-1.563.669-2.316,1.039a4.626,4.626,0,0,0-1.095.7,15.547,15.547,0,0,0,1.965-.608C2848.322-260.3,2848.555-260.979,2848.555-260.979Z" transform="translate(-2840.638 271.684)" fill="#7c4db6"/>
          </g>
          <g id="Group_41343" data-name="Group 41343" transform="translate(9.599 1.531)">
            <path id="Path_80614" data-name="Path 80614" d="M2922.077-371.061a3.113,3.113,0,0,1,1.465-.637,4.82,4.82,0,0,0-1.492-.727c-.6-.173-.617.055-.951.453-.362.432-1,.3-1.08.971a3.014,3.014,0,0,0,.736,1.9A3.956,3.956,0,0,1,2922.077-371.061Z" transform="translate(-2918.942 372.483)" fill="#f9b630"/>
            <path id="Path_80615" data-name="Path 80615" d="M2924.746-368.531a2.549,2.549,0,0,0-2.309.114c-.985.564-2.28,2.435-1.551,3.706.687,1.2,2.406.68,3.2-.066a3.364,3.364,0,0,0,.8-1.188C2925.17-366.329,2925.79-367.9,2924.746-368.531Z" transform="translate(-2919.551 369.066)" fill="#ffd176"/>
            <path id="Path_80616" data-name="Path 80616" d="M2960.8-302.826a1,1,0,0,1-1,.134,1.06,1.06,0,0,1,.225-.453c.193-.241.129-.561,0-.543s-.16.2-.706.582a3.386,3.386,0,0,0-.574.5,5.443,5.443,0,0,0-2.178-.351,30.808,30.808,0,0,0-.638-3.424,2.04,2.04,0,0,0-.942-1.287l-.717.254a7.1,7.1,0,0,0,.194,2.527,15.215,15.215,0,0,0,1.07,2.682c.226.719,1.162.562,1.88.562.451,0,1.065-.123,1.312-.094a5.965,5.965,0,0,0,1.429.271c.648-.047.684-.324,1.075-1.03S2961.129-303.051,2960.8-302.826Z" transform="translate(-2950.353 313.002)" fill="#ffb9a4"/>
            <path id="Path_80617" data-name="Path 80617" d="M2907.157-18.282c.133-.415.623-1.636.8-2.075.106-.258,1.073-.384,1.074-.349.017.132-.007.533,0,.672a.915.915,0,0,1-.254.753,4.371,4.371,0,0,1-.36,1.327c-.239.583-.683.854-1.032.77C2906.977-17.283,2906.959-17.66,2907.157-18.282Z" transform="translate(-2907.034 49.656)" fill="#ffd176"/>
            <path id="Path_80618" data-name="Path 80618" d="M2980.6-53c.225.248.477.526.708.77.312.33.68.68,1.019.982.414.37.446.818-.233.78a2.646,2.646,0,0,1-1.864-.912c-.071-.054-.188.076-.467-.036-.353-.142-.4-.2-.4-.549a2.9,2.9,0,0,1,.138-.915l-.01-.011C2979.44-52.954,2980.3-53.333,2980.6-53Z" transform="translate(-2973.415 79.412)" fill="#ffd176"/>
            <path id="Path_80619" data-name="Path 80619" d="M2917.365-209.928a7.63,7.63,0,0,1,.035-2.652,9.045,9.045,0,0,0-.612-4.87,4.586,4.586,0,0,0-.957-1.221c-.943.772-4.2.641-4.222.667a4.64,4.64,0,0,0-.949,1.564,6.118,6.118,0,0,0-.041,4.36,6.616,6.616,0,0,1,.709,2.816c-.142.8-.494,1.833-.633,2.643-.257,1.5.221,3,.2,4.594a.737.737,0,0,0,1.077-.006,21.2,21.2,0,0,0,1.211-4.3c.036-.632-.327-2.437-.265-2.82.173-1.055.408-1.29.72-2.527.337-1.339.516-2.384.517-2.4.318,2,1.066,2.8,1.083,3.8a6.516,6.516,0,0,0,.071,2.421c.384,1.15.384,2.109.733,3.174.314.36,1.039.225,1.087-.115C2917.131-205.967,2917.89-208.423,2917.365-209.928Z" transform="translate(-2909.97 231.327)" fill="#301333"/>
            <path id="Path_80620" data-name="Path 80620" d="M2932.07-320.688a1.759,1.759,0,0,0,.789.47c.354.1.751.156.99-.186a1.35,1.35,0,0,0,.19-.493.345.345,0,0,1-.207-.219,1.856,1.856,0,0,1,.086-.54c.038-.215.084-.436.106-.657a3.955,3.955,0,0,0-.96-.491c-.2-.047-.475-.606-.662-.708a3.586,3.586,0,0,1-.087,1.439,1.688,1.688,0,0,1-.339.783C2932.055-321.266,2931.986-320.768,2932.07-320.688Z" transform="translate(-2929.923 327.541)" fill="#ffb9a4"/>
            <path id="Path_80621" data-name="Path 80621" d="M2924.574-256.613c-.319-.626-.9-.95-1.09-1.636a3.975,3.975,0,0,1,.231-2.176.12.12,0,0,0-.114-.15,12.719,12.719,0,0,0-3.649.778.044.044,0,0,0-.018.013c-.022-.016-.043-.036-.066-.051s-.087.025-.06.06a3.154,3.154,0,0,1,.716,1.455c-.023.77-1.216,2.375-1.3,2.733a3.563,3.563,0,0,0,3.409.605C2923.577-255.229,2924.576-255.939,2924.574-256.613Z" transform="translate(-2918.225 269.786)" fill="#ffc9b6"/>
            <path id="Path_80622" data-name="Path 80622" d="M2920.916-302.894a9.093,9.093,0,0,0-1.039-1.543c-.024-.027-.263.179-.407,0-.2-.256-.338-.21.027.574.171.64-.2,1.09-.865.65-.187-.123-.774-.572-.958-.7a4.857,4.857,0,0,1-.868.656l-.414.247c.016.112.033.218.039.3.02.275.049.55.095.822a3.709,3.709,0,0,0,.414,1.411,9.234,9.234,0,0,1,.886,1.393,2.812,2.812,0,0,0,2.993-.433c.157-1.068.57-1.273.625-2.062A3.182,3.182,0,0,0,2920.916-302.894Z" transform="translate(-2915.622 310.165)" fill="#fff"/>
            <path id="Path_80623" data-name="Path 80623" d="M2938.57-352.957a2.22,2.22,0,0,0-.522-1.511,1.539,1.539,0,0,0-1.29-.369c-.778.054-1.461,1.184-1.323,2.179.127.919.613,2.078,1.638,2.27C2938.213-350.174,2938.6-352.183,2938.57-352.957Z" transform="translate(-2933.082 356.298)" fill="#ffc9b6"/>
            <path id="Path_80624" data-name="Path 80624" d="M2935.2-359.591a.508.508,0,0,0-.475-.27.506.506,0,0,0,.013-.691.533.533,0,0,0-.832.066,2.555,2.555,0,0,0-2.857.894,3.255,3.255,0,0,0-.56,1.973,2.191,2.191,0,0,0,.559.8,3.075,3.075,0,0,0,.4-.846c.069-.169.177-.605.262-.762a2.183,2.183,0,0,0,1.278.151,3.026,3.026,0,0,0,.469.15,1.533,1.533,0,0,0,1.565-.437A.939.939,0,0,0,2935.2-359.591Z" transform="translate(-2928.553 361.691)" fill="#301333"/>
            <path id="Path_80625" data-name="Path 80625" d="M2938.061-331.077s-.331-.535-.571-.2-.015,1.007.285.992S2938.061-331.077,2938.061-331.077Z" transform="translate(-2934.891 334.77)" fill="#ffc9b6"/>
            <path id="Path_80626" data-name="Path 80626" d="M2965.276-210.353c-.22.14.02.5.22.361S2965.5-210.493,2965.276-210.353Z" transform="translate(-2960.403 223.722)" fill="#ffb9a4"/>
            <path id="Path_80627" data-name="Path 80627" d="M2944.514-262.832a4.541,4.541,0,0,1,1.24-.945,3.824,3.824,0,0,1,1.166-.4,10.591,10.591,0,0,1-1.166.961A5.071,5.071,0,0,1,2944.514-262.832Z" transform="translate(-2941.43 273.089)" fill="#bbd9f9"/>
          </g>
          <path id="Path_80628" data-name="Path 80628" d="M2963.913-237.156a1.236,1.236,0,0,0-.224,1.346c.2.51.462.856.846.856a.827.827,0,0,0,.616-.317l-.224-.365Z" transform="translate(-2949.333 249.821)" fill="#ffb9a4"/>
          <path id="Path_80629" data-name="Path 80629" d="M2965.063-241.32a1.259,1.259,0,0,0,.51,1.848.7.7,0,0,0,.859-1.019C2966.034-241.218,2965.591-241.976,2965.063-241.32Z" transform="translate(-2950.483 253.873)" fill="#ffc9b6"/>
          <path id="Path_80630" data-name="Path 80630" d="M2909.6-280.786c-.293-.162-1-.849-.571-.85s.963-.269.7-.354c-.5-.161-1.274-.007-1.529-.275h0a8.767,8.767,0,0,0-1.6-1.329s.616-1.41.862-2.016a2.624,2.624,0,0,0-.745-2.923,1.33,1.33,0,0,0-.921.768,5.137,5.137,0,0,0,0,2.318,5.079,5.079,0,0,1-.378,1.79,1.738,1.738,0,0,0,.128.872c.051.2.2.15.4.3a5.221,5.221,0,0,0,.7.384c.252.124.916.386,1.333.635a3.209,3.209,0,0,1,.571,1,1.118,1.118,0,0,0,1.449.567C2910.611-280.128,2909.821-280.664,2909.6-280.786Z" transform="translate(-2895.93 296.97)" fill="#ffb9a4"/>
          <path id="Path_80631" data-name="Path 80631" d="M2879.564-7.3a5.159,5.159,0,0,1-.162.766,2.094,2.094,0,0,0,.027.937.564.564,0,0,0,.447.312,1.408,1.408,0,0,0,.611-.015,4.51,4.51,0,0,0,.766.709,3.551,3.551,0,0,0,1.652.506c.42-.064.646-.392.613-.6a2.607,2.607,0,0,0-.933-1.05,8.319,8.319,0,0,1-1.044-.915,5.019,5.019,0,0,1-.518-.675Z" transform="translate(-2872.035 38.903)" fill="#301333"/>
        </g>
      </g>
      <g id="Group_41352" data-name="Group 41352" transform="translate(35.074 52.165)">
        <g id="Group_41348" data-name="Group 41348" transform="translate(0 0.522)">
          <path id="Path_80632" data-name="Path 80632" d="M3375.374-93.746a13.673,13.673,0,0,1,1.5,0,4.679,4.679,0,0,1,1.024.156c.194.057.247.4-.025.338-.43-.1-.527,0-.694.141-.106.09.309.269.777.432s.649-.24.815-.124-.237,1.227-1.153,1.229a2.134,2.134,0,0,1-1.55-.514,9.575,9.575,0,0,0-1.346-.693Z" transform="translate(-3361.715 106.023)" fill="#ffc9b6"/>
          <path id="Path_80633" data-name="Path 80633" d="M3322.715-175.705a8.636,8.636,0,0,0-.974-.116.9.9,0,0,1,0-.375c.043-.209-.451-.161-.451-.161s-.436-2.048-.438-2.121a7.381,7.381,0,0,0-1.021-3.114c-.873-1.438-1.666-.749-1.666-.749s.6,4.78,1.091,6.527c.052-.045.1-.094.151-.14.206.641.437,1.751.462,1.783.515.658,1.394.582,1.947.655.773.1,1.871.178,1.871.178a6.189,6.189,0,0,0,.267-1.043,8.863,8.863,0,0,0,0-.925A9.062,9.062,0,0,0,3322.715-175.705Z" transform="translate(-3309.813 187.46)" fill="#3f1b44"/>
          <path id="Path_80634" data-name="Path 80634" d="M3294.019-92.331a34.474,34.474,0,0,1,1.489,4.62c.2,1.331.6,3.346.842,5.023a23.305,23.305,0,0,1,.125,4.948,19.5,19.5,0,0,0-.156,3.272c-.141.6-1.548.675-1.714-.022-.1-.433-1.183-4.263-1.292-5.468a5.61,5.61,0,0,1,.176-2.068s-1.756-3.76-2.372-5.239a6.275,6.275,0,0,1-.2-3.313Z" transform="translate(-3284.679 104.704)" fill="#301333"/>
          <path id="Path_80635" data-name="Path 80635" d="M3335.1,122.2a5.421,5.421,0,0,1-.171.811,2.217,2.217,0,0,0,.028.993.6.6,0,0,0,.474.33,1.491,1.491,0,0,0,.647-.015,4.781,4.781,0,0,0,.812.751,3.76,3.76,0,0,0,1.75.536c.445-.068.684-.415.65-.639a2.762,2.762,0,0,0-.989-1.112,8.815,8.815,0,0,1-1.106-.969,5.306,5.306,0,0,1-.549-.715Z" transform="translate(-3325.153 -92.149)" fill="#301333"/>
          <path id="Path_80636" data-name="Path 80636" d="M3254.768,163.553a5.891,5.891,0,0,0-.208,1.394,1.035,1.035,0,0,0,.306.805.307.307,0,0,0,.336.1,2.548,2.548,0,0,0,.571,1.48,2.135,2.135,0,0,0,1.822.312c.416-.155.143-.909-.265-1.649a9.088,9.088,0,0,1-1.056-2.205C3255.277,163.651,3254.768,163.553,3254.768,163.553Z" transform="translate(-3251.438 -130.126)" fill="#301333"/>
          <path id="Path_80637" data-name="Path 80637" d="M3253.679-77.542a9.793,9.793,0,0,0-1.135,2.464,16.932,16.932,0,0,0-.3,3.753,26.691,26.691,0,0,0,.077,3.509,6.09,6.09,0,0,1,.154,1.085,14.561,14.561,0,0,0-.612,4.718c.112,2.557.32,4.39.32,4.39a.877.877,0,0,0,.8.55,1.426,1.426,0,0,0,1.035-.354s1.1-5.413,1.5-6.646a14.831,14.831,0,0,0,.556-2.656l.83-6.078s1.643-1.072.8-3.777C3257.184-78.277,3253.679-77.542,3253.679-77.542Z" transform="translate(-3248.959 91.277)" fill="#3f1b44"/>
          <path id="Path_80638" data-name="Path 80638" d="M3256.536-183.2a10.069,10.069,0,0,1,1.809-.473,5.515,5.515,0,0,1,2.177,3.588,7.708,7.708,0,0,1-.365,2.709,1.136,1.136,0,0,1,.033,1.062,7.31,7.31,0,0,0,.464,1.61,1.728,1.728,0,0,1-.07,1.537c-.556.731-1.156.947-2.517,1.136a3.325,3.325,0,0,1-3.078-1.556c-.115-.154-.579-1.387-.235-1.607-.262-.8-.531-1.794-.788-2.752-.387-1.441-.735-2.827.1-3.915A6.892,6.892,0,0,1,3256.536-183.2Z" transform="translate(-3250.517 188.539)" fill="#fff"/>
          <path id="Path_80639" data-name="Path 80639" d="M3278.376-198.79a9.229,9.229,0,0,1,1.693,1.615c.414.653.585.919.368,2.425-1.17-.408-2.63-1.112-2.908-1.922C3277.933-196.895,3278.376-198.79,3278.376-198.79Z" transform="translate(-3272.519 202.403)" fill="#ffb9a4"/>
          <path id="Path_80640" data-name="Path 80640" d="M3309.6-147.225a11.084,11.084,0,0,0-.392-1.468h0a4.574,4.574,0,0,1,.194-.747l-.63-.249-.368.442a1.563,1.563,0,0,0,.452.62h0c-.013.643-.036,1.82-.05,2.888-.022,1.7,0,2.931,0,2.931a3.85,3.85,0,0,0,.809.835,4.19,4.19,0,0,0,.393-1.151S3309.782-146.248,3309.6-147.225Z" transform="translate(-3300.854 157.342)" fill="#f95555"/>
          <path id="Path_80641" data-name="Path 80641" d="M3279.671-171.518a8.421,8.421,0,0,1,1.493.818c.59.489.872.62,1.166.9.028-.071.107-1.4.107-1.4s.492.062.488.071a1.746,1.746,0,0,1,.393.8,2.722,2.722,0,0,1-.087,1.166l-.818-.5-.56,1a20.865,20.865,0,0,1-1.591-1.506A2.809,2.809,0,0,1,3279.671-171.518Z" transform="translate(-3274.485 177.375)" fill="#bbd9f9"/>
          <path id="Path_80642" data-name="Path 80642" d="M3309.207-180.5a1.763,1.763,0,0,1,1.271,1.133,9.483,9.483,0,0,1,.62,3.81,19.8,19.8,0,0,0,.275,3.549c.17.716,1.119,3.352,1.119,3.352a3.52,3.52,0,0,1-.423,1.509,1.176,1.176,0,0,1-.944.5s-.588-3.268-.648-3.784-.253-3.237-.2-4.045a21.691,21.691,0,0,0-.592-4.1,8.207,8.207,0,0,0-1.283-1.822Z" transform="translate(-3300.854 185.617)" fill="#4a2151"/>
          <path id="Path_80643" data-name="Path 80643" d="M3315.559-177.516a4.905,4.905,0,0,1,.583,1.039,12.749,12.749,0,0,1,.417,2.8,15.766,15.766,0,0,0,.247,1.607,7.98,7.98,0,0,0,.358-1.464c.056-.592.132-1.048.132-1.048l-.414-.324.383-.926s-1.011-2.2-1.438-2.33S3315.559-177.516,3315.559-177.516Z" transform="translate(-3307.394 183.486)" fill="#572d60"/>
          <path id="Path_80644" data-name="Path 80644" d="M3283.735-227.055a2.558,2.558,0,0,0-.775-1.671,2.468,2.468,0,0,0-1.821-.23,1.788,1.788,0,0,0-1.139,2.328c.253,1.039,1.122,2.59,2.319,2.691.609.051,1.027-.445,1.242-1.047A4.759,4.759,0,0,0,3283.735-227.055Z" transform="translate(-3274.721 230.149)" fill="#ffc9b6"/>
          <g id="Group_41346" data-name="Group 41346" transform="translate(8.745 2.129)">
            <path id="Path_80645" data-name="Path 80645" d="M3322.931-216.82l0-.005C3322.93-216.816,3322.93-216.816,3322.931-216.82Z" transform="translate(-3322.93 216.825)" fill="#301333"/>
          </g>
          <path id="Path_80646" data-name="Path 80646" d="M3278.217-241.13a.752.752,0,0,0-.949-.721c.112-.788-.919-.912-1.248-.432-.224-.069-.521-.432-1.038-.421a1.468,1.468,0,0,0-1.594,1.089c-.7.292-.553,1.33-.35,1.992.138.45.706,1.829.728,1.829a5.323,5.323,0,0,0,.663-1.41,2.317,2.317,0,0,0,1.3-.422c.427.222,1.268.532,1.711.252A1.958,1.958,0,0,0,3278.217-241.13Z" transform="translate(-3268.242 242.704)" fill="#421e47"/>
          <path id="Path_80647" data-name="Path 80647" d="M3284.436-199.477s-.263-.442-.6-.15.4,1,.4,1Z" transform="translate(-3278.221 203.263)" fill="#ffc9b6"/>
          <path id="Path_80648" data-name="Path 80648" d="M3293.838-195.8a1.056,1.056,0,0,0-.568.02c-.421.086-.858.436-1.2.34a.8.8,0,0,1-.585-.551,7.137,7.137,0,0,1-.183-1.23.347.347,0,0,0-.174.351,4.472,4.472,0,0,0,.135,1.349,2.078,2.078,0,0,0,1.56,1.151c.727.139.882-.237.976-.7A2.1,2.1,0,0,0,3293.838-195.8Z" transform="translate(-3284.998 200.963)" fill="#421e47"/>
          <path id="Path_80649" data-name="Path 80649" d="M3311.909-176.552s-.221-.01-.3-.139c-.151.233-.42.272-.533.336a.51.51,0,0,0,.543.14A.455.455,0,0,0,3311.909-176.552Z" transform="translate(-3303.308 182.123)" fill="#ffc9b6"/>
          <path id="Path_80650" data-name="Path 80650" d="M3248.012-173.044a9.34,9.34,0,0,1,1.559,3.775,33.866,33.866,0,0,1,0,6.013c0,1.571.179,4.677.179,4.677a7.986,7.986,0,0,1-2.534.019,3.48,3.48,0,0,1-1.85-1.091s.682-3.594,1.193-5.81c.227-.986-.361-3.139-.75-4.334a2.31,2.31,0,0,1,.23-2.306C3246.446-172.541,3247.441-172.731,3248.012-173.044Z" transform="translate(-3243.003 178.776)" fill="#4a2151"/>
          <g id="Group_41347" data-name="Group 41347" transform="translate(0.347 10.922)">
            <path id="Path_80651" data-name="Path 80651" d="M3224.854-105.17l1.738,3.127,4.477-2.551-1.738-3.127-.328.174Z" transform="translate(-3224.526 107.905)" fill="#ffd176"/>
            <path id="Path_80652" data-name="Path 80652" d="M3220.866-103.057l1.74,3.131,4.48-2.545-1.744-3.137Z" transform="translate(-3220.866 105.966)" fill="#f9b630"/>
            <path id="Path_80653" data-name="Path 80653" d="M3276.276-107.282l1.7,3.049-.187.1-1.708-3.046Z" transform="translate(-3271.539 107.502)" fill="#fff"/>
            <path id="Path_80654" data-name="Path 80654" d="M3278.113-109.606l.558,1.007.654-.354-.533-1.009Z" transform="translate(-3273.403 109.961)" fill="#bbd9f9"/>
            <path id="Path_80655" data-name="Path 80655" d="M3282.032-96.681l1.576.076-.656,1.583Z" transform="translate(-3276.999 97.774)" fill="#fff"/>
          </g>
          <path id="Path_80656" data-name="Path 80656" d="M3263.339-60.7a2.277,2.277,0,0,1,.826.162,5.087,5.087,0,0,1,.553-.313,1.35,1.35,0,0,1-.231,1.26,1.012,1.012,0,0,1-1.463-.093C3262.654-60,3263.339-60.7,3263.339-60.7Z" transform="translate(-3259.108 75.814)" fill="#ffc9b6"/>
          <path id="Path_80657" data-name="Path 80657" d="M3220.164-165.564a3.164,3.164,0,0,0-1.765,1.491,24.165,24.165,0,0,0-1.554,4.251c-.285,1.225-.232,1.663-.028,1.994a4.374,4.374,0,0,0,1.548,1.416,6.589,6.589,0,0,0,2.089.835s.748-.13.748-1.371c-.189-.185-.538-.161-1.1-.671-.711-.648-1.241-1.21-1.241-1.21s.844-1.191,1.672-2.505A3.948,3.948,0,0,0,3220.164-165.564Z" transform="translate(-3216.647 171.911)" fill="#3f1b44"/>
          <path id="Path_80658" data-name="Path 80658" d="M3271.275-176.9s-.712.334-.752.566a4.369,4.369,0,0,1,.54,1.306,6.659,6.659,0,0,1,.084,1.429l.776.347-.454.8,1.345,1.741a12.1,12.1,0,0,0-.329-3.95A5.118,5.118,0,0,0,3271.275-176.9Z" transform="translate(-3266.09 182.314)" fill="#572d60"/>
        </g>
        <g id="Group_41350" data-name="Group 41350" transform="translate(15.902 0)">
          <path id="Path_80659" data-name="Path 80659" d="M3437.305-192.278s-1.266-1.256-2.048.234a13.165,13.165,0,0,1-1.76,2.487,16.163,16.163,0,0,0-.88,2.364c-.14.52.069.688.446,2.268a3.467,3.467,0,0,0,.878,1.5,4.412,4.412,0,0,1,1.643-.557c.639.01-.365-1.922-.365-1.922l.18-1.2C3436.957-188.936,3437.305-192.278,3437.305-192.278Z" transform="translate(-3430.709 197.404)" fill="#db3131"/>
          <path id="Path_80660" data-name="Path 80660" d="M3443.625-85.42a4.045,4.045,0,0,0,0,1.086,1.057,1.057,0,0,0,.205.483s-.456-.152-.662.132.36.558,1.059.489,1.323-1.918,1.323-1.918l-.761-.829A1.794,1.794,0,0,0,3443.625-85.42Z" transform="translate(-3440.394 99.395)" fill="#ffc9b6"/>
          <path id="Path_80661" data-name="Path 80661" d="M3414.107,122.914a5.441,5.441,0,0,0,.171.811,2.219,2.219,0,0,1-.028.993.6.6,0,0,1-.474.33,1.491,1.491,0,0,1-.647-.016,4.772,4.772,0,0,1-.812.751,3.762,3.762,0,0,1-1.75.536c-.445-.068-.684-.415-.649-.639a2.765,2.765,0,0,1,.989-1.112,8.836,8.836,0,0,0,1.106-.969,5.306,5.306,0,0,0,.549-.715Z" transform="translate(-3409.914 -92.281)" fill="#3f1b44"/>
          <path id="Path_80662" data-name="Path 80662" d="M3440.057-91.618a34.515,34.515,0,0,0-1.489,4.62c-.2,1.331-.6,3.346-.841,5.023a23.321,23.321,0,0,0-.125,4.948,19.555,19.555,0,0,1,.157,3.272c.141.6,1.548.675,1.714-.022.1-.433,1.183-4.263,1.292-5.468a5.61,5.61,0,0,0-.176-2.068s1.756-3.76,2.372-5.239a6.277,6.277,0,0,0,.2-3.313Z" transform="translate(-3435.256 104.572)" fill="#6b3faa"/>
          <path id="Path_80663" data-name="Path 80663" d="M3507.466,164.266a5.878,5.878,0,0,1,.208,1.394,1.034,1.034,0,0,1-.306.805.307.307,0,0,1-.336.1,2.548,2.548,0,0,1-.571,1.48,2.135,2.135,0,0,1-1.822.312c-.416-.155-.143-.91.265-1.65a9.1,9.1,0,0,0,1.057-2.2C3506.957,164.364,3507.466,164.266,3507.466,164.266Z" transform="translate(-3496.655 -130.258)" fill="#3f1b44"/>
          <path id="Path_80664" data-name="Path 80664" d="M3476.76-76.829a9.8,9.8,0,0,1,1.135,2.464,16.931,16.931,0,0,1,.3,3.753,26.692,26.692,0,0,1-.077,3.509,6.089,6.089,0,0,0-.154,1.085,14.565,14.565,0,0,1,.612,4.718c-.112,2.557-.32,4.39-.32,4.39a.878.878,0,0,1-.8.55,1.426,1.426,0,0,1-1.034-.354s-1.1-5.413-1.5-6.646a14.817,14.817,0,0,1-.556-2.656l-.83-6.078s-1.643-1.072-.8-3.777C3473.256-77.564,3476.76-76.829,3476.76-76.829Z" transform="translate(-3467.34 91.145)" fill="#7c4db6"/>
          <path id="Path_80665" data-name="Path 80665" d="M3460.8-182.489a10.067,10.067,0,0,0-1.809-.473,5.514,5.514,0,0,0-2.177,3.588,15.489,15.489,0,0,0,.394,3.922c-.451.2-.416.411-.223.664-.184.251-.311.3-.409.54-.188.467.063.689.389,1.04a4.327,4.327,0,0,0,2.666,1.117,3.534,3.534,0,0,0,3.273-1.089.6.6,0,0,0-.25-.777c.263-.8.458-2.32.715-3.277.387-1.441.767-3.155-.067-4.243C3462.936-181.955,3461.543-182.245,3460.8-182.489Z" transform="translate(-3452.678 188.406)" fill="#ee4236"/>
          <path id="Path_80666" data-name="Path 80666" d="M3480.6-177.1a2.092,2.092,0,0,0-.341,1.134,10.372,10.372,0,0,0,.171,1.586,9.312,9.312,0,0,0,2.344-1.055,3.567,3.567,0,0,0,1.283-1.4,9.576,9.576,0,0,0-1.464-.443A11.034,11.034,0,0,0,3480.6-177.1Z" transform="translate(-3474.471 183.198)" fill="#db3131"/>
          <path id="Path_80667" data-name="Path 80667" d="M3486.558-198.076a9.229,9.229,0,0,0-1.693,1.615c-.413.653-.585.919-.368,2.425,1.17-.408,2.749-1.173,3.027-1.983C3487.12-196.242,3486.558-198.076,3486.558-198.076Z" transform="translate(-3478.274 202.27)" fill="#ffb9a4"/>
          <path id="Path_80668" data-name="Path 80668" d="M3472.592-228.251a2.425,2.425,0,0,1,.571-1.651,2.341,2.341,0,0,1,1.7-.392,1.7,1.7,0,0,1,1.3,2.088c-.139,1-.81,2.552-1.93,2.762-.57.107-1.012-.321-1.273-.869A4.514,4.514,0,0,1,3472.592-228.251Z" transform="translate(-3467.432 231.849)" fill="#ffc9b6"/>
          <g id="Group_41349" data-name="Group 41349" transform="translate(5.393 2.71)">
            <path id="Path_80669" data-name="Path 80669" d="M3475.46-216.107l0-.005C3475.46-216.1,3475.46-216.1,3475.46-216.107Z" transform="translate(-3475.457 216.112)" fill="#301333"/>
          </g>
          <path id="Path_80670" data-name="Path 80670" d="M3466.909-81.209a2.685,2.685,0,0,0,1.291.874,3.82,3.82,0,0,0,1.5.153s-.541-.18-.971-.319A14.733,14.733,0,0,0,3466.909-81.209Z" transform="translate(-3462.219 95.019)" fill="#e83a3a"/>
          <path id="Path_80671" data-name="Path 80671" d="M3477.034-88.8a2.183,2.183,0,0,0,1.138.916,2.53,2.53,0,0,0,1.249.131s-.846-.27-1.179-.422S3477.034-88.8,3477.034-88.8Z" transform="translate(-3471.511 101.984)" fill="#e83a3a"/>
          <path id="Path_80672" data-name="Path 80672" d="M3472.367-246.731a.681.681,0,0,0-.629-.58c.255-.568.236-1.272-.44-1.519a1.765,1.765,0,0,0-1.95.446c-.164-.529-.673-.982-1.451-.367a2.115,2.115,0,0,0-.328,2.878,1.768,1.768,0,0,0,2.122.237c.144.729.19.754.77,1.007a1.737,1.737,0,0,0,.876,1.335C3471.411-244.508,3472.556-245.633,3472.367-246.731Z" transform="translate(-3462.45 249.048)" fill="#421e47"/>
          <path id="Path_80673" data-name="Path 80673" d="M3502.325-200.076c-.01-.526.593-.878.731-.342a.915.915,0,0,1-.288.879Z" transform="translate(-3494.722 204.665)" fill="#ffc9b6"/>
        </g>
        <g id="Group_41351" data-name="Group 41351" transform="translate(14.559 6.928)">
          <path id="Path_80674" data-name="Path 80674" d="M3444.134-164.851a19.654,19.654,0,0,0-2.084,3.452,22.079,22.079,0,0,1-.906,2.19s-2.545.144-3.8.325a14.9,14.9,0,0,0-1.718.306,4.117,4.117,0,0,1,.208,1.476c0,.03,0,.065,0,.1a16.7,16.7,0,0,0,3.921.711,17.425,17.425,0,0,0,2.961-.506s1.775-3.489,2.384-4.6A2.492,2.492,0,0,0,3444.134-164.851Z" transform="translate(-3432.166 164.851)" fill="#db3131"/>
          <path id="Path_80675" data-name="Path 80675" d="M3397.044-94.885a5.673,5.673,0,0,0-2.236-.543c-.694.141-1.05.975-1.187,1.317s.1.891.832.839a1.751,1.751,0,0,0,1.042-.346,2.633,2.633,0,0,0,1.755.306A1.209,1.209,0,0,0,3397.044-94.885Z" transform="translate(-3393.585 101.158)" fill="#ffc9b6"/>
        </g>
      </g>
    </g>
  </g>
</svg>
