<svg id="multiple-11" xmlns="http://www.w3.org/2000/svg" width="62.954" height="62.954" viewBox="0 0 62.954 62.954">
  <circle id="Ellipse_48" data-name="Ellipse 48" cx="6.843" cy="6.843" r="6.843" transform="translate(4.106 5.474)" fill="#5ee04d"/>
  <circle id="Ellipse_49" data-name="Ellipse 49" cx="9.58" cy="9.58" r="9.58" transform="translate(21.897 0)" fill="#5ee04d"/>
  <path id="Path_83" data-name="Path 83" d="M17.8,42.881A4.1,4.1,0,0,1,14.686,38.9V23.843a9.545,9.545,0,0,1,2.748-6.7,6.846,6.846,0,0,0-1.38-.14H7.843A6.851,6.851,0,0,0,1,23.843V36.16a1.369,1.369,0,0,0,.936,1.3l3.257,1.085L6.48,52.707a1.37,1.37,0,0,0,1.363,1.244h8.211a1.37,1.37,0,0,0,1.363-1.245l.881-9.7Z" transform="translate(-1 4.897)" fill="#5ee04d"/>
  <circle id="Ellipse_50" data-name="Ellipse 50" cx="6.843" cy="6.843" r="6.843" transform="translate(45.163 5.474)" fill="#5ee04d"/>
  <path id="Path_84" data-name="Path 84" d="M34.864,42.881A4.1,4.1,0,0,0,37.973,38.9V23.843a9.545,9.545,0,0,0-2.748-6.7A6.846,6.846,0,0,1,36.6,17h8.211a6.851,6.851,0,0,1,6.843,6.843V36.16a1.369,1.369,0,0,1-.936,1.3l-3.257,1.085L46.179,52.707a1.37,1.37,0,0,1-1.363,1.244H36.6a1.37,1.37,0,0,1-1.363-1.245l-.881-9.7Z" transform="translate(11.295 4.897)" fill="#5ee04d"/>
  <path id="Path_85" data-name="Path 85" d="M36.266,17H19.843A6.851,6.851,0,0,0,13,23.843V38.9a1.368,1.368,0,0,0,1.036,1.328l4.524,1.13L19.847,56.8a1.369,1.369,0,0,0,1.364,1.255H34.9A1.369,1.369,0,0,0,36.261,56.8l1.286-15.447,4.524-1.13A1.368,1.368,0,0,0,43.108,38.9V23.843A6.851,6.851,0,0,0,36.266,17Z" transform="translate(3.423 4.897)" fill="#5ee04d"/>
</svg>
