<svg xmlns="http://www.w3.org/2000/svg" xmlns:xlink="http://www.w3.org/1999/xlink" width="119.976" height="74.813" viewBox="0 0 119.976 74.813">
  <defs>
    <linearGradient id="linear-gradient" y1="0.5" x2="1" y2="0.5" gradientUnits="objectBoundingBox">
      <stop offset="0" stop-color="#03c1ca" stop-opacity="0.502"/>
      <stop offset="1" stop-color="#5311b9" stop-opacity="0.502"/>
    </linearGradient>
    <linearGradient id="linear-gradient-2" x1="0" y1="0.5" x2="1" y2="0.5" xlink:href="#linear-gradient"/>
    <linearGradient id="linear-gradient-3" x1="0" y1="0.5" x2="1" y2="0.5" xlink:href="#linear-gradient"/>
    <linearGradient id="linear-gradient-4" x1="0" y1="0.5" x2="1" y2="0.5" xlink:href="#linear-gradient"/>
    <linearGradient id="linear-gradient-5" x1="0" y1="0.5" x2="1" y2="0.5" xlink:href="#linear-gradient"/>
    <linearGradient id="linear-gradient-6" x1="-0.001" y1="0.5" x2="1" y2="0.5" xlink:href="#linear-gradient"/>
    <linearGradient id="linear-gradient-7" x1="0" y1="0.5" x2="1" y2="0.5" xlink:href="#linear-gradient"/>
  </defs>
  <g id="Group_45636" data-name="Group 45636" transform="translate(-1198.827 -148.548)">
    <g id="Group_44120" data-name="Group 44120" transform="translate(1267.038 152.07)">
      <path id="Path_92712" data-name="Path 92712" d="M1331.208,177.686c-.569-.407-.548,5.342-2.9,7.617q-.254.245-.518.478c-.161.141-.332.269-.5.4a7.794,7.794,0,0,0,1.964,4.8c2.458-.666,4.461-1.418,4.045-2.033-.9-1.323-.612-6.921-.6-11.841C1332.309,177.747,1331.809,178.09,1331.208,177.686Z" transform="translate(-1295.789 -158.464)" fill="#906a5d"/>
      <path id="Path_92713" data-name="Path 92713" d="M1310.411,185.137c-2.357-2.275-2.336-8.024-2.905-7.617-.765.514-1.368-.178-1.767-1.149-.017,5.051.326,11.044-.6,12.418-.43.635,1.72,1.417,4.288,2.1a7.76,7.76,0,0,0,2.025-4.851C1311.087,185.752,1310.74,185.455,1310.411,185.137Z" transform="translate(-1290.819 -158.298)" fill="#906a5d"/>
      <path id="Path_92714" data-name="Path 92714" d="M1295.925,221.533c-.3-3.356-.308-7.387-.568-11.1a94.158,94.158,0,0,0-1.456-10.286c0-.012.012-.026.018-.04a1.248,1.248,0,0,0-.907,0c-1.651.5-4.071,5.708-5.432,11.623-.28,1.217-.577,2.486-.873,3.79A38.393,38.393,0,0,0,1295.925,221.533Z" transform="translate(-1286.707 -163.592)" fill="#03c1ca"/>
      <path id="Path_92715" data-name="Path 92715" d="M1344.272,200.148a94.156,94.156,0,0,0-1.456,10.286c-.238,3.4-.261,7.068-.5,10.24a38.451,38.451,0,0,0,8.6-6.176c-.218-.944-.432-1.868-.638-2.763-1.361-5.914-3.781-11.125-5.432-11.623a1.6,1.6,0,0,0-.654-.076C1344.241,200.077,1344.272,200.115,1344.272,200.148Z" transform="translate(-1299.154 -163.593)" fill="#03c1ca"/>
      <path id="Path_92716" data-name="Path 92716" d="M1309.178,194.569c.2-.046.292-.067.234-.053a1.189,1.189,0,0,0-.38.165,1.581,1.581,0,0,0-.461.917c-.062.322-.549,1.322,1.468,3.868a64.362,64.362,0,0,1,7.134,12.319l.562,0,.355,0a64.392,64.392,0,0,1,7.134-12.32c2.016-2.546,1.53-3.546,1.469-3.868-.171-.9-.7-1.08-.7-1.08s.023-.006.056-.012a7.209,7.209,0,0,1-1.005-.9,7.793,7.793,0,0,1-1.964-4.8,10.824,10.824,0,0,1-1.265.888,8.6,8.6,0,0,1-1.7.766,8.073,8.073,0,0,1-1.659.344,8.259,8.259,0,0,1-2.112-.061,7.965,7.965,0,0,1-1.668-.453,9.13,9.13,0,0,1-1.715-.906c-.26-.173-.507-.365-.752-.559a7.759,7.759,0,0,1-2.025,4.851,7.284,7.284,0,0,1-.946.841.394.394,0,0,1,.04.009A.6.6,0,0,0,1309.178,194.569Z" transform="translate(-1291.579 -161.079)" fill="#f4ccaf"/>
      <path id="Path_92717" data-name="Path 92717" d="M1307.536,174.275c.569-.407.549,5.342,2.905,7.617.329.317.677.615,1.036.9.245.194.492.386.752.559a9.126,9.126,0,0,0,1.715.906,7.961,7.961,0,0,0,1.668.453,8.258,8.258,0,0,0,2.112.061,8.069,8.069,0,0,0,1.659-.344,8.6,8.6,0,0,0,1.7-.766,10.858,10.858,0,0,0,1.265-.888c.167-.133.338-.262.5-.4q.264-.233.519-.478c2.356-2.275,2.335-8.024,2.9-7.617.6.4,1.1.061,1.482-.572a7.269,7.269,0,0,0,.813-2.7c.122-1.164-.248-1.819-.716-1.791-.219,1.148-.631.8-.945.994-.447.285-1-3.546-3.159-5.335s-2.329-3-2.329-3c-2.155.245-4.264,1.025-7.816,3.851-2.812,2.238-5.32,4.469-6.453,4.768-.314.082-.324-1.117-1.4-.895-.039.009-.081-.088-.117-.265a1.891,1.891,0,0,0-.39,1.672,8.156,8.156,0,0,0,.528,2.122C1306.169,174.1,1306.771,174.789,1307.536,174.275Z" transform="translate(-1290.85 -155.053)" fill="#fcd4b5"/>
      <path id="Path_92718" data-name="Path 92718" d="M1333.57,197.315q.051-.335.105-.554c-.568-.137-1.067-.255-1.456-.346a3.178,3.178,0,0,1,.481.3C1332.889,196.859,1333.212,197.057,1333.57,197.315Z" transform="translate(-1296.893 -162.784)" fill="url(#linear-gradient)"/>
      <path id="Path_92719" data-name="Path 92719" d="M1307.49,196.741a3.723,3.723,0,0,1,.314-.213c-.312.074-.671.158-1.065.254.029.114.057.252.084.415C1307.1,197.008,1307.337,196.856,1307.49,196.741Z" transform="translate(-1291.19 -162.809)" fill="url(#linear-gradient-2)"/>
      <path id="Path_92720" data-name="Path 92720" d="M1334.857,202.178c.16.106-.03.207-.422.3-.247,5.083-.372,11.256-.372,11.256l-3.157.016s.04-2.766.137-6.068a52.147,52.147,0,0,1-5.243,4.13,15.8,15.8,0,0,0-2.283,1.985l10.727-.06a60.189,60.189,0,0,1,.075,8.18,38.232,38.232,0,0,0,3.791-1.735c.236-3.172.259-6.84.5-10.24a94.156,94.156,0,0,1,1.456-10.286c0-.033-.031-.071-.076-.112a24.485,24.485,0,0,0-5.246-1.713c-.1,1.046-.193,2.433-.272,3.958A1.5,1.5,0,0,0,1334.857,202.178Z" transform="translate(-1294.946 -163.101)" fill="#03c1ca"/>
      <path id="Path_92721" data-name="Path 92721" d="M1297.431,209.941c.26,3.712.263,7.742.568,11.1a38.17,38.17,0,0,0,3.721,1.489c-.106-4.787-.12-8.532.075-8.793l10.567.059a17.082,17.082,0,0,0-2.5-2.2,51.055,51.055,0,0,1-4.841-3.744c.094,3.227.133,5.9.133,5.9l-3.158-.016s-.123-6.134-.369-11.208c-.54-.106-.839-.224-.65-.348a1.829,1.829,0,0,0,.6-.727c-.075-1.394-.161-2.655-.255-3.625-2.575.67-5.144,1.421-5.323,1.79-.006.014-.018.028-.018.04A94.192,94.192,0,0,1,1297.431,209.941Z" transform="translate(-1288.781 -163.099)" fill="#03c1ca"/>
      <path id="Path_92722" data-name="Path 92722" d="M1309.339,196.217a.974.974,0,0,0-.146.113,1.194,1.194,0,0,1,.38-.165C1309.631,196.15,1309.538,196.171,1309.339,196.217Z" transform="translate(-1291.74 -162.727)" fill="#1c2121"/>
      <path id="Path_92723" data-name="Path 92723" d="M1332.872,204.339c-1.083.092-1.983.144-1.983.144l1.921,1.29C1332.829,205.289,1332.85,204.809,1332.872,204.339Z" transform="translate(-1296.595 -164.557)" fill="url(#linear-gradient-3)"/>
      <path id="Path_92724" data-name="Path 92724" d="M1307.393,204.363q.029.625.055,1.268l1.7-1.143S1308.371,204.443,1307.393,204.363Z" transform="translate(-1291.337 -164.563)" fill="url(#linear-gradient-4)"/>
      <path id="Path_92725" data-name="Path 92725" d="M1305.835,167.63c1.073-.222,1.084.977,1.4.895,1.133-.3,3.641-2.53,6.453-4.768,3.553-2.826,5.662-3.606,7.816-3.851,0,0,.174,1.211,2.328,3s2.712,5.62,3.159,5.335c.314-.2.726.154.945-.994a14.025,14.025,0,0,0,.153-2.461c0-4.025-1.634-8.171-4.268-8.862-1.268-.331-1.431-1.562-4.247-2.406a10.7,10.7,0,0,0-12.177,4.845,15.6,15.6,0,0,0-1.677,9C1305.754,167.542,1305.8,167.639,1305.835,167.63Z" transform="translate(-1290.937 -153.086)" fill="#906a5d"/>
      <path id="Path_92726" data-name="Path 92726" d="M1329.465,197.243c.061.322.548,1.322-1.469,3.868a64.393,64.393,0,0,0-7.134,12.32l2.061-.012a15.8,15.8,0,0,1,2.283-1.985,52.143,52.143,0,0,0,5.243-4.13c.033-1.091.071-2.238.116-3.365l-1.921-1.29s.9-.053,1.983-.144c.1-2.189.234-4.151.4-5.25-.358-.258-.681-.456-.87-.6a3.18,3.18,0,0,0-.48-.3,1.46,1.46,0,0,0-.86-.2c-.033.005-.056.012-.056.012S1329.295,196.345,1329.465,197.243Z" transform="translate(-1294.352 -162.723)" fill="url(#linear-gradient-5)"/>
      <path id="Path_92727" data-name="Path 92727" d="M1338.005,203.319a1.5,1.5,0,0,1-.387-.388q-.018.34-.034.688C1337.975,203.526,1338.165,203.425,1338.005,203.319Z" transform="translate(-1298.094 -164.242)" fill="url(#linear-gradient-6)"/>
      <path id="Path_92728" data-name="Path 92728" d="M1302.4,203.222c-.189.125.11.243.65.349-.018-.364-.036-.724-.054-1.075A1.826,1.826,0,0,1,1302.4,203.222Z" transform="translate(-1290.207 -164.145)" fill="url(#linear-gradient-7)"/>
      <path id="Path_92729" data-name="Path 92729" d="M1306.847,197.11c.177,1.068.316,3.116.424,5.413.978.08,1.756.126,1.756.126l-1.7,1.143c.05,1.232.093,2.492.126,3.68a51.106,51.106,0,0,0,4.841,3.744,17.092,17.092,0,0,1,2.5,2.2l2.013.011a64.387,64.387,0,0,0-7.134-12.319c-2.017-2.546-1.53-3.546-1.468-3.868a1.582,1.582,0,0,1,.461-.917.988.988,0,0,1,.146-.113.6.6,0,0,1,.1-.05.379.379,0,0,0-.04-.009,1.524,1.524,0,0,0-1.042.287,3.665,3.665,0,0,0-.314.213C1307.362,196.77,1307.121,196.921,1306.847,197.11Z" transform="translate(-1291.215 -162.723)" fill="url(#linear-gradient-5)"/>
      <path id="Path_92730" data-name="Path 92730" d="M1303.162,202.285c.246,5.074.369,11.208.369,11.208l3.157.016s-.039-2.673-.133-5.9c-.034-1.188-.076-2.448-.127-3.68q-.026-.643-.055-1.268c-.108-2.3-.247-4.345-.424-5.413-.027-.163-.055-.3-.084-.414-.005-.025-.012-.055-.018-.078l-3.009.7c0,.042.009.088.013.132.095.969.18,2.231.255,3.625C1303.126,201.561,1303.144,201.921,1303.162,202.285Z" transform="translate(-1290.318 -162.86)" fill="#5311b9"/>
      <path id="Path_92731" data-name="Path 92731" d="M1333.353,202.642c-.022.47-.043.95-.062,1.434-.045,1.127-.084,2.274-.116,3.365-.1,3.3-.137,6.068-.137,6.068l3.157-.016s.124-6.174.372-11.256c.011-.232.023-.462.034-.688.079-1.524.17-2.912.272-3.958,0-.045.01-.094.013-.137l-3.008-.7c-.007.024-.013.056-.019.082-.037.146-.071.331-.106.554C1333.588,198.491,1333.457,200.453,1333.353,202.642Z" transform="translate(-1297.077 -162.86)" fill="#5311b9"/>
      <path id="Path_92732" data-name="Path 92732" d="M1329.715,218.324l-10.727.06-2.06.012-.356,0-.562,0-2.014-.011-10.567-.059c-.195.261-.181,4.006-.074,8.793a38.362,38.362,0,0,0,26.435-.612A60.142,60.142,0,0,0,1329.715,218.324Z" transform="translate(-1290.416 -167.687)" fill="#5311b9"/>
    </g>
    <g id="Group_44121" data-name="Group 44121" transform="translate(1198.827 152.436)">
      <path id="Path_92733" data-name="Path 92733" d="M1241.717,176.169c0-.073,0-.147,0-.22-.037-.1-.076-.213-.117-.331A5.044,5.044,0,0,0,1241.717,176.169Z" transform="translate(-1208.4 -158.494)" fill="none"/>
      <path id="Path_92734" data-name="Path 92734" d="M1220.794,186.376a12.59,12.59,0,0,0,1.711,1.526,8.473,8.473,0,0,0,1.64.946,7.11,7.11,0,0,0,1.6.475,7.194,7.194,0,0,0,3.607-.3,7.851,7.851,0,0,0,1.625-.8,11.052,11.052,0,0,0,1.687-1.35q.254-.243.5-.5c1.84-1.942,2.165-6.3,2.519-7.608a1.451,1.451,0,0,1-.01-.275c.089-1.54.638-3.016.706-4.543a4.991,4.991,0,0,1-.116-.552,11.068,11.068,0,0,0-2.459-4.494c-2.1-1.91-2.274-3.2-2.274-3.2-2.1.26-4.164,1.093-7.632,4.11-2.647,2.3-5.016,4.6-6.175,5.043.094,1.187.243,2.367.4,3.549C1218.566,178.721,1218.681,184.146,1220.794,186.376Z" transform="translate(-1203.054 -156.275)" fill="#ffe6d3"/>
      <path id="Path_92735" data-name="Path 92735" d="M1231.495,164.93s.17,1.292,2.274,3.2a11.066,11.066,0,0,1,2.459,4.494c.041.118.08.227.117.331,0-.13.007-.259,0-.39-.069-.23-.114-.564-.186-.927-.055-.281-.122-.56-.2-.835-.114-.426-.246-.847-.393-1.261a16.332,16.332,0,0,0-.626-1.517,13.84,13.84,0,0,0-.894-1.611,11.1,11.1,0,0,0-1.2-1.546,8.86,8.86,0,0,0-1.546-1.319,7.721,7.721,0,0,0-4.287-1.3,8.116,8.116,0,0,0-2.439.352,7.742,7.742,0,0,0-1.942.921,8.749,8.749,0,0,0-1.557,1.315,11,11,0,0,0-1.212,1.545,13.87,13.87,0,0,0-.9,1.616,16.431,16.431,0,0,0-.63,1.522q-.223.625-.4,1.268c-.075.28-.145.563-.2.848s-.094.539-.14.749c.011.567.047,1.13.091,1.693,1.159-.448,3.527-2.739,6.174-5.043C1227.331,166.023,1229.39,165.19,1231.495,164.93Z" transform="translate(-1203.028 -155.503)" fill="#554c44"/>
      <path id="Path_92736" data-name="Path 92736" d="M1238.726,229.545c-.045-.876-.081-1.6-.05-2.162.161-3-.394-15.574,5.092-18.228,0,0,.008,0,.012,0a.222.222,0,0,0-.028-.115,30.789,30.789,0,0,0-5.143-2.1c.391,1.025-1.537,2.273-6.35,4.833-5.22,2.776-8.615,2.622-8.615,2.622s-3.4.154-8.615-2.622c-4.578-2.435-6.552-3.683-6.4-4.682a27.178,27.178,0,0,0-4.726,1.95.814.814,0,0,1-.105.115s.008,0,.012,0c5.487,2.654,4.932,15.227,5.094,18.228.032.6-.009,1.361-.057,2.3a34.594,34.594,0,0,0,29.876-.141Z" transform="translate(-1199.94 -165.505)" fill="#5311b9"/>
      <path id="Path_92737" data-name="Path 92737" d="M1216.42,199.824c5.22,2.776,8.615,2.622,8.615,2.622s3.4.154,8.615-2.622c4.812-2.559,6.741-3.807,6.35-4.833a.962.962,0,0,0-.143-.257c-.846-1.079-3.809-1.85-5.5-4.781s-.424-4.472,1.411-8.174,1.975-9.1,1.975-15.277-6.5-12.946-12.706-12.946-12.706,6.768-12.706,12.946.141,11.575,1.975,15.277,3.1,5.244,1.411,8.174-4.656,3.7-5.5,4.781a.881.881,0,0,0-.189.408C1209.869,196.141,1211.842,197.389,1216.42,199.824Zm-.52-29.38c.046-.21.085-.471.14-.749s.125-.568.2-.848q.174-.643.4-1.268a16.361,16.361,0,0,1,.63-1.522,13.89,13.89,0,0,1,.9-1.616,11,11,0,0,1,1.212-1.545,8.75,8.75,0,0,1,1.558-1.315,7.74,7.74,0,0,1,1.942-.921,8.118,8.118,0,0,1,2.439-.352,7.722,7.722,0,0,1,4.287,1.3,8.871,8.871,0,0,1,1.546,1.319,11.1,11.1,0,0,1,1.2,1.546,13.825,13.825,0,0,1,.894,1.611,16.231,16.231,0,0,1,.626,1.517c.147.414.279.834.393,1.261.074.276.141.554.2.835.072.362.116.7.185.927.006.13,0,.26,0,.39,0,.074,0,.148,0,.22-.068,1.527-.616,3-.705,4.543a1.432,1.432,0,0,0,.009.275c-.353,1.3-.679,5.666-2.519,7.608q-.242.256-.5.5a11.057,11.057,0,0,1-1.687,1.35,7.845,7.845,0,0,1-1.625.8,7.175,7.175,0,0,1-5.2-.179,8.468,8.468,0,0,1-1.64-.946,12.591,12.591,0,0,1-1.711-1.526c-2.113-2.23-2.228-7.655-2.682-7.972-.155-1.182-.3-2.362-.4-3.549C1215.947,171.574,1215.911,171.01,1215.9,170.444Z" transform="translate(-1201.331 -153.557)" fill="#03c1ca"/>
      <path id="Path_92738" data-name="Path 92738" d="M1248.729,228.019c-.031.566,0,1.286.049,2.162a37.117,37.117,0,0,0,8.874-6c-1.443-7.735-3.077-14.67-3.82-14.389,0,0-.008,0-.012,0C1248.335,212.445,1248.89,225.019,1248.729,228.019Z" transform="translate(-1209.993 -166.141)" fill="#03c1ca"/>
      <path id="Path_92739" data-name="Path 92739" d="M1207.794,228.019c-.161-3,.394-15.574-5.093-18.228,0,0-.008,0-.012,0-.75-.28-2.409,6.791-3.862,14.616a37.033,37.033,0,0,0,8.909,5.916C1207.785,229.381,1207.825,228.616,1207.794,228.019Z" transform="translate(-1198.827 -166.141)" fill="#03c1ca"/>
    </g>
    <g id="Group_44122" data-name="Group 44122" transform="translate(1222.593 148.548)">
      <path id="Path_92740" data-name="Path 92740" d="M1270.94,218.236v0Z" transform="translate(-1238.733 -164.145)" fill="#f4ccaf"/>
      <path id="Path_92741" data-name="Path 92741" d="M1270.65,204.08c5.358-4.11,7.278-6.782,8.093-7.277a11.833,11.833,0,0,1-.458-2.8c-2.628,2.214-3.79,2.971-7.278,2.851-3.762.13-4.815-.758-7.924-3.4-.019-.016-.033-.035-.05-.05a12.51,12.51,0,0,1-.477,3.393C1263.368,197.294,1265.286,199.966,1270.65,204.08Z" transform="translate(-1236.856 -158.588)" fill="#f4ccaf"/>
      <path id="Path_92742" data-name="Path 92742" d="M1265.455,226.93c.2-1.354.4-2.668.6-3.908h0l.01-.069c.615-3.994,1.126-7.182,1.322-8.252v0a.782.782,0,0,1-.241-.22v0a.476.476,0,0,1-.061-.084l0,0c-.1-.235-.211-.454-.317-.665-.022-.045-.045-.088-.068-.132a11.051,11.051,0,0,1-1.289-2.934c-.019-.1-.034-.2-.045-.3,0-.011,0-.02,0-.031a2.7,2.7,0,0,0-.636,1.75c.223,2.353-7.159-6.32-7.04-9.652a24.881,24.881,0,0,1-2.638,1.254l0,0A144.906,144.906,0,0,0,1265.455,226.93Z" transform="translate(-1235.174 -160.607)" fill="url(#linear-gradient-5)"/>
      <path id="Path_92743" data-name="Path 92743" d="M1236.129,210.488l.008,0c-.02.007-.037.015-.057.023h.033C1236.12,210.5,1236.122,210.491,1236.129,210.488Z" transform="translate(-1230.931 -162.41)" fill="#9b9b9b"/>
      <path id="Path_92744" data-name="Path 92744" d="M1277.691,212.1a2.693,2.693,0,0,0-.634-1.747c0,.01,0,.019,0,.029-.011.1-.026.2-.045.3a4.192,4.192,0,0,1-.153.6v0h0a18.566,18.566,0,0,1-1.132,2.323l-.072.14c-.105.21-.212.428-.316.663a.513.513,0,0,1-.063.085v0a.777.777,0,0,1-.243.221c.193,1.059.7,4.2,1.305,8.146.009.058.018.116.027.176h0c.156,1.015.318,2.081.484,3.177a137.922,137.922,0,0,0,10.215-22.6v0a24.734,24.734,0,0,1-2.326-1.105C1284.751,205.9,1277.471,214.437,1277.691,212.1Z" transform="translate(-1239.648 -160.627)" fill="url(#linear-gradient-5)"/>
      <path id="Path_92745" data-name="Path 92745" d="M1309.452,210.5a3.169,3.169,0,0,1,.416.075c-.137-.061-.3-.124-.48-.189l0,0C1309.424,210.4,1309.441,210.441,1309.452,210.5Z" transform="translate(-1247.338 -162.387)" fill="#9b9b9b"/>
      <path id="Path_92746" data-name="Path 92746" d="M1234.629,210.514h-.033a3.168,3.168,0,0,0-.555.1c-1.995.533-3.364,5.364-4.594,10.749a44.706,44.706,0,0,0,10.647,9.215,21.6,21.6,0,0,0-.277-3.065C1239.068,223.383,1234,211.066,1234.629,210.514Z" transform="translate(-1229.446 -162.417)" fill="url(#linear-gradient-5)"/>
      <path id="Path_92747" data-name="Path 92747" d="M1308.353,210.615c-.02-.005-.038-.005-.058-.011a3.161,3.161,0,0,0-.416-.075c.255,1.266-4.508,12.993-5.231,16.985a23.382,23.382,0,0,0-.289,3.571,44.66,44.66,0,0,0,10.766-8.887C1311.786,216.5,1310.45,211.175,1308.353,210.615Z" transform="translate(-1245.765 -162.42)" fill="url(#linear-gradient-5)"/>
      <path id="Path_92748" data-name="Path 92748" d="M1270.139,216.989c.106.211.213.43.317.665l0,0,0,0C1270.352,217.418,1270.245,217.2,1270.139,216.989Z" transform="translate(-1238.554 -163.866)" fill="#fff"/>
      <path id="Path_92749" data-name="Path 92749" d="M1268.327,212.609c0,.011,0,.02,0,.031l0-.034Z" transform="translate(-1238.148 -162.885)" fill="#fff"/>
      <path id="Path_92750" data-name="Path 92750" d="M1277.535,213.041a4.453,4.453,0,0,1-.154.6A4.245,4.245,0,0,0,1277.535,213.041Z" transform="translate(-1240.175 -162.983)" fill="#fff"/>
      <path id="Path_92751" data-name="Path 92751" d="M1277.641,212.612v0c0,.01,0,.021,0,.031C1277.638,212.632,1277.64,212.622,1277.641,212.612Z" transform="translate(-1240.232 -162.886)" fill="#fff"/>
      <path id="Path_92752" data-name="Path 92752" d="M1275.738,216.992c-.105.21-.211.428-.316.663C1275.526,217.42,1275.633,217.2,1275.738,216.992Z" transform="translate(-1239.736 -163.867)" fill="#fff"/>
      <path id="Path_92753" data-name="Path 92753" d="M1268.459,233.8c.033.058.067.114.1.172v-.846C1268.526,233.348,1268.492,233.578,1268.459,233.8Z" transform="translate(-1238.178 -167.478)"/>
      <path id="Path_92754" data-name="Path 92754" d="M1265.478,211.016a2.7,2.7,0,0,1,.635-1.75l0,0c.063-.088.131-.176.2-.265q.23-.286.494-.567c.176-.188.358-.373.546-.554.362-.347.731-.678,1.075-.986.417-.373.789-.709,1.051-.994a2.622,2.622,0,0,0,.245-.307,2.532,2.532,0,0,0,.248.31c.261.285.633.621,1.048.992.344.308.714.639,1.076.986q.283.272.548.556t.493.568c.07.088.138.176.2.265v0a2.693,2.693,0,0,1,.635,1.747c-.221,2.337,7.06-6.2,7.043-9.584a2.031,2.031,0,0,0-.01-.241c-.058-.478-1.451-1.2-2.738-3.379-.1-.173-.243-.182-.452-.055-.814.5-2.734,3.167-8.093,7.277-5.364-4.114-7.282-6.786-8.095-7.278-.208-.126-.348-.116-.45.057-1.286,2.177-2.68,2.9-2.738,3.379-.006.054-.005.115-.007.173C1258.319,204.7,1265.7,213.369,1265.478,211.016Z" transform="translate(-1235.934 -159.542)" fill="#5311b9"/>
      <path id="Path_92755" data-name="Path 92755" d="M1261.823,234.184a9.137,9.137,0,0,0,2.519-2.18c-.315-.4-.634-.831-.959-1.295-.371-.532-.748-1.1-1.128-1.707-.151-.241-.3-.484-.455-.734-.164-.27-.328-.547-.493-.828-.033-.057-.068-.113-.1-.172h0a145,145,0,0,1-10.412-23.244l0,0c-.321-.825-13.865,4.647-14.659,5l-.008,0c-.007,0-.01.014-.016.019-.626.552,4.44,12.869,5.187,17a21.561,21.561,0,0,1,.277,3.065,44.2,44.2,0,0,0,19.941,6.507C1261.594,234.766,1261.7,234.248,1261.823,234.184Z" transform="translate(-1230.925 -160.944)" fill="#5311b9"/>
      <path id="Path_92756" data-name="Path 92756" d="M1300.38,209.029c-.011-.055-.028-.1-.059-.112l0,0c-.774-.344-14.349-5.842-14.637-5h0a137.894,137.894,0,0,1-10.215,22.6c-.162.274-.323.545-.484.81-.353.578-.7,1.129-1.055,1.656-.226.341-.451.671-.675.987-.317.449-.631.868-.942,1.261-.166.209-.33.412-.493.6l-.131.15a9.132,9.132,0,0,1-2.519,2.18c-.126.064-.229.582-.311,1.427,1.141.088,2.29.147,3.454.147a44.251,44.251,0,0,0,22.553-6.147,23.349,23.349,0,0,1,.289-3.571C1295.871,222.022,1300.635,210.295,1300.38,209.029Z" transform="translate(-1238.266 -160.92)" fill="#5311b9"/>
      <path id="Path_92757" data-name="Path 92757" d="M1269.195,190.875c3.488.12,4.65-.637,7.278-2.851l.646-.546c3.264-2.771,1.619-8.554,3.6-8.193,1.946.355,4.156-4.918,2.76-6.247-.678-.065-1.236.577-1.758,1.455-.586.985-.358,2.5-.941,2.469-.786-2.665-.61-5.04-.456-7.808-5.463,1.6-11.09,2.435-15.642-.907-.933-.685-1.836-1.585-3.249-1.562-1.632.027-2.288,1-2.059,2.564.115.786.172,1.847.217,2.313a6.689,6.689,0,0,1-1.232,4.021c-.244.251-.837,1.292-1.192,1.379-.291.071-.093-1.631-1.066-3.1-.769-1.16-1.124-.9-1.124-.9-1.557,1.2.708,6.686,2.689,6.325s.36,5.353,3.551,8.142c.018.016.032.034.051.05C1264.379,190.116,1265.432,191,1269.195,190.875Z" transform="translate(-1235.045 -152.607)" fill="#fcd4b5"/>
      <path id="Path_92758" data-name="Path 92758" d="M1255.946,169.8c.973,1.469.775,3.171,1.067,3.1.355-.087.948-1.129,1.192-1.379a6.691,6.691,0,0,0,1.232-4.021c-.045-.466-.1-1.528-.217-2.313-.229-1.567.426-2.537,2.058-2.564,1.413-.023,2.316.877,3.249,1.562,4.551,3.341,10.179,2.51,15.642.907-.154,2.769-.331,5.143.456,7.808.583.036.355-1.484.941-2.469.522-.877,1.08-1.52,1.758-1.455a1.054,1.054,0,0,1,.254.051c1.624-3.449,1.8-9.063.193-12.521s-4.167-5.079-6.706-7.961c.234.782-.823,1.951-1.821,2.042a18.252,18.252,0,0,1-3.048-.472c-4.2-.508-6.6-.7-10.039.508a12.829,12.829,0,0,0-4.774,2.791,13.192,13.192,0,0,0-3.426,7.043,17.428,17.428,0,0,0-.12,4.217,16.464,16.464,0,0,0,.985,4.223S1255.177,168.644,1255.946,169.8Z" transform="translate(-1234.887 -148.548)" fill="#554c44"/>
    </g>
  </g>
</svg>
