<svg xmlns="http://www.w3.org/2000/svg" width="23.265" height="23.265" viewBox="0 0 23.265 23.265">
  <path id="Icon_awesome-check-circle" data-name="Icon awesome-check-circle" d="M23.828,12.2A11.633,11.633,0,1,1,12.2.563,11.633,11.633,0,0,1,23.828,12.2ZM10.85,18.354,19.48,9.724a.75.75,0,0,0,0-1.061L18.419,7.6a.75.75,0,0,0-1.061,0L10.319,14.64,7.033,11.354a.751.751,0,0,0-1.061,0L4.91,12.415a.75.75,0,0,0,0,1.061l4.878,4.878a.751.751,0,0,0,1.061,0Z" transform="translate(-0.563 -0.563)" fill="#fff"/>
</svg>
