<svg xmlns="http://www.w3.org/2000/svg" width="22.576" height="26.338" viewBox="0 0 22.576 26.338">
  <path id="Icon_metro-language" data-name="Icon metro-language" d="M14.382,18.048q-.015.044-.184-.007t-.463-.169l-.294-.132a8.806,8.806,0,0,1-1.279-.72q-.1-.073-.6-.463T11,16.137A25.039,25.039,0,0,1,9.032,18.8a10.926,10.926,0,0,1-1.543,1.617,1.165,1.165,0,0,1-.287.059.566.566,0,0,1-.272,0q.088-.059,1.205-1.352.309-.353,1.257-1.69A20.548,20.548,0,0,0,10.546,15.7q.25-.441.75-1.448a11.457,11.457,0,0,0,.529-1.139,12.078,12.078,0,0,0-1.617.485q-.118.029-.4.11t-.507.14a2.518,2.518,0,0,0-.25.073.25.25,0,0,0-.029.154.326.326,0,0,1-.015.14q-.074.147-.456.22a1.185,1.185,0,0,1-.691,0,.62.62,0,0,1-.412-.309.748.748,0,0,1-.073-.338,2.84,2.84,0,0,1,.36-.073,4.389,4.389,0,0,0,.434-.088q.852-.235,1.543-.47,1.47-.514,1.5-.514a3.261,3.261,0,0,0,.632-.287,6.648,6.648,0,0,1,.647-.316q.132-.044.316-.118t.213-.081a.2.2,0,0,1,.088.007,1.672,1.672,0,0,1-.015.485,3.13,3.13,0,0,1-.184.4q-.184.367-.389.786t-.25.492a22.043,22.043,0,0,1-1.132,1.925l.941.412q.176.088,1.095.47l.992.412q.059.015.154.375a1.114,1.114,0,0,1,.066.448ZM11.369,10.9a.6.6,0,0,1-.059.412,1.332,1.332,0,0,1-.735.559,2.359,2.359,0,0,1-.882.176,1.216,1.216,0,0,1-.72-.382,1.105,1.105,0,0,1-.265-.6l.015-.044a.629.629,0,0,0,.287.073,1.278,1.278,0,0,0,.389,0q.147-.029.852-.235a4.2,4.2,0,0,1,.808-.206.29.29,0,0,1,.309.25Zm10.259,1.9.926,3.336-2.043-.617ZM5.343,24.559l10.2-3.41V5.981L5.343,9.405V24.559ZM23.583,19.9l1.5.456L22.422,10.7l-1.47-.456-3.175,7.878,1.5.456.661-1.617,3.1.955ZM16.19,5.76l8.422,2.7V2.88Zm4.571,19.445,2.322.191-.794,2.352-.588-.97a10.9,10.9,0,0,1-4.057,1.587,7.044,7.044,0,0,1-1.337.176H15.073a9.934,9.934,0,0,1-2.932-.573,9.76,9.76,0,0,1-2.7-1.249.306.306,0,0,1-.118-.235.284.284,0,0,1,.073-.2.246.246,0,0,1,.191-.081.827.827,0,0,1,.265.11l.448.243q.243.132.3.162a13.022,13.022,0,0,0,2.344.9,8.564,8.564,0,0,0,2.315.36,12.542,12.542,0,0,0,2.455-.213,12.113,12.113,0,0,0,2.308-.742q.22-.1.448-.228t.5-.279q.272-.154.419-.243ZM27.345,9.347V25.205L15.969,21.59q-.206.088-5.512,1.874T5.049,25.249a.266.266,0,0,1-.265-.191.113.113,0,0,0-.015-.044V9.17a.656.656,0,0,1,.059-.147.661.661,0,0,1,.294-.162q1.558-.514,2.19-.735V2.483l8.2,2.91q.029,0,2.359-.808T22.517,2.99Q24.832,2.2,24.891,2.2q.294,0,.294.309V8.656Z" transform="translate(-4.77 -2.203)" fill="#a1a3ef"/>
</svg>
