<svg xmlns="http://www.w3.org/2000/svg" width="42" height="42" viewBox="0 0 42 42">
  <g id="Group_48" data-name="Group 48" transform="translate(0.37 0.204)">
    <path id="twitter_1_" data-name="twitter (1)" d="M23.129,50.225a9.886,9.886,0,0,1-2.732.749,4.715,4.715,0,0,0,2.086-2.621A9.476,9.476,0,0,1,19.476,49.5a4.741,4.741,0,0,0-8.2,3.242,4.882,4.882,0,0,0,.11,1.081,13.421,13.421,0,0,1-9.773-4.96A4.743,4.743,0,0,0,3.067,55.2a4.682,4.682,0,0,1-2.142-.584v.052a4.763,4.763,0,0,0,3.8,4.659,4.733,4.733,0,0,1-1.243.156,4.192,4.192,0,0,1-.9-.081,4.787,4.787,0,0,0,4.431,3.3,9.527,9.527,0,0,1-5.879,2.022A8.88,8.88,0,0,1,0,64.664a13.349,13.349,0,0,0,7.274,2.128A13.4,13.4,0,0,0,20.769,53.3c0-.21-.007-.412-.017-.613A9.459,9.459,0,0,0,23.129,50.225Z" transform="translate(8.741 -37.074)" fill="#fff"/>
    <g id="Ellipse_16" data-name="Ellipse 16" transform="translate(-0.37 -0.204)" fill="none" stroke="#9c9ca8" stroke-width="1">
      <circle cx="21" cy="21" r="21" stroke="none"/>
      <circle cx="21" cy="21" r="20.5" fill="none"/>
    </g>
  </g>
</svg>
