<svg xmlns="http://www.w3.org/2000/svg" xmlns:xlink="http://www.w3.org/1999/xlink" width="243.36" height="243.36" viewBox="0 0 243.36 243.36">
  <defs>
    <filter id="Path_93139" x="0" y="0" width="243.36" height="243.36" filterUnits="userSpaceOnUse">
      <feOffset dy="15" input="SourceAlpha"/>
      <feGaussianBlur stdDeviation="10" result="blur"/>
      <feFlood flood-color="#151d41" flood-opacity="0.059"/>
      <feComposite operator="in" in2="blur"/>
      <feComposite in="SourceGraphic"/>
    </filter>
  </defs>
  <g id="Group_44921" data-name="Group 44921" transform="translate(-555.706 -3258.57)">
    <g id="Group_44916" data-name="Group 44916" transform="translate(-14206.836 23567)">
      <g transform="matrix(1, 0, 0, 1, 14762.54, -20308.43)" filter="url(#Path_93139)">
        <path id="Path_93139-2" data-name="Path 93139" d="M91.68,0A91.68,91.68,0,1,1,0,91.68,91.68,91.68,0,0,1,91.68,0Z" transform="translate(30 15)" fill="#cacbf6"/>
      </g>
      <g id="Subtraction_11" data-name="Subtraction 11" transform="translate(14883.821 -20272.172)" fill="#a1a3ef">
        <path d="M 63.66069030761719 64.02686309814453 L 7.500004768371582 64.02686309814453 L 7.500004768371582 7.939071178436279 C 9.308415412902832 8.149922370910645 11.10381698608398 8.436313629150391 12.87670516967773 8.797277450561523 C 16.99200439453125 9.635377883911133 21.04082107543945 10.88627815246582 24.91033744812012 12.51514434814453 C 28.70938873291016 14.11451148986816 32.37465667724609 16.09464454650879 35.80410385131836 18.40046119689941 C 39.19990539550781 20.6838436126709 42.39503860473633 23.30776023864746 45.30047225952148 26.19909477233887 C 48.20297241210938 29.08794403076172 50.83843994140625 32.26700973510742 53.13327026367188 35.64760971069336 C 55.44828796386719 39.05832672119141 57.43592071533203 42.70282745361328 59.04073715209961 46.47951126098633 C 60.6751708984375 50.3254280090332 61.93025588989258 54.34954452514648 62.77128982543945 58.44037628173828 C 63.14990615844727 60.28200531005859 63.44670486450195 62.1474494934082 63.66069030761719 64.02686309814453 Z" stroke="none"/>
        <path d="M 54.60657501220703 56.52685546875 C 53.94540023803711 54.10334014892578 53.11938095092773 51.7216911315918 52.1380729675293 49.41261672973633 C 50.72316741943359 46.08283233642578 48.97006988525391 42.86861801147461 46.92792892456055 39.85992813110352 C 44.90138244628906 36.87456893920898 42.5736198425293 34.0667610168457 40.01007080078125 31.51526069641113 C 37.44250106811523 28.96014213562012 34.61930847167969 26.64164161682129 31.61933326721191 24.62442779541016 C 28.59062004089355 22.58804702758789 25.35423851013184 20.83954620361328 22.0004768371582 19.42766571044922 C 19.72726821899414 18.47074699401855 17.38404083251953 17.66167640686035 15 17.00945472717285 L 15 56.52685546875 L 54.60657501220703 56.52685546875 M 71.57278442382812 71.52685546875 L 71.57223510742188 71.52685546875 L 71.57278442382812 71.52685546875 Z M 71.57278442382812 71.52685546875 L 7.411411928615053e-08 71.52685546875 L 7.411411928615053e-08 -8.370535624635522e-07 C 4.840000152587891 0.004261067602783442 9.675619125366211 0.491642028093338 14.37304782867432 1.448070645332336 C 18.9719295501709 2.384642124176025 23.49619102478027 3.782451629638672 27.82016754150391 5.602642059326172 C 32.06452560424805 7.389451503753662 36.15864181518555 9.601213455200195 39.98883438110352 12.17647552490234 C 43.78045272827148 14.725998878479 47.34747695922852 17.6552619934082 50.59085845947266 20.88290405273438 C 53.83233261108398 24.1091423034668 56.7755012512207 27.65947532653809 59.33859634399414 31.43526077270508 C 61.92649841308594 35.24802398681641 64.14868927001953 39.32278442382812 65.94340515136719 43.54637908935547 C 67.77211761474609 47.84942626953125 69.17652130126953 52.35235595703125 70.11764526367188 56.93006896972656 C 71.08342742919922 61.62776184082031 71.57314300537109 66.46240234375 71.57314300537109 71.29969024658203 C 71.57314300537109 71.37509155273438 71.572998046875 71.450927734375 71.57278442382812 71.52630615234375 L 71.57278442382812 71.52685546875 Z" stroke="none" fill="#a1a3ef"/>
      </g>
      <g id="Group_212" data-name="Group 212" transform="translate(14816.073 -20268.613)">
        <g id="Path_65" data-name="Path 65" transform="translate(0 0)" fill="#fff">
          <path d="M 67.21860504150391 133.4371948242188 C 58.27871322631836 133.4371948242188 49.60676956176758 131.6865234375 41.44364166259766 128.2338104248047 C 37.52013397216797 126.5743179321289 33.73583984375 124.5202407836914 30.19585990905762 122.1286773681641 C 26.68926048278809 119.7596817016602 23.39176940917969 117.0389862060547 20.39498710632324 114.0422058105469 C 17.3982048034668 111.0454406738281 14.67753219604492 107.7479553222656 12.30851459503174 104.2413558959961 C 9.916950225830078 100.7013702392578 7.86287784576416 96.91706085205078 6.203386783599854 92.99355316162109 C 2.750677824020386 84.8304443359375 1.000005006790161 76.15847778320312 1.000005006790161 67.21858978271484 C 1.000005006790161 58.95295333862305 2.504441499710083 50.89106369018555 5.471496105194092 43.25686264038086 C 8.339986801147461 35.87629699707031 12.48511409759521 29.11160850524902 17.79176902770996 23.15069961547852 C 20.8104419708252 19.75980758666992 24.19264221191406 16.669189453125 27.84440422058105 13.96468067169189 C 31.52593231201172 11.23811721801758 35.50025939941406 8.890316963195801 39.65696716308594 6.986462593078613 C 43.89175033569336 5.046844482421875 48.34489440917969 3.555171489715576 52.89267730712891 2.552862405776978 C 57.56798553466797 1.522462487220764 62.38791275024414 1.0000079870224 67.21860504150391 1.0000079870224 C 76.15849304199219 1.0000079870224 84.83045959472656 2.750680685043335 92.99356842041016 6.203389644622803 C 96.91707611083984 7.862880706787109 100.7013854980469 9.916953086853027 104.2413711547852 12.30851745605469 C 107.7479705810547 14.67751693725586 111.0454559326172 17.39820861816406 114.0422210693359 20.39498901367188 C 117.0390014648438 23.39175415039062 119.7596969604492 26.68924522399902 122.1286926269531 30.19584465026855 C 124.5202560424805 33.73582458496094 126.574333190918 37.52013397216797 128.2338256835938 41.44364547729492 C 131.6865386962891 49.60675430297852 133.4372100830078 58.2786979675293 133.4372100830078 67.21858978271484 C 133.4372100830078 76.15847778320312 131.6865386962891 84.8304443359375 128.2338256835938 92.99355316162109 C 126.574333190918 96.91706085205078 124.5202560424805 100.7013702392578 122.1286926269531 104.2413558959961 C 119.7596969604492 107.7479553222656 117.0390014648438 111.0454406738281 114.0422210693359 114.0422058105469 C 111.0454559326172 117.0389862060547 107.7479705810547 119.7596817016602 104.2413711547852 122.1286773681641 C 100.7013854980469 124.5202407836914 96.91707611083984 126.5743179321289 92.99356842041016 128.2338104248047 C 84.83045959472656 131.6865234375 76.15849304199219 133.4371948242188 67.21860504150391 133.4371948242188 Z" stroke="none"/>
          <path d="M 67.21860504150391 1.999984741210938 C 62.46016693115234 1.999984741210938 57.71263885498047 2.514572143554688 53.10789489746094 3.5294189453125 C 48.62925720214844 4.5164794921875 44.24380493164062 5.9854736328125 40.07338714599609 7.8956298828125 C 35.97962188720703 9.770645141601562 32.06544494628906 12.08293151855469 28.43955230712891 14.76828002929688 C 24.8428955078125 17.43196868896484 21.51177215576172 20.47593688964844 18.53868103027344 23.81560516357422 C 13.31156921386719 29.68718719482422 9.228729248046875 36.35004425048828 6.403579711914062 43.61911773681641 C 3.481582641601562 51.13735198974609 2 59.07736968994141 2 67.21858978271484 C 2 76.02393341064453 3.724090576171875 84.56480407714844 7.1243896484375 92.60400390625 C 8.758735656738281 96.46804809570312 10.78171539306641 100.1950607299805 13.13713073730469 103.6815338134766 C 15.47051239013672 107.1354064941406 18.15031433105469 110.3833312988281 21.10208129882812 113.3350982666016 C 24.05385589599609 116.286865234375 27.30178833007812 118.9666595458984 30.75566101074219 121.3000411987305 C 34.24213409423828 123.6554641723633 37.96914672851562 125.6784439086914 41.83318328857422 127.3127899169922 C 49.87238311767578 130.7130737304688 58.41326141357422 132.4371643066406 67.21860504150391 132.4371643066406 C 76.02394866943359 132.4371643066406 84.5648193359375 130.7130737304688 92.60401916503906 127.3127899169922 C 96.46806335449219 125.6784439086914 100.1950759887695 123.6554641723633 103.6815490722656 121.3000411987305 C 107.1354217529297 118.9666595458984 110.3833465576172 116.286865234375 113.3351287841797 113.3350982666016 C 116.2868957519531 110.3833312988281 118.9666976928711 107.1354064941406 121.3000793457031 103.6815338134766 C 123.6554946899414 100.1950607299805 125.6784820556641 96.46804809570312 127.3128204345703 92.60400390625 C 130.7131195068359 84.56480407714844 132.4372100830078 76.02393341064453 132.4372100830078 67.21858978271484 C 132.4372100830078 58.41326141357422 130.7131195068359 49.87236785888672 127.3128204345703 41.83319091796875 C 125.6784820556641 37.96915435791016 123.6554946899414 34.24211883544922 121.3000793457031 30.75564575195312 C 118.9666976928711 27.30178833007812 116.2868957519531 24.05384063720703 113.3351135253906 21.10208129882812 C 110.3833465576172 18.15029907226562 107.1354217529297 15.47049713134766 103.6815490722656 13.13711547851562 C 100.1950759887695 10.78170013427734 96.46806335449219 8.758720397949219 92.60401916503906 7.124374389648438 C 84.5648193359375 3.724075317382812 76.02394866943359 1.999984741210938 67.21860504150391 1.999984741210938 M 67.21860504150391 -1.52587890625e-05 C 104.3424224853516 -1.52587890625e-05 134.4372100830078 30.09478759765625 134.4372100830078 67.21858978271484 C 134.4372100830078 104.3424072265625 104.3424224853516 134.4371643066406 67.21860504150391 134.4371643066406 C 30.09478759765625 134.4371643066406 0 104.3424072265625 0 67.21858978271484 C 0 50.06748199462891 6.423492431640625 34.41666412353516 17.04486083984375 22.48575592041016 C 29.30773162841797 8.710823059082031 47.24591064453125 -1.52587890625e-05 67.21860504150391 -1.52587890625e-05 Z" stroke="none" fill="#dfe4fb"/>
        </g>
      </g>
      <path id="Icon_awesome-car-battery" data-name="Icon awesome-car-battery" d="M70.818,13.942H66.1V6.861A2.36,2.36,0,0,0,63.736,4.5H49.573a2.36,2.36,0,0,0-2.361,2.361v7.082H28.327V6.861A2.36,2.36,0,0,0,25.967,4.5H11.8A2.36,2.36,0,0,0,9.442,6.861v7.082H4.721A4.722,4.722,0,0,0,0,18.664v37.77a4.722,4.722,0,0,0,4.721,4.721h66.1a4.722,4.722,0,0,0,4.721-4.721V18.664A4.722,4.722,0,0,0,70.818,13.942ZM28.327,34.007a1.18,1.18,0,0,1-1.18,1.18H10.623a1.18,1.18,0,0,1-1.18-1.18V31.647a1.18,1.18,0,0,1,1.18-1.18H27.147a1.18,1.18,0,0,1,1.18,1.18Zm37.77,0a1.18,1.18,0,0,1-1.18,1.18h-5.9v5.9a1.18,1.18,0,0,1-1.18,1.18H55.474a1.18,1.18,0,0,1-1.18-1.18v-5.9h-5.9a1.18,1.18,0,0,1-1.18-1.18V31.647a1.18,1.18,0,0,1,1.18-1.18h5.9v-5.9a1.18,1.18,0,0,1,1.18-1.18h2.361a1.18,1.18,0,0,1,1.18,1.18v5.9h5.9a1.18,1.18,0,0,1,1.18,1.18Z" transform="translate(14844.605 -20236.006)" fill="#6e00ff"/>
    </g>
  </g>
</svg>
