<svg xmlns="http://www.w3.org/2000/svg" xmlns:xlink="http://www.w3.org/1999/xlink" width="243.36" height="243.36" viewBox="0 0 243.36 243.36">
  <defs>
    <filter id="Path_93137" x="0" y="0" width="243.36" height="243.36" filterUnits="userSpaceOnUse">
      <feOffset dy="15" input="SourceAlpha"/>
      <feGaussianBlur stdDeviation="10" result="blur"/>
      <feFlood flood-color="#151d41" flood-opacity="0.059"/>
      <feComposite operator="in" in2="blur"/>
      <feComposite in="SourceGraphic"/>
    </filter>
    <filter id="Path_93148" x="87.74" y="137.699" width="74.718" height="28.635" filterUnits="userSpaceOnUse">
      <feOffset dx="4" dy="6" input="SourceAlpha"/>
      <feGaussianBlur stdDeviation="3" result="blur-2"/>
      <feFlood flood-color="#fff" flood-opacity="0.161"/>
      <feComposite operator="in" in2="blur-2"/>
      <feComposite in="SourceGraphic"/>
    </filter>
    <filter id="Path_93150" x="71.016" y="57.168" width="110.166" height="92.442" filterUnits="userSpaceOnUse">
      <feOffset dx="5" dy="7" input="SourceAlpha"/>
      <feGaussianBlur stdDeviation="3" result="blur-3"/>
      <feFlood flood-color="#fff" flood-opacity="0.161"/>
      <feComposite operator="in" in2="blur-3"/>
      <feComposite in="SourceGraphic"/>
    </filter>
  </defs>
  <g id="Group_44920" data-name="Group 44920" transform="translate(-162.32 -3258.57)">
    <g id="Group_44914" data-name="Group 44914" transform="translate(-14164.273 23567)">
      <g transform="matrix(1, 0, 0, 1, 14326.59, -20308.43)" filter="url(#Path_93137)">
        <path id="Path_93137-2" data-name="Path 93137" d="M91.68,0A91.68,91.68,0,1,1,0,91.68,91.68,91.68,0,0,1,91.68,0Z" transform="translate(30 15)" fill="#cacbf6"/>
      </g>
      <g id="Subtraction_5" data-name="Subtraction 5" transform="translate(14446.402 -20271.914)" fill="#fff">
        <path d="M 7.500449657440186 134.2657318115234 L 7.500027656555176 7.931581020355225 C 9.344296455383301 8.14292049407959 11.1744270324707 8.43140983581543 12.98177623748779 8.796194076538086 C 17.13052558898926 9.633169174194336 21.21165084838867 10.8823938369751 25.11240196228027 12.50929355621338 C 28.94175148010254 14.10644340515137 32.63457489013672 16.08291816711426 36.08825302124023 18.38384437561035 C 39.50990295410156 20.6635684967041 42.72725296020508 23.28131866455078 45.65075302124023 26.16424369812012 C 48.5723762512207 29.04536819458008 51.22460174560547 32.21516799926758 53.53372573852539 35.58561706542969 C 55.8624267578125 38.98479461669922 57.86157608032227 42.61654281616211 59.4755744934082 46.37984466552734 C 61.11840057373047 50.21041870117188 62.38022613525391 54.21886825561523 63.22600173950195 58.29386901855469 C 64.09402465820312 62.47704315185547 64.53420257568359 66.78519439697266 64.53420257568359 71.09829711914062 C 64.53420257568359 75.41166687011719 64.09402465820312 79.71994018554688 63.22592544555664 83.90346527099609 C 62.380126953125 87.97886657714844 61.11832809448242 91.98719024658203 59.47570037841797 95.81681823730469 C 57.8609504699707 99.58184051513672 55.8618278503418 103.2136917114258 53.53375244140625 106.6117172241211 C 51.22517776489258 109.9814224243164 48.5728759765625 113.1512908935547 45.6505012512207 116.0333938598633 C 42.7285270690918 118.9148941040039 39.51105117797852 121.5327224731445 36.08760070800781 123.8140182495117 C 32.6338005065918 126.1147689819336 28.94087600708008 128.0913238525391 25.11232566833496 129.6881408691406 C 21.21165084838867 131.3150177001953 17.13052558898926 132.5642395019531 12.98245143890381 133.4010925292969 C 11.17500972747803 133.7658538818359 9.344509124755859 134.0543823242188 7.500449657440186 134.2657318115234 Z" stroke="none"/>
        <path d="M 15.00041198730469 125.2274551391602 C 17.4614429473877 124.5677871704102 19.88038444519043 123.7440719604492 22.22516822814941 122.7661285400391 C 25.61043548583984 121.3541641235352 28.87576866149902 119.6064605712891 31.92866706848145 117.5727615356445 C 34.95613479614258 115.5553283691406 37.80110168457031 113.2406616210938 40.38410186767578 110.6934280395508 C 42.96593475341797 108.1471939086914 45.30836868286133 105.3477935791016 47.34659957885742 102.3726959228516 C 49.39883422851562 99.37729644775391 51.1605339050293 96.17706298828125 52.58300018310547 92.86035919189453 C 54.02826690673828 89.49089050292969 55.13836669921875 85.96449279785156 55.88236618041992 82.37966156005859 C 56.64666748046875 78.69632720947266 57.03420257568359 74.90072631835938 57.03420257568359 71.09829711914062 C 57.03420257568359 67.29612731933594 56.64666748046875 63.50065994262695 55.88249969482422 59.8179931640625 C 55.13846969604492 56.23319244384766 54.02826690673828 52.70656204223633 52.58276748657227 49.3360595703125 C 51.16110229492188 46.02119445800781 49.39929962158203 42.82099533081055 47.34646606445312 39.82452774047852 C 45.30776977539062 36.84875869750977 42.96543502807617 34.04949569702148 40.38456726074219 31.50442695617676 C 37.80000305175781 28.9556941986084 34.9553337097168 26.64119338989258 31.92993545532227 24.6254940032959 C 28.87623405456543 22.59106063842773 25.61113548278809 20.8434944152832 22.22530174255371 19.43136024475098 C 19.88042831420898 18.45336723327637 17.46155738830566 17.62966537475586 15.00005722045898 16.96989822387695 L 15.00041198730469 125.2274551391602 M 0.0004679544945247471 142.1973876953125 L 1.287841769226361e-06 142.1973876953125 L 1.287841769226361e-06 -6.152343758003553e-06 C 4.871934413909912 0.00426051439717412 9.738734245300293 0.4903938472270966 14.46560096740723 1.444460511207581 C 19.09346771240234 2.378060579299927 23.64690208435059 3.771893739700317 27.9994010925293 5.587227344512939 C 32.27239990234375 7.369393825531006 36.3929328918457 9.574793815612793 40.24656677246094 12.14216041564941 C 44.06453323364258 14.68592739105225 47.65453338623047 17.6069278717041 50.91686630249023 20.82402801513672 C 54.17923355102539 24.0411262512207 57.14133453369141 27.58149337768555 59.72090148925781 31.34669303894043 C 62.32540130615234 35.1484260559082 64.56196594238281 39.21169281005859 66.36840057373047 43.4236946105957 C 68.20860290527344 47.71446228027344 69.62203216552734 52.20469284057617 70.56950378417969 56.76969528198242 C 71.54136657714844 61.45332717895508 72.03420257568359 66.27416229248047 72.03420257568359 71.09829711914062 C 72.03420257568359 75.92266082763672 71.54136657714844 80.74365997314453 70.56950378417969 85.42729187011719 C 69.62190246582031 89.99309539794922 68.20846557617188 94.48336029052734 66.36840057373047 98.77329254150391 C 64.56137084960938 102.9866638183594 62.32480239868164 107.0500946044922 59.72090148925781 110.8506927490234 C 57.14216613769531 114.6147613525391 54.18009948730469 118.1550903320312 50.91686630249023 121.3733596801758 C 47.65579986572266 124.5892639160156 44.06573486328125 127.5102615356445 40.24656677246094 130.0552215576172 C 36.39193344116211 132.6230316162109 32.27130126953125 134.8284301757812 27.9994010925293 136.6101989746094 C 23.64690208435059 138.4255218505859 19.09346771240234 139.8193664550781 14.46560096740723 140.7529602050781 C 9.737801551818848 141.7071228027344 4.870967864990234 142.1930999755859 0.0004679544945247471 142.1973876953125 Z" stroke="none" fill="#a1a3ef"/>
      </g>
      <g id="Group_44898" data-name="Group 44898" transform="translate(14378.986 -20268.613)">
        <g id="Path_65" data-name="Path 65" transform="translate(0 0)" fill="#fff">
          <path d="M67.219,0A67.217,67.217,0,1,1,17.045,22.486,67.219,67.219,0,0,1,67.219,0Z" stroke="none"/>
          <path d="M 67.21860504150391 1.999984741210938 C 62.46016693115234 1.999984741210938 57.71263885498047 2.514572143554688 53.10789489746094 3.5294189453125 C 48.62925720214844 4.5164794921875 44.24380493164062 5.9854736328125 40.07338714599609 7.8956298828125 C 35.97962188720703 9.770645141601562 32.06544494628906 12.08293151855469 28.43955230712891 14.76828002929688 C 24.8428955078125 17.43196868896484 21.51177215576172 20.47593688964844 18.53868103027344 23.81560516357422 C 13.31156921386719 29.68718719482422 9.228729248046875 36.35004425048828 6.403579711914062 43.61911773681641 C 3.481582641601562 51.13735198974609 2 59.07736968994141 2 67.21858978271484 C 2 76.02393341064453 3.724090576171875 84.56480407714844 7.1243896484375 92.60400390625 C 8.758735656738281 96.46804809570312 10.78171539306641 100.1950607299805 13.13713073730469 103.6815338134766 C 15.47051239013672 107.1354064941406 18.15031433105469 110.3833312988281 21.10208129882812 113.3350982666016 C 24.05385589599609 116.286865234375 27.30178833007812 118.9666595458984 30.75566101074219 121.3000411987305 C 34.24213409423828 123.6554641723633 37.96914672851562 125.6784439086914 41.83318328857422 127.3127899169922 C 49.87238311767578 130.7130737304688 58.41326141357422 132.4371643066406 67.21860504150391 132.4371643066406 C 76.02394866943359 132.4371643066406 84.5648193359375 130.7130737304688 92.60401916503906 127.3127899169922 C 96.46806335449219 125.6784439086914 100.1950759887695 123.6554641723633 103.6815490722656 121.3000411987305 C 107.1354217529297 118.9666595458984 110.3833465576172 116.286865234375 113.3351287841797 113.3350982666016 C 116.2868957519531 110.3833312988281 118.9666976928711 107.1354064941406 121.3000793457031 103.6815338134766 C 123.6554946899414 100.1950607299805 125.6784820556641 96.46804809570312 127.3128204345703 92.60400390625 C 130.7131195068359 84.56480407714844 132.4372100830078 76.02393341064453 132.4372100830078 67.21858978271484 C 132.4372100830078 58.41326141357422 130.7131195068359 49.87236785888672 127.3128204345703 41.83319091796875 C 125.6784820556641 37.96915435791016 123.6554946899414 34.24211883544922 121.3000793457031 30.75564575195312 C 118.9666976928711 27.30178833007812 116.2868957519531 24.05384063720703 113.3351135253906 21.10208129882812 C 110.3833465576172 18.15029907226562 107.1354217529297 15.47049713134766 103.6815490722656 13.13711547851562 C 100.1950759887695 10.78170013427734 96.46806335449219 8.758720397949219 92.60401916503906 7.124374389648438 C 84.5648193359375 3.724075317382812 76.02394866943359 1.999984741210938 67.21860504150391 1.999984741210938 M 67.21860504150391 -1.52587890625e-05 C 104.3424224853516 -1.52587890625e-05 134.4372100830078 30.09478759765625 134.4372100830078 67.21858978271484 C 134.4372100830078 104.3424072265625 104.3424224853516 134.4371643066406 67.21860504150391 134.4371643066406 C 30.09478759765625 134.4371643066406 0 104.3424072265625 0 67.21858978271484 C 0 50.06748199462891 6.423492431640625 34.41666412353516 17.04486083984375 22.48575592041016 C 29.30773162841797 8.710823059082031 47.24591064453125 -1.52587890625e-05 67.21860504150391 -1.52587890625e-05 Z" stroke="none" fill="rgba(136,156,238,0.27)"/>
        </g>
      </g>
      <g transform="matrix(1, 0, 0, 1, 14326.59, -20308.43)" filter="url(#Path_93148)">
        <path id="Path_93148-2" data-name="Path 93148" d="M9,29.25H65.718V39.885H9Z" transform="translate(83.74 111.45)" fill="#6e00ff"/>
      </g>
      <path id="Path_93149" data-name="Path 93149" d="M30.024,37.113A7.09,7.09,0,1,0,28.074,23.2L13.3,12.41l-.886.775L23.244,27.963a6.916,6.916,0,0,0-.31,2.06A7.082,7.082,0,0,0,30.024,37.113Z" transform="translate(14417.669 -20233.203)" fill="#6e00ff"/>
      <g transform="matrix(1, 0, 0, 1, 14326.59, -20308.43)" filter="url(#Path_93150)">
        <path id="Path_93150-2" data-name="Path 93150" d="M49.458,3.375A46.072,46.072,0,0,0,13.145,77.817H26.173l.886-.886,4.9-4.9-5.074-5.074-4.9,4.874A35.314,35.314,0,0,1,14.187,53H21.1v-7.09H14.187a35.314,35.314,0,0,1,7.8-18.832l4.9,4.874,5.074-5.074-4.874-4.9a35.314,35.314,0,0,1,18.832-7.8V21.1H53V14.187a35.314,35.314,0,0,1,18.832,7.8l-4.874,4.9,5.074,5.074,4.9-4.874a35.314,35.314,0,0,1,7.8,18.832H77.817V53h6.912a35.314,35.314,0,0,1-7.8,18.832l-4.9-4.874-5.074,5.074,4.9,4.9.886.886H85.771A46.072,46.072,0,0,0,49.458,3.375Z" transform="translate(71.64 55.79)" fill="#6e00ff"/>
      </g>
    </g>
  </g>
</svg>
