<svg xmlns="http://www.w3.org/2000/svg" width="63.852" height="42.568" viewBox="0 0 63.852 42.568">
  <path id="Icon_metro-visa" data-name="Icon metro-visa" d="M57.3,34.178H53.48q.388-1.025,1.829-4.961l.083-.249q.111-.277.277-.721t.249-.721l.333,1.524Zm-40.018-1.8L15.679,24.2A1.837,1.837,0,0,0,13.6,22.7H6.173l-.055.36q8.619,2.189,11.169,9.312ZM22.247,22.7l-4.49,12.139-.471-2.466a10.077,10.077,0,0,0-2.356-3.589,10.748,10.748,0,0,0-3.63-2.453l3.741,14.134h4.85L27.125,22.7H22.247ZM26.1,40.5h4.6L33.582,22.7h-4.6ZM47.383,23.148a11.232,11.232,0,0,0-4.129-.748,8.983,8.983,0,0,0-5.57,1.635,5.156,5.156,0,0,0-2.189,4.24Q35.466,31.1,39.513,33.1a7.665,7.665,0,0,1,1.857,1.136,1.476,1.476,0,0,1,.527,1.081,1.387,1.387,0,0,1-.831,1.275,4,4,0,0,1-1.912.443,10.013,10.013,0,0,1-4.323-.915l-.61-.3L33.582,39.8a12.279,12.279,0,0,0,5.127.942,9.15,9.15,0,0,0,5.778-1.635,5.449,5.449,0,0,0,2.231-4.434q0-2.938-3.88-4.822a13.392,13.392,0,0,1-1.968-1.164,1.334,1.334,0,0,1-.61-1.053,1.294,1.294,0,0,1,.679-1.067,3.491,3.491,0,0,1,1.954-.457,7.823,7.823,0,0,1,3.436.665l.416.222ZM59.161,22.7H55.614A2.354,2.354,0,0,0,53.2,24.2L46.386,40.5h4.822l.97-2.66h5.875q.139.61.554,2.66h4.268Zm7.261-8.868V49.31a3.6,3.6,0,0,1-3.547,3.547H6.118A3.409,3.409,0,0,1,3.624,51.8,3.409,3.409,0,0,1,2.571,49.31V13.836a3.409,3.409,0,0,1,1.053-2.494,3.409,3.409,0,0,1,2.494-1.053H62.875a3.6,3.6,0,0,1,3.547,3.547Z" transform="translate(-2.571 -10.289)" fill="#a3a1fb"/>
</svg>
